%TF.GenerationSoftware,KiCad,Pcbnew,8.0.6*%
%TF.CreationDate,2024-11-12T21:32:05-08:00*%
%TF.ProjectId,sensor_board,73656e73-6f72-45f6-926f-6172642e6b69,rev?*%
%TF.SameCoordinates,Original*%
%TF.FileFunction,Drillmap*%
%TF.FilePolarity,Positive*%
%FSLAX45Y45*%
G04 Gerber Fmt 4.5, Leading zero omitted, Abs format (unit mm)*
G04 Created by KiCad (PCBNEW 8.0.6) date 2024-11-12 21:32:05*
%MOMM*%
%LPD*%
G01*
G04 APERTURE LIST*
%ADD10C,0.100000*%
%ADD11C,0.200000*%
%ADD12C,0.220000*%
G04 APERTURE END LIST*
D10*
X0Y0D02*
X4060000Y0D01*
X4060000Y-3060000D01*
X0Y-3060000D01*
X0Y0D01*
D11*
D10*
X205980Y-2403080D02*
X235980Y-2433080D01*
X235980Y-2403080D02*
X205980Y-2433080D01*
X216140Y-612380D02*
X246140Y-642380D01*
X246140Y-612380D02*
X216140Y-642380D01*
X239000Y-2067800D02*
X269000Y-2097800D01*
X269000Y-2067800D02*
X239000Y-2097800D01*
X409180Y-1031480D02*
X439180Y-1061480D01*
X439180Y-1031480D02*
X409180Y-1061480D01*
X604760Y-162800D02*
X634760Y-192800D01*
X634760Y-162800D02*
X604760Y-192800D01*
X658100Y-2804400D02*
X688100Y-2834400D01*
X688100Y-2804400D02*
X658100Y-2834400D01*
X835900Y-1348980D02*
X865900Y-1378980D01*
X865900Y-1348980D02*
X835900Y-1378980D01*
X916500Y-2316720D02*
X946500Y-2346720D01*
X946500Y-2316720D02*
X916500Y-2346720D01*
X1272780Y-686040D02*
X1302780Y-716040D01*
X1302780Y-686040D02*
X1272780Y-716040D01*
X1277860Y-317740D02*
X1307860Y-347740D01*
X1307860Y-317740D02*
X1277860Y-347740D01*
X1308340Y-1778240D02*
X1338340Y-1808240D01*
X1338340Y-1778240D02*
X1308340Y-1808240D01*
X1361680Y-1051800D02*
X1391680Y-1081800D01*
X1391680Y-1051800D02*
X1361680Y-1081800D01*
X1714740Y-693660D02*
X1744740Y-723660D01*
X1744740Y-693660D02*
X1714740Y-723660D01*
X1719820Y-317740D02*
X1749820Y-347740D01*
X1749820Y-317740D02*
X1719820Y-347740D01*
X1930640Y-1046720D02*
X1960640Y-1076720D01*
X1960640Y-1046720D02*
X1930640Y-1076720D01*
X2151620Y-1613140D02*
X2181620Y-1643140D01*
X2181620Y-1613140D02*
X2151620Y-1643140D01*
X2171940Y-1064500D02*
X2201940Y-1094500D01*
X2201940Y-1064500D02*
X2171940Y-1094500D01*
X2240520Y-1064500D02*
X2270520Y-1094500D01*
X2270520Y-1064500D02*
X2240520Y-1094500D01*
X2335000Y-260000D02*
X2365000Y-290000D01*
X2365000Y-260000D02*
X2335000Y-290000D01*
X2585960Y-2352280D02*
X2615960Y-2382280D01*
X2615960Y-2352280D02*
X2585960Y-2382280D01*
X2696692Y-2249168D02*
X2726692Y-2279168D01*
X2726692Y-2249168D02*
X2696692Y-2279168D01*
X2743440Y-378700D02*
X2773440Y-408700D01*
X2773440Y-378700D02*
X2743440Y-408700D01*
X2748520Y-132320D02*
X2778520Y-162320D01*
X2778520Y-132320D02*
X2748520Y-162320D01*
X2768840Y-1973820D02*
X2798840Y-2003820D01*
X2798840Y-1973820D02*
X2768840Y-2003820D01*
X2895840Y-2636760D02*
X2925840Y-2666760D01*
X2925840Y-2636760D02*
X2895840Y-2666760D01*
X3299700Y-1188960D02*
X3329700Y-1218960D01*
X3329700Y-1188960D02*
X3299700Y-1218960D01*
X3335260Y-1336280D02*
X3365260Y-1366280D01*
X3365260Y-1336280D02*
X3335260Y-1366280D01*
X3429240Y-838440D02*
X3459240Y-868440D01*
X3459240Y-838440D02*
X3429240Y-868440D01*
X3431780Y-686040D02*
X3461780Y-716040D01*
X3461780Y-686040D02*
X3431780Y-716040D01*
X3436860Y-1305800D02*
X3466860Y-1335800D01*
X3466860Y-1305800D02*
X3436860Y-1335800D01*
X3436860Y-1374380D02*
X3466860Y-1404380D01*
X3466860Y-1374380D02*
X3436860Y-1404380D01*
X3436860Y-1442960D02*
X3466860Y-1472960D01*
X3466860Y-1442960D02*
X3436860Y-1472960D01*
X3469880Y-2639300D02*
X3499880Y-2669300D01*
X3499880Y-2639300D02*
X3469880Y-2669300D01*
X3480040Y-122160D02*
X3510040Y-152160D01*
X3510040Y-122160D02*
X3480040Y-152160D01*
X3566400Y-2232900D02*
X3596400Y-2262900D01*
X3596400Y-2232900D02*
X3566400Y-2262900D01*
X3568940Y-2314180D02*
X3598940Y-2344180D01*
X3598940Y-2314180D02*
X3568940Y-2344180D01*
X3855960Y-1046720D02*
X3885960Y-1076720D01*
X3885960Y-1046720D02*
X3855960Y-1076720D01*
X3855960Y-1122920D02*
X3885960Y-1152920D01*
X3885960Y-1122920D02*
X3855960Y-1152920D01*
D12*
X390000Y-280000D02*
G75*
G02*
X170000Y-280000I-110000J0D01*
G01*
X170000Y-280000D02*
G75*
G02*
X390000Y-280000I110000J0D01*
G01*
X390000Y-2780000D02*
G75*
G02*
X170000Y-2780000I-110000J0D01*
G01*
X170000Y-2780000D02*
G75*
G02*
X390000Y-2780000I110000J0D01*
G01*
X3890000Y-280000D02*
G75*
G02*
X3670000Y-280000I-110000J0D01*
G01*
X3670000Y-280000D02*
G75*
G02*
X3890000Y-280000I110000J0D01*
G01*
X3890000Y-2780000D02*
G75*
G02*
X3670000Y-2780000I-110000J0D01*
G01*
X3670000Y-2780000D02*
G75*
G02*
X3890000Y-2780000I110000J0D01*
G01*
D11*
X255777Y-3376484D02*
X255777Y-3176484D01*
X255777Y-3176484D02*
X303396Y-3176484D01*
X303396Y-3176484D02*
X331967Y-3186008D01*
X331967Y-3186008D02*
X351015Y-3205055D01*
X351015Y-3205055D02*
X360539Y-3224103D01*
X360539Y-3224103D02*
X370062Y-3262198D01*
X370062Y-3262198D02*
X370062Y-3290769D01*
X370062Y-3290769D02*
X360539Y-3328865D01*
X360539Y-3328865D02*
X351015Y-3347912D01*
X351015Y-3347912D02*
X331967Y-3366960D01*
X331967Y-3366960D02*
X303396Y-3376484D01*
X303396Y-3376484D02*
X255777Y-3376484D01*
X455777Y-3376484D02*
X455777Y-3243150D01*
X455777Y-3281246D02*
X465301Y-3262198D01*
X465301Y-3262198D02*
X474824Y-3252674D01*
X474824Y-3252674D02*
X493872Y-3243150D01*
X493872Y-3243150D02*
X512920Y-3243150D01*
X579586Y-3376484D02*
X579586Y-3243150D01*
X579586Y-3176484D02*
X570063Y-3186008D01*
X570063Y-3186008D02*
X579586Y-3195531D01*
X579586Y-3195531D02*
X589110Y-3186008D01*
X589110Y-3186008D02*
X579586Y-3176484D01*
X579586Y-3176484D02*
X579586Y-3195531D01*
X703396Y-3376484D02*
X684348Y-3366960D01*
X684348Y-3366960D02*
X674824Y-3347912D01*
X674824Y-3347912D02*
X674824Y-3176484D01*
X808158Y-3376484D02*
X789110Y-3366960D01*
X789110Y-3366960D02*
X779586Y-3347912D01*
X779586Y-3347912D02*
X779586Y-3176484D01*
X1036729Y-3376484D02*
X1036729Y-3176484D01*
X1036729Y-3176484D02*
X1103396Y-3319341D01*
X1103396Y-3319341D02*
X1170063Y-3176484D01*
X1170063Y-3176484D02*
X1170063Y-3376484D01*
X1351015Y-3376484D02*
X1351015Y-3271722D01*
X1351015Y-3271722D02*
X1341491Y-3252674D01*
X1341491Y-3252674D02*
X1322444Y-3243150D01*
X1322444Y-3243150D02*
X1284348Y-3243150D01*
X1284348Y-3243150D02*
X1265301Y-3252674D01*
X1351015Y-3366960D02*
X1331967Y-3376484D01*
X1331967Y-3376484D02*
X1284348Y-3376484D01*
X1284348Y-3376484D02*
X1265301Y-3366960D01*
X1265301Y-3366960D02*
X1255777Y-3347912D01*
X1255777Y-3347912D02*
X1255777Y-3328865D01*
X1255777Y-3328865D02*
X1265301Y-3309817D01*
X1265301Y-3309817D02*
X1284348Y-3300293D01*
X1284348Y-3300293D02*
X1331967Y-3300293D01*
X1331967Y-3300293D02*
X1351015Y-3290769D01*
X1446253Y-3243150D02*
X1446253Y-3443150D01*
X1446253Y-3252674D02*
X1465301Y-3243150D01*
X1465301Y-3243150D02*
X1503396Y-3243150D01*
X1503396Y-3243150D02*
X1522443Y-3252674D01*
X1522443Y-3252674D02*
X1531967Y-3262198D01*
X1531967Y-3262198D02*
X1541491Y-3281246D01*
X1541491Y-3281246D02*
X1541491Y-3338388D01*
X1541491Y-3338388D02*
X1531967Y-3357436D01*
X1531967Y-3357436D02*
X1522443Y-3366960D01*
X1522443Y-3366960D02*
X1503396Y-3376484D01*
X1503396Y-3376484D02*
X1465301Y-3376484D01*
X1465301Y-3376484D02*
X1446253Y-3366960D01*
X1627205Y-3357436D02*
X1636729Y-3366960D01*
X1636729Y-3366960D02*
X1627205Y-3376484D01*
X1627205Y-3376484D02*
X1617682Y-3366960D01*
X1617682Y-3366960D02*
X1627205Y-3357436D01*
X1627205Y-3357436D02*
X1627205Y-3376484D01*
X1627205Y-3252674D02*
X1636729Y-3262198D01*
X1636729Y-3262198D02*
X1627205Y-3271722D01*
X1627205Y-3271722D02*
X1617682Y-3262198D01*
X1617682Y-3262198D02*
X1627205Y-3252674D01*
X1627205Y-3252674D02*
X1627205Y-3271722D01*
D10*
X-35000Y-3690000D02*
X-5000Y-3720000D01*
X-5000Y-3690000D02*
X-35000Y-3720000D01*
D11*
X293872Y-3596484D02*
X312920Y-3596484D01*
X312920Y-3596484D02*
X331967Y-3606008D01*
X331967Y-3606008D02*
X341491Y-3615531D01*
X341491Y-3615531D02*
X351015Y-3634579D01*
X351015Y-3634579D02*
X360539Y-3672674D01*
X360539Y-3672674D02*
X360539Y-3720293D01*
X360539Y-3720293D02*
X351015Y-3758388D01*
X351015Y-3758388D02*
X341491Y-3777436D01*
X341491Y-3777436D02*
X331967Y-3786960D01*
X331967Y-3786960D02*
X312920Y-3796484D01*
X312920Y-3796484D02*
X293872Y-3796484D01*
X293872Y-3796484D02*
X274824Y-3786960D01*
X274824Y-3786960D02*
X265301Y-3777436D01*
X265301Y-3777436D02*
X255777Y-3758388D01*
X255777Y-3758388D02*
X246253Y-3720293D01*
X246253Y-3720293D02*
X246253Y-3672674D01*
X246253Y-3672674D02*
X255777Y-3634579D01*
X255777Y-3634579D02*
X265301Y-3615531D01*
X265301Y-3615531D02*
X274824Y-3606008D01*
X274824Y-3606008D02*
X293872Y-3596484D01*
X446253Y-3777436D02*
X455777Y-3786960D01*
X455777Y-3786960D02*
X446253Y-3796484D01*
X446253Y-3796484D02*
X436729Y-3786960D01*
X436729Y-3786960D02*
X446253Y-3777436D01*
X446253Y-3777436D02*
X446253Y-3796484D01*
X522443Y-3596484D02*
X646253Y-3596484D01*
X646253Y-3596484D02*
X579586Y-3672674D01*
X579586Y-3672674D02*
X608158Y-3672674D01*
X608158Y-3672674D02*
X627205Y-3682198D01*
X627205Y-3682198D02*
X636729Y-3691722D01*
X636729Y-3691722D02*
X646253Y-3710769D01*
X646253Y-3710769D02*
X646253Y-3758388D01*
X646253Y-3758388D02*
X636729Y-3777436D01*
X636729Y-3777436D02*
X627205Y-3786960D01*
X627205Y-3786960D02*
X608158Y-3796484D01*
X608158Y-3796484D02*
X551015Y-3796484D01*
X551015Y-3796484D02*
X531967Y-3786960D01*
X531967Y-3786960D02*
X522443Y-3777436D01*
X770062Y-3596484D02*
X789110Y-3596484D01*
X789110Y-3596484D02*
X808158Y-3606008D01*
X808158Y-3606008D02*
X817682Y-3615531D01*
X817682Y-3615531D02*
X827205Y-3634579D01*
X827205Y-3634579D02*
X836729Y-3672674D01*
X836729Y-3672674D02*
X836729Y-3720293D01*
X836729Y-3720293D02*
X827205Y-3758388D01*
X827205Y-3758388D02*
X817682Y-3777436D01*
X817682Y-3777436D02*
X808158Y-3786960D01*
X808158Y-3786960D02*
X789110Y-3796484D01*
X789110Y-3796484D02*
X770062Y-3796484D01*
X770062Y-3796484D02*
X751015Y-3786960D01*
X751015Y-3786960D02*
X741491Y-3777436D01*
X741491Y-3777436D02*
X731967Y-3758388D01*
X731967Y-3758388D02*
X722443Y-3720293D01*
X722443Y-3720293D02*
X722443Y-3672674D01*
X722443Y-3672674D02*
X731967Y-3634579D01*
X731967Y-3634579D02*
X741491Y-3615531D01*
X741491Y-3615531D02*
X751015Y-3606008D01*
X751015Y-3606008D02*
X770062Y-3596484D01*
X960539Y-3596484D02*
X979586Y-3596484D01*
X979586Y-3596484D02*
X998634Y-3606008D01*
X998634Y-3606008D02*
X1008158Y-3615531D01*
X1008158Y-3615531D02*
X1017682Y-3634579D01*
X1017682Y-3634579D02*
X1027205Y-3672674D01*
X1027205Y-3672674D02*
X1027205Y-3720293D01*
X1027205Y-3720293D02*
X1017682Y-3758388D01*
X1017682Y-3758388D02*
X1008158Y-3777436D01*
X1008158Y-3777436D02*
X998634Y-3786960D01*
X998634Y-3786960D02*
X979586Y-3796484D01*
X979586Y-3796484D02*
X960539Y-3796484D01*
X960539Y-3796484D02*
X941491Y-3786960D01*
X941491Y-3786960D02*
X931967Y-3777436D01*
X931967Y-3777436D02*
X922443Y-3758388D01*
X922443Y-3758388D02*
X912920Y-3720293D01*
X912920Y-3720293D02*
X912920Y-3672674D01*
X912920Y-3672674D02*
X922443Y-3634579D01*
X922443Y-3634579D02*
X931967Y-3615531D01*
X931967Y-3615531D02*
X941491Y-3606008D01*
X941491Y-3606008D02*
X960539Y-3596484D01*
X1112920Y-3796484D02*
X1112920Y-3663150D01*
X1112920Y-3682198D02*
X1122444Y-3672674D01*
X1122444Y-3672674D02*
X1141491Y-3663150D01*
X1141491Y-3663150D02*
X1170063Y-3663150D01*
X1170063Y-3663150D02*
X1189110Y-3672674D01*
X1189110Y-3672674D02*
X1198634Y-3691722D01*
X1198634Y-3691722D02*
X1198634Y-3796484D01*
X1198634Y-3691722D02*
X1208158Y-3672674D01*
X1208158Y-3672674D02*
X1227205Y-3663150D01*
X1227205Y-3663150D02*
X1255777Y-3663150D01*
X1255777Y-3663150D02*
X1274825Y-3672674D01*
X1274825Y-3672674D02*
X1284348Y-3691722D01*
X1284348Y-3691722D02*
X1284348Y-3796484D01*
X1379586Y-3796484D02*
X1379586Y-3663150D01*
X1379586Y-3682198D02*
X1389110Y-3672674D01*
X1389110Y-3672674D02*
X1408158Y-3663150D01*
X1408158Y-3663150D02*
X1436729Y-3663150D01*
X1436729Y-3663150D02*
X1455777Y-3672674D01*
X1455777Y-3672674D02*
X1465301Y-3691722D01*
X1465301Y-3691722D02*
X1465301Y-3796484D01*
X1465301Y-3691722D02*
X1474824Y-3672674D01*
X1474824Y-3672674D02*
X1493872Y-3663150D01*
X1493872Y-3663150D02*
X1522443Y-3663150D01*
X1522443Y-3663150D02*
X1541491Y-3672674D01*
X1541491Y-3672674D02*
X1551015Y-3691722D01*
X1551015Y-3691722D02*
X1551015Y-3796484D01*
X1941491Y-3586960D02*
X1770063Y-3844103D01*
X2198634Y-3596484D02*
X2217682Y-3596484D01*
X2217682Y-3596484D02*
X2236729Y-3606008D01*
X2236729Y-3606008D02*
X2246253Y-3615531D01*
X2246253Y-3615531D02*
X2255777Y-3634579D01*
X2255777Y-3634579D02*
X2265301Y-3672674D01*
X2265301Y-3672674D02*
X2265301Y-3720293D01*
X2265301Y-3720293D02*
X2255777Y-3758388D01*
X2255777Y-3758388D02*
X2246253Y-3777436D01*
X2246253Y-3777436D02*
X2236729Y-3786960D01*
X2236729Y-3786960D02*
X2217682Y-3796484D01*
X2217682Y-3796484D02*
X2198634Y-3796484D01*
X2198634Y-3796484D02*
X2179587Y-3786960D01*
X2179587Y-3786960D02*
X2170063Y-3777436D01*
X2170063Y-3777436D02*
X2160539Y-3758388D01*
X2160539Y-3758388D02*
X2151015Y-3720293D01*
X2151015Y-3720293D02*
X2151015Y-3672674D01*
X2151015Y-3672674D02*
X2160539Y-3634579D01*
X2160539Y-3634579D02*
X2170063Y-3615531D01*
X2170063Y-3615531D02*
X2179587Y-3606008D01*
X2179587Y-3606008D02*
X2198634Y-3596484D01*
X2351015Y-3777436D02*
X2360539Y-3786960D01*
X2360539Y-3786960D02*
X2351015Y-3796484D01*
X2351015Y-3796484D02*
X2341491Y-3786960D01*
X2341491Y-3786960D02*
X2351015Y-3777436D01*
X2351015Y-3777436D02*
X2351015Y-3796484D01*
X2484348Y-3596484D02*
X2503396Y-3596484D01*
X2503396Y-3596484D02*
X2522444Y-3606008D01*
X2522444Y-3606008D02*
X2531968Y-3615531D01*
X2531968Y-3615531D02*
X2541491Y-3634579D01*
X2541491Y-3634579D02*
X2551015Y-3672674D01*
X2551015Y-3672674D02*
X2551015Y-3720293D01*
X2551015Y-3720293D02*
X2541491Y-3758388D01*
X2541491Y-3758388D02*
X2531968Y-3777436D01*
X2531968Y-3777436D02*
X2522444Y-3786960D01*
X2522444Y-3786960D02*
X2503396Y-3796484D01*
X2503396Y-3796484D02*
X2484348Y-3796484D01*
X2484348Y-3796484D02*
X2465301Y-3786960D01*
X2465301Y-3786960D02*
X2455777Y-3777436D01*
X2455777Y-3777436D02*
X2446253Y-3758388D01*
X2446253Y-3758388D02*
X2436729Y-3720293D01*
X2436729Y-3720293D02*
X2436729Y-3672674D01*
X2436729Y-3672674D02*
X2446253Y-3634579D01*
X2446253Y-3634579D02*
X2455777Y-3615531D01*
X2455777Y-3615531D02*
X2465301Y-3606008D01*
X2465301Y-3606008D02*
X2484348Y-3596484D01*
X2741491Y-3796484D02*
X2627206Y-3796484D01*
X2684348Y-3796484D02*
X2684348Y-3596484D01*
X2684348Y-3596484D02*
X2665301Y-3625055D01*
X2665301Y-3625055D02*
X2646253Y-3644103D01*
X2646253Y-3644103D02*
X2627206Y-3653627D01*
X2931967Y-3796484D02*
X2817682Y-3796484D01*
X2874825Y-3796484D02*
X2874825Y-3596484D01*
X2874825Y-3596484D02*
X2855777Y-3625055D01*
X2855777Y-3625055D02*
X2836729Y-3644103D01*
X2836729Y-3644103D02*
X2817682Y-3653627D01*
X3046253Y-3682198D02*
X3027206Y-3672674D01*
X3027206Y-3672674D02*
X3017682Y-3663150D01*
X3017682Y-3663150D02*
X3008158Y-3644103D01*
X3008158Y-3644103D02*
X3008158Y-3634579D01*
X3008158Y-3634579D02*
X3017682Y-3615531D01*
X3017682Y-3615531D02*
X3027206Y-3606008D01*
X3027206Y-3606008D02*
X3046253Y-3596484D01*
X3046253Y-3596484D02*
X3084348Y-3596484D01*
X3084348Y-3596484D02*
X3103396Y-3606008D01*
X3103396Y-3606008D02*
X3112920Y-3615531D01*
X3112920Y-3615531D02*
X3122444Y-3634579D01*
X3122444Y-3634579D02*
X3122444Y-3644103D01*
X3122444Y-3644103D02*
X3112920Y-3663150D01*
X3112920Y-3663150D02*
X3103396Y-3672674D01*
X3103396Y-3672674D02*
X3084348Y-3682198D01*
X3084348Y-3682198D02*
X3046253Y-3682198D01*
X3046253Y-3682198D02*
X3027206Y-3691722D01*
X3027206Y-3691722D02*
X3017682Y-3701246D01*
X3017682Y-3701246D02*
X3008158Y-3720293D01*
X3008158Y-3720293D02*
X3008158Y-3758388D01*
X3008158Y-3758388D02*
X3017682Y-3777436D01*
X3017682Y-3777436D02*
X3027206Y-3786960D01*
X3027206Y-3786960D02*
X3046253Y-3796484D01*
X3046253Y-3796484D02*
X3084348Y-3796484D01*
X3084348Y-3796484D02*
X3103396Y-3786960D01*
X3103396Y-3786960D02*
X3112920Y-3777436D01*
X3112920Y-3777436D02*
X3122444Y-3758388D01*
X3122444Y-3758388D02*
X3122444Y-3720293D01*
X3122444Y-3720293D02*
X3112920Y-3701246D01*
X3112920Y-3701246D02*
X3103396Y-3691722D01*
X3103396Y-3691722D02*
X3084348Y-3682198D01*
X3198634Y-3596484D02*
X3198634Y-3634579D01*
X3274825Y-3596484D02*
X3274825Y-3634579D01*
X3570063Y-3872674D02*
X3560539Y-3863150D01*
X3560539Y-3863150D02*
X3541491Y-3834579D01*
X3541491Y-3834579D02*
X3531968Y-3815531D01*
X3531968Y-3815531D02*
X3522444Y-3786960D01*
X3522444Y-3786960D02*
X3512920Y-3739341D01*
X3512920Y-3739341D02*
X3512920Y-3701246D01*
X3512920Y-3701246D02*
X3522444Y-3653627D01*
X3522444Y-3653627D02*
X3531968Y-3625055D01*
X3531968Y-3625055D02*
X3541491Y-3606008D01*
X3541491Y-3606008D02*
X3560539Y-3577436D01*
X3560539Y-3577436D02*
X3570063Y-3567912D01*
X3627206Y-3596484D02*
X3751015Y-3596484D01*
X3751015Y-3596484D02*
X3684348Y-3672674D01*
X3684348Y-3672674D02*
X3712920Y-3672674D01*
X3712920Y-3672674D02*
X3731968Y-3682198D01*
X3731968Y-3682198D02*
X3741491Y-3691722D01*
X3741491Y-3691722D02*
X3751015Y-3710769D01*
X3751015Y-3710769D02*
X3751015Y-3758388D01*
X3751015Y-3758388D02*
X3741491Y-3777436D01*
X3741491Y-3777436D02*
X3731968Y-3786960D01*
X3731968Y-3786960D02*
X3712920Y-3796484D01*
X3712920Y-3796484D02*
X3655777Y-3796484D01*
X3655777Y-3796484D02*
X3636729Y-3786960D01*
X3636729Y-3786960D02*
X3627206Y-3777436D01*
X3865301Y-3682198D02*
X3846253Y-3672674D01*
X3846253Y-3672674D02*
X3836729Y-3663150D01*
X3836729Y-3663150D02*
X3827206Y-3644103D01*
X3827206Y-3644103D02*
X3827206Y-3634579D01*
X3827206Y-3634579D02*
X3836729Y-3615531D01*
X3836729Y-3615531D02*
X3846253Y-3606008D01*
X3846253Y-3606008D02*
X3865301Y-3596484D01*
X3865301Y-3596484D02*
X3903396Y-3596484D01*
X3903396Y-3596484D02*
X3922444Y-3606008D01*
X3922444Y-3606008D02*
X3931968Y-3615531D01*
X3931968Y-3615531D02*
X3941491Y-3634579D01*
X3941491Y-3634579D02*
X3941491Y-3644103D01*
X3941491Y-3644103D02*
X3931968Y-3663150D01*
X3931968Y-3663150D02*
X3922444Y-3672674D01*
X3922444Y-3672674D02*
X3903396Y-3682198D01*
X3903396Y-3682198D02*
X3865301Y-3682198D01*
X3865301Y-3682198D02*
X3846253Y-3691722D01*
X3846253Y-3691722D02*
X3836729Y-3701246D01*
X3836729Y-3701246D02*
X3827206Y-3720293D01*
X3827206Y-3720293D02*
X3827206Y-3758388D01*
X3827206Y-3758388D02*
X3836729Y-3777436D01*
X3836729Y-3777436D02*
X3846253Y-3786960D01*
X3846253Y-3786960D02*
X3865301Y-3796484D01*
X3865301Y-3796484D02*
X3903396Y-3796484D01*
X3903396Y-3796484D02*
X3922444Y-3786960D01*
X3922444Y-3786960D02*
X3931968Y-3777436D01*
X3931968Y-3777436D02*
X3941491Y-3758388D01*
X3941491Y-3758388D02*
X3941491Y-3720293D01*
X3941491Y-3720293D02*
X3931968Y-3701246D01*
X3931968Y-3701246D02*
X3922444Y-3691722D01*
X3922444Y-3691722D02*
X3903396Y-3682198D01*
X4179587Y-3796484D02*
X4179587Y-3596484D01*
X4265301Y-3796484D02*
X4265301Y-3691722D01*
X4265301Y-3691722D02*
X4255777Y-3672674D01*
X4255777Y-3672674D02*
X4236730Y-3663150D01*
X4236730Y-3663150D02*
X4208158Y-3663150D01*
X4208158Y-3663150D02*
X4189110Y-3672674D01*
X4189110Y-3672674D02*
X4179587Y-3682198D01*
X4389111Y-3796484D02*
X4370063Y-3786960D01*
X4370063Y-3786960D02*
X4360539Y-3777436D01*
X4360539Y-3777436D02*
X4351015Y-3758388D01*
X4351015Y-3758388D02*
X4351015Y-3701246D01*
X4351015Y-3701246D02*
X4360539Y-3682198D01*
X4360539Y-3682198D02*
X4370063Y-3672674D01*
X4370063Y-3672674D02*
X4389111Y-3663150D01*
X4389111Y-3663150D02*
X4417682Y-3663150D01*
X4417682Y-3663150D02*
X4436730Y-3672674D01*
X4436730Y-3672674D02*
X4446253Y-3682198D01*
X4446253Y-3682198D02*
X4455777Y-3701246D01*
X4455777Y-3701246D02*
X4455777Y-3758388D01*
X4455777Y-3758388D02*
X4446253Y-3777436D01*
X4446253Y-3777436D02*
X4436730Y-3786960D01*
X4436730Y-3786960D02*
X4417682Y-3796484D01*
X4417682Y-3796484D02*
X4389111Y-3796484D01*
X4570063Y-3796484D02*
X4551015Y-3786960D01*
X4551015Y-3786960D02*
X4541492Y-3767912D01*
X4541492Y-3767912D02*
X4541492Y-3596484D01*
X4722444Y-3786960D02*
X4703396Y-3796484D01*
X4703396Y-3796484D02*
X4665301Y-3796484D01*
X4665301Y-3796484D02*
X4646253Y-3786960D01*
X4646253Y-3786960D02*
X4636730Y-3767912D01*
X4636730Y-3767912D02*
X4636730Y-3691722D01*
X4636730Y-3691722D02*
X4646253Y-3672674D01*
X4646253Y-3672674D02*
X4665301Y-3663150D01*
X4665301Y-3663150D02*
X4703396Y-3663150D01*
X4703396Y-3663150D02*
X4722444Y-3672674D01*
X4722444Y-3672674D02*
X4731968Y-3691722D01*
X4731968Y-3691722D02*
X4731968Y-3710769D01*
X4731968Y-3710769D02*
X4636730Y-3729817D01*
X4808158Y-3786960D02*
X4827206Y-3796484D01*
X4827206Y-3796484D02*
X4865301Y-3796484D01*
X4865301Y-3796484D02*
X4884349Y-3786960D01*
X4884349Y-3786960D02*
X4893873Y-3767912D01*
X4893873Y-3767912D02*
X4893873Y-3758388D01*
X4893873Y-3758388D02*
X4884349Y-3739341D01*
X4884349Y-3739341D02*
X4865301Y-3729817D01*
X4865301Y-3729817D02*
X4836730Y-3729817D01*
X4836730Y-3729817D02*
X4817682Y-3720293D01*
X4817682Y-3720293D02*
X4808158Y-3701246D01*
X4808158Y-3701246D02*
X4808158Y-3691722D01*
X4808158Y-3691722D02*
X4817682Y-3672674D01*
X4817682Y-3672674D02*
X4836730Y-3663150D01*
X4836730Y-3663150D02*
X4865301Y-3663150D01*
X4865301Y-3663150D02*
X4884349Y-3672674D01*
X4960539Y-3872674D02*
X4970063Y-3863150D01*
X4970063Y-3863150D02*
X4989111Y-3834579D01*
X4989111Y-3834579D02*
X4998634Y-3815531D01*
X4998634Y-3815531D02*
X5008158Y-3786960D01*
X5008158Y-3786960D02*
X5017682Y-3739341D01*
X5017682Y-3739341D02*
X5017682Y-3701246D01*
X5017682Y-3701246D02*
X5008158Y-3653627D01*
X5008158Y-3653627D02*
X4998634Y-3625055D01*
X4998634Y-3625055D02*
X4989111Y-3606008D01*
X4989111Y-3606008D02*
X4970063Y-3577436D01*
X4970063Y-3577436D02*
X4960539Y-3567912D01*
X-5000Y-3969000D02*
G75*
G02*
X-205000Y-3969000I-100000J0D01*
G01*
X-205000Y-3969000D02*
G75*
G02*
X-5000Y-3969000I100000J0D01*
G01*
X246253Y-3879531D02*
X255777Y-3870008D01*
X255777Y-3870008D02*
X274824Y-3860484D01*
X274824Y-3860484D02*
X322444Y-3860484D01*
X322444Y-3860484D02*
X341491Y-3870008D01*
X341491Y-3870008D02*
X351015Y-3879531D01*
X351015Y-3879531D02*
X360539Y-3898579D01*
X360539Y-3898579D02*
X360539Y-3917627D01*
X360539Y-3917627D02*
X351015Y-3946198D01*
X351015Y-3946198D02*
X236729Y-4060484D01*
X236729Y-4060484D02*
X360539Y-4060484D01*
X446253Y-4041436D02*
X455777Y-4050960D01*
X455777Y-4050960D02*
X446253Y-4060484D01*
X446253Y-4060484D02*
X436729Y-4050960D01*
X436729Y-4050960D02*
X446253Y-4041436D01*
X446253Y-4041436D02*
X446253Y-4060484D01*
X531967Y-3879531D02*
X541491Y-3870008D01*
X541491Y-3870008D02*
X560539Y-3860484D01*
X560539Y-3860484D02*
X608158Y-3860484D01*
X608158Y-3860484D02*
X627205Y-3870008D01*
X627205Y-3870008D02*
X636729Y-3879531D01*
X636729Y-3879531D02*
X646253Y-3898579D01*
X646253Y-3898579D02*
X646253Y-3917627D01*
X646253Y-3917627D02*
X636729Y-3946198D01*
X636729Y-3946198D02*
X522443Y-4060484D01*
X522443Y-4060484D02*
X646253Y-4060484D01*
X770062Y-3860484D02*
X789110Y-3860484D01*
X789110Y-3860484D02*
X808158Y-3870008D01*
X808158Y-3870008D02*
X817682Y-3879531D01*
X817682Y-3879531D02*
X827205Y-3898579D01*
X827205Y-3898579D02*
X836729Y-3936674D01*
X836729Y-3936674D02*
X836729Y-3984293D01*
X836729Y-3984293D02*
X827205Y-4022388D01*
X827205Y-4022388D02*
X817682Y-4041436D01*
X817682Y-4041436D02*
X808158Y-4050960D01*
X808158Y-4050960D02*
X789110Y-4060484D01*
X789110Y-4060484D02*
X770062Y-4060484D01*
X770062Y-4060484D02*
X751015Y-4050960D01*
X751015Y-4050960D02*
X741491Y-4041436D01*
X741491Y-4041436D02*
X731967Y-4022388D01*
X731967Y-4022388D02*
X722443Y-3984293D01*
X722443Y-3984293D02*
X722443Y-3936674D01*
X722443Y-3936674D02*
X731967Y-3898579D01*
X731967Y-3898579D02*
X741491Y-3879531D01*
X741491Y-3879531D02*
X751015Y-3870008D01*
X751015Y-3870008D02*
X770062Y-3860484D01*
X960539Y-3860484D02*
X979586Y-3860484D01*
X979586Y-3860484D02*
X998634Y-3870008D01*
X998634Y-3870008D02*
X1008158Y-3879531D01*
X1008158Y-3879531D02*
X1017682Y-3898579D01*
X1017682Y-3898579D02*
X1027205Y-3936674D01*
X1027205Y-3936674D02*
X1027205Y-3984293D01*
X1027205Y-3984293D02*
X1017682Y-4022388D01*
X1017682Y-4022388D02*
X1008158Y-4041436D01*
X1008158Y-4041436D02*
X998634Y-4050960D01*
X998634Y-4050960D02*
X979586Y-4060484D01*
X979586Y-4060484D02*
X960539Y-4060484D01*
X960539Y-4060484D02*
X941491Y-4050960D01*
X941491Y-4050960D02*
X931967Y-4041436D01*
X931967Y-4041436D02*
X922443Y-4022388D01*
X922443Y-4022388D02*
X912920Y-3984293D01*
X912920Y-3984293D02*
X912920Y-3936674D01*
X912920Y-3936674D02*
X922443Y-3898579D01*
X922443Y-3898579D02*
X931967Y-3879531D01*
X931967Y-3879531D02*
X941491Y-3870008D01*
X941491Y-3870008D02*
X960539Y-3860484D01*
X1112920Y-4060484D02*
X1112920Y-3927150D01*
X1112920Y-3946198D02*
X1122444Y-3936674D01*
X1122444Y-3936674D02*
X1141491Y-3927150D01*
X1141491Y-3927150D02*
X1170063Y-3927150D01*
X1170063Y-3927150D02*
X1189110Y-3936674D01*
X1189110Y-3936674D02*
X1198634Y-3955722D01*
X1198634Y-3955722D02*
X1198634Y-4060484D01*
X1198634Y-3955722D02*
X1208158Y-3936674D01*
X1208158Y-3936674D02*
X1227205Y-3927150D01*
X1227205Y-3927150D02*
X1255777Y-3927150D01*
X1255777Y-3927150D02*
X1274825Y-3936674D01*
X1274825Y-3936674D02*
X1284348Y-3955722D01*
X1284348Y-3955722D02*
X1284348Y-4060484D01*
X1379586Y-4060484D02*
X1379586Y-3927150D01*
X1379586Y-3946198D02*
X1389110Y-3936674D01*
X1389110Y-3936674D02*
X1408158Y-3927150D01*
X1408158Y-3927150D02*
X1436729Y-3927150D01*
X1436729Y-3927150D02*
X1455777Y-3936674D01*
X1455777Y-3936674D02*
X1465301Y-3955722D01*
X1465301Y-3955722D02*
X1465301Y-4060484D01*
X1465301Y-3955722D02*
X1474824Y-3936674D01*
X1474824Y-3936674D02*
X1493872Y-3927150D01*
X1493872Y-3927150D02*
X1522443Y-3927150D01*
X1522443Y-3927150D02*
X1541491Y-3936674D01*
X1541491Y-3936674D02*
X1551015Y-3955722D01*
X1551015Y-3955722D02*
X1551015Y-4060484D01*
X1941491Y-3850960D02*
X1770063Y-4108103D01*
X2198634Y-3860484D02*
X2217682Y-3860484D01*
X2217682Y-3860484D02*
X2236729Y-3870008D01*
X2236729Y-3870008D02*
X2246253Y-3879531D01*
X2246253Y-3879531D02*
X2255777Y-3898579D01*
X2255777Y-3898579D02*
X2265301Y-3936674D01*
X2265301Y-3936674D02*
X2265301Y-3984293D01*
X2265301Y-3984293D02*
X2255777Y-4022388D01*
X2255777Y-4022388D02*
X2246253Y-4041436D01*
X2246253Y-4041436D02*
X2236729Y-4050960D01*
X2236729Y-4050960D02*
X2217682Y-4060484D01*
X2217682Y-4060484D02*
X2198634Y-4060484D01*
X2198634Y-4060484D02*
X2179587Y-4050960D01*
X2179587Y-4050960D02*
X2170063Y-4041436D01*
X2170063Y-4041436D02*
X2160539Y-4022388D01*
X2160539Y-4022388D02*
X2151015Y-3984293D01*
X2151015Y-3984293D02*
X2151015Y-3936674D01*
X2151015Y-3936674D02*
X2160539Y-3898579D01*
X2160539Y-3898579D02*
X2170063Y-3879531D01*
X2170063Y-3879531D02*
X2179587Y-3870008D01*
X2179587Y-3870008D02*
X2198634Y-3860484D01*
X2351015Y-4041436D02*
X2360539Y-4050960D01*
X2360539Y-4050960D02*
X2351015Y-4060484D01*
X2351015Y-4060484D02*
X2341491Y-4050960D01*
X2341491Y-4050960D02*
X2351015Y-4041436D01*
X2351015Y-4041436D02*
X2351015Y-4060484D01*
X2484348Y-3860484D02*
X2503396Y-3860484D01*
X2503396Y-3860484D02*
X2522444Y-3870008D01*
X2522444Y-3870008D02*
X2531968Y-3879531D01*
X2531968Y-3879531D02*
X2541491Y-3898579D01*
X2541491Y-3898579D02*
X2551015Y-3936674D01*
X2551015Y-3936674D02*
X2551015Y-3984293D01*
X2551015Y-3984293D02*
X2541491Y-4022388D01*
X2541491Y-4022388D02*
X2531968Y-4041436D01*
X2531968Y-4041436D02*
X2522444Y-4050960D01*
X2522444Y-4050960D02*
X2503396Y-4060484D01*
X2503396Y-4060484D02*
X2484348Y-4060484D01*
X2484348Y-4060484D02*
X2465301Y-4050960D01*
X2465301Y-4050960D02*
X2455777Y-4041436D01*
X2455777Y-4041436D02*
X2446253Y-4022388D01*
X2446253Y-4022388D02*
X2436729Y-3984293D01*
X2436729Y-3984293D02*
X2436729Y-3936674D01*
X2436729Y-3936674D02*
X2446253Y-3898579D01*
X2446253Y-3898579D02*
X2455777Y-3879531D01*
X2455777Y-3879531D02*
X2465301Y-3870008D01*
X2465301Y-3870008D02*
X2484348Y-3860484D01*
X2665301Y-3946198D02*
X2646253Y-3936674D01*
X2646253Y-3936674D02*
X2636729Y-3927150D01*
X2636729Y-3927150D02*
X2627206Y-3908103D01*
X2627206Y-3908103D02*
X2627206Y-3898579D01*
X2627206Y-3898579D02*
X2636729Y-3879531D01*
X2636729Y-3879531D02*
X2646253Y-3870008D01*
X2646253Y-3870008D02*
X2665301Y-3860484D01*
X2665301Y-3860484D02*
X2703396Y-3860484D01*
X2703396Y-3860484D02*
X2722444Y-3870008D01*
X2722444Y-3870008D02*
X2731968Y-3879531D01*
X2731968Y-3879531D02*
X2741491Y-3898579D01*
X2741491Y-3898579D02*
X2741491Y-3908103D01*
X2741491Y-3908103D02*
X2731968Y-3927150D01*
X2731968Y-3927150D02*
X2722444Y-3936674D01*
X2722444Y-3936674D02*
X2703396Y-3946198D01*
X2703396Y-3946198D02*
X2665301Y-3946198D01*
X2665301Y-3946198D02*
X2646253Y-3955722D01*
X2646253Y-3955722D02*
X2636729Y-3965246D01*
X2636729Y-3965246D02*
X2627206Y-3984293D01*
X2627206Y-3984293D02*
X2627206Y-4022388D01*
X2627206Y-4022388D02*
X2636729Y-4041436D01*
X2636729Y-4041436D02*
X2646253Y-4050960D01*
X2646253Y-4050960D02*
X2665301Y-4060484D01*
X2665301Y-4060484D02*
X2703396Y-4060484D01*
X2703396Y-4060484D02*
X2722444Y-4050960D01*
X2722444Y-4050960D02*
X2731968Y-4041436D01*
X2731968Y-4041436D02*
X2741491Y-4022388D01*
X2741491Y-4022388D02*
X2741491Y-3984293D01*
X2741491Y-3984293D02*
X2731968Y-3965246D01*
X2731968Y-3965246D02*
X2722444Y-3955722D01*
X2722444Y-3955722D02*
X2703396Y-3946198D01*
X2912920Y-3860484D02*
X2874825Y-3860484D01*
X2874825Y-3860484D02*
X2855777Y-3870008D01*
X2855777Y-3870008D02*
X2846253Y-3879531D01*
X2846253Y-3879531D02*
X2827206Y-3908103D01*
X2827206Y-3908103D02*
X2817682Y-3946198D01*
X2817682Y-3946198D02*
X2817682Y-4022388D01*
X2817682Y-4022388D02*
X2827206Y-4041436D01*
X2827206Y-4041436D02*
X2836729Y-4050960D01*
X2836729Y-4050960D02*
X2855777Y-4060484D01*
X2855777Y-4060484D02*
X2893872Y-4060484D01*
X2893872Y-4060484D02*
X2912920Y-4050960D01*
X2912920Y-4050960D02*
X2922444Y-4041436D01*
X2922444Y-4041436D02*
X2931967Y-4022388D01*
X2931967Y-4022388D02*
X2931967Y-3974769D01*
X2931967Y-3974769D02*
X2922444Y-3955722D01*
X2922444Y-3955722D02*
X2912920Y-3946198D01*
X2912920Y-3946198D02*
X2893872Y-3936674D01*
X2893872Y-3936674D02*
X2855777Y-3936674D01*
X2855777Y-3936674D02*
X2836729Y-3946198D01*
X2836729Y-3946198D02*
X2827206Y-3955722D01*
X2827206Y-3955722D02*
X2817682Y-3974769D01*
X3103396Y-3860484D02*
X3065301Y-3860484D01*
X3065301Y-3860484D02*
X3046253Y-3870008D01*
X3046253Y-3870008D02*
X3036729Y-3879531D01*
X3036729Y-3879531D02*
X3017682Y-3908103D01*
X3017682Y-3908103D02*
X3008158Y-3946198D01*
X3008158Y-3946198D02*
X3008158Y-4022388D01*
X3008158Y-4022388D02*
X3017682Y-4041436D01*
X3017682Y-4041436D02*
X3027206Y-4050960D01*
X3027206Y-4050960D02*
X3046253Y-4060484D01*
X3046253Y-4060484D02*
X3084348Y-4060484D01*
X3084348Y-4060484D02*
X3103396Y-4050960D01*
X3103396Y-4050960D02*
X3112920Y-4041436D01*
X3112920Y-4041436D02*
X3122444Y-4022388D01*
X3122444Y-4022388D02*
X3122444Y-3974769D01*
X3122444Y-3974769D02*
X3112920Y-3955722D01*
X3112920Y-3955722D02*
X3103396Y-3946198D01*
X3103396Y-3946198D02*
X3084348Y-3936674D01*
X3084348Y-3936674D02*
X3046253Y-3936674D01*
X3046253Y-3936674D02*
X3027206Y-3946198D01*
X3027206Y-3946198D02*
X3017682Y-3955722D01*
X3017682Y-3955722D02*
X3008158Y-3974769D01*
X3198634Y-3860484D02*
X3198634Y-3898579D01*
X3274825Y-3860484D02*
X3274825Y-3898579D01*
X3570063Y-4136674D02*
X3560539Y-4127150D01*
X3560539Y-4127150D02*
X3541491Y-4098579D01*
X3541491Y-4098579D02*
X3531968Y-4079531D01*
X3531968Y-4079531D02*
X3522444Y-4050960D01*
X3522444Y-4050960D02*
X3512920Y-4003341D01*
X3512920Y-4003341D02*
X3512920Y-3965246D01*
X3512920Y-3965246D02*
X3522444Y-3917627D01*
X3522444Y-3917627D02*
X3531968Y-3889055D01*
X3531968Y-3889055D02*
X3541491Y-3870008D01*
X3541491Y-3870008D02*
X3560539Y-3841436D01*
X3560539Y-3841436D02*
X3570063Y-3831912D01*
X3731968Y-3927150D02*
X3731968Y-4060484D01*
X3684348Y-3850960D02*
X3636729Y-3993817D01*
X3636729Y-3993817D02*
X3760539Y-3993817D01*
X3989110Y-4060484D02*
X3989110Y-3860484D01*
X4074825Y-4060484D02*
X4074825Y-3955722D01*
X4074825Y-3955722D02*
X4065301Y-3936674D01*
X4065301Y-3936674D02*
X4046253Y-3927150D01*
X4046253Y-3927150D02*
X4017682Y-3927150D01*
X4017682Y-3927150D02*
X3998634Y-3936674D01*
X3998634Y-3936674D02*
X3989110Y-3946198D01*
X4198634Y-4060484D02*
X4179587Y-4050960D01*
X4179587Y-4050960D02*
X4170063Y-4041436D01*
X4170063Y-4041436D02*
X4160539Y-4022388D01*
X4160539Y-4022388D02*
X4160539Y-3965246D01*
X4160539Y-3965246D02*
X4170063Y-3946198D01*
X4170063Y-3946198D02*
X4179587Y-3936674D01*
X4179587Y-3936674D02*
X4198634Y-3927150D01*
X4198634Y-3927150D02*
X4227206Y-3927150D01*
X4227206Y-3927150D02*
X4246253Y-3936674D01*
X4246253Y-3936674D02*
X4255777Y-3946198D01*
X4255777Y-3946198D02*
X4265301Y-3965246D01*
X4265301Y-3965246D02*
X4265301Y-4022388D01*
X4265301Y-4022388D02*
X4255777Y-4041436D01*
X4255777Y-4041436D02*
X4246253Y-4050960D01*
X4246253Y-4050960D02*
X4227206Y-4060484D01*
X4227206Y-4060484D02*
X4198634Y-4060484D01*
X4379587Y-4060484D02*
X4360539Y-4050960D01*
X4360539Y-4050960D02*
X4351015Y-4031912D01*
X4351015Y-4031912D02*
X4351015Y-3860484D01*
X4531968Y-4050960D02*
X4512920Y-4060484D01*
X4512920Y-4060484D02*
X4474825Y-4060484D01*
X4474825Y-4060484D02*
X4455777Y-4050960D01*
X4455777Y-4050960D02*
X4446253Y-4031912D01*
X4446253Y-4031912D02*
X4446253Y-3955722D01*
X4446253Y-3955722D02*
X4455777Y-3936674D01*
X4455777Y-3936674D02*
X4474825Y-3927150D01*
X4474825Y-3927150D02*
X4512920Y-3927150D01*
X4512920Y-3927150D02*
X4531968Y-3936674D01*
X4531968Y-3936674D02*
X4541492Y-3955722D01*
X4541492Y-3955722D02*
X4541492Y-3974769D01*
X4541492Y-3974769D02*
X4446253Y-3993817D01*
X4617682Y-4050960D02*
X4636730Y-4060484D01*
X4636730Y-4060484D02*
X4674825Y-4060484D01*
X4674825Y-4060484D02*
X4693873Y-4050960D01*
X4693873Y-4050960D02*
X4703396Y-4031912D01*
X4703396Y-4031912D02*
X4703396Y-4022388D01*
X4703396Y-4022388D02*
X4693873Y-4003341D01*
X4693873Y-4003341D02*
X4674825Y-3993817D01*
X4674825Y-3993817D02*
X4646253Y-3993817D01*
X4646253Y-3993817D02*
X4627206Y-3984293D01*
X4627206Y-3984293D02*
X4617682Y-3965246D01*
X4617682Y-3965246D02*
X4617682Y-3955722D01*
X4617682Y-3955722D02*
X4627206Y-3936674D01*
X4627206Y-3936674D02*
X4646253Y-3927150D01*
X4646253Y-3927150D02*
X4674825Y-3927150D01*
X4674825Y-3927150D02*
X4693873Y-3936674D01*
X4770063Y-4136674D02*
X4779587Y-4127150D01*
X4779587Y-4127150D02*
X4798634Y-4098579D01*
X4798634Y-4098579D02*
X4808158Y-4079531D01*
X4808158Y-4079531D02*
X4817682Y-4050960D01*
X4817682Y-4050960D02*
X4827206Y-4003341D01*
X4827206Y-4003341D02*
X4827206Y-3965246D01*
X4827206Y-3965246D02*
X4817682Y-3917627D01*
X4817682Y-3917627D02*
X4808158Y-3889055D01*
X4808158Y-3889055D02*
X4798634Y-3870008D01*
X4798634Y-3870008D02*
X4779587Y-3841436D01*
X4779587Y-3841436D02*
X4770063Y-3831912D01*
M02*
