G04 #@! TF.GenerationSoftware,KiCad,Pcbnew,8.0.6*
G04 #@! TF.CreationDate,2024-11-12T21:30:20-08:00*
G04 #@! TF.ProjectId,sensor_board,73656e73-6f72-45f6-926f-6172642e6b69,rev?*
G04 #@! TF.SameCoordinates,Original*
G04 #@! TF.FileFunction,Soldermask,Top*
G04 #@! TF.FilePolarity,Negative*
%FSLAX46Y46*%
G04 Gerber Fmt 4.6, Leading zero omitted, Abs format (unit mm)*
G04 Created by KiCad (PCBNEW 8.0.6) date 2024-11-12 21:30:20*
%MOMM*%
%LPD*%
G01*
G04 APERTURE LIST*
G04 Aperture macros list*
%AMRoundRect*
0 Rectangle with rounded corners*
0 $1 Rounding radius*
0 $2 $3 $4 $5 $6 $7 $8 $9 X,Y pos of 4 corners*
0 Add a 4 corners polygon primitive as box body*
4,1,4,$2,$3,$4,$5,$6,$7,$8,$9,$2,$3,0*
0 Add four circle primitives for the rounded corners*
1,1,$1+$1,$2,$3*
1,1,$1+$1,$4,$5*
1,1,$1+$1,$6,$7*
1,1,$1+$1,$8,$9*
0 Add four rect primitives between the rounded corners*
20,1,$1+$1,$2,$3,$4,$5,0*
20,1,$1+$1,$4,$5,$6,$7,0*
20,1,$1+$1,$6,$7,$8,$9,0*
20,1,$1+$1,$8,$9,$2,$3,0*%
%AMFreePoly0*
4,1,19,0.500000,-0.750000,0.000000,-0.750000,0.000000,-0.744911,-0.071157,-0.744911,-0.207708,-0.704816,-0.327430,-0.627875,-0.420627,-0.520320,-0.479746,-0.390866,-0.500000,-0.250000,-0.500000,0.250000,-0.479746,0.390866,-0.420627,0.520320,-0.327430,0.627875,-0.207708,0.704816,-0.071157,0.744911,0.000000,0.744911,0.000000,0.750000,0.500000,0.750000,0.500000,-0.750000,0.500000,-0.750000,
$1*%
%AMFreePoly1*
4,1,19,0.000000,0.744911,0.071157,0.744911,0.207708,0.704816,0.327430,0.627875,0.420627,0.520320,0.479746,0.390866,0.500000,0.250000,0.500000,-0.250000,0.479746,-0.390866,0.420627,-0.520320,0.327430,-0.627875,0.207708,-0.704816,0.071157,-0.744911,0.000000,-0.744911,0.000000,-0.750000,-0.500000,-0.750000,-0.500000,0.750000,0.000000,0.750000,0.000000,0.744911,0.000000,0.744911,
$1*%
G04 Aperture macros list end*
%ADD10RoundRect,0.150000X0.512500X0.150000X-0.512500X0.150000X-0.512500X-0.150000X0.512500X-0.150000X0*%
%ADD11RoundRect,0.250000X0.750000X-0.250000X0.750000X0.250000X-0.750000X0.250000X-0.750000X-0.250000X0*%
%ADD12RoundRect,0.200000X0.200000X0.275000X-0.200000X0.275000X-0.200000X-0.275000X0.200000X-0.275000X0*%
%ADD13RoundRect,0.140000X-0.170000X0.140000X-0.170000X-0.140000X0.170000X-0.140000X0.170000X0.140000X0*%
%ADD14RoundRect,0.200000X-0.275000X0.200000X-0.275000X-0.200000X0.275000X-0.200000X0.275000X0.200000X0*%
%ADD15RoundRect,0.225000X-0.225000X-0.250000X0.225000X-0.250000X0.225000X0.250000X-0.225000X0.250000X0*%
%ADD16RoundRect,0.250000X-0.475000X0.250000X-0.475000X-0.250000X0.475000X-0.250000X0.475000X0.250000X0*%
%ADD17RoundRect,0.225000X0.225000X0.250000X-0.225000X0.250000X-0.225000X-0.250000X0.225000X-0.250000X0*%
%ADD18RoundRect,0.200000X0.275000X-0.200000X0.275000X0.200000X-0.275000X0.200000X-0.275000X-0.200000X0*%
%ADD19C,0.991000*%
%ADD20C,0.787000*%
%ADD21RoundRect,0.150000X0.587500X0.150000X-0.587500X0.150000X-0.587500X-0.150000X0.587500X-0.150000X0*%
%ADD22FreePoly0,90.000000*%
%ADD23FreePoly1,90.000000*%
%ADD24RoundRect,0.140000X0.170000X-0.140000X0.170000X0.140000X-0.170000X0.140000X-0.170000X-0.140000X0*%
%ADD25RoundRect,0.200000X-0.200000X-0.275000X0.200000X-0.275000X0.200000X0.275000X-0.200000X0.275000X0*%
%ADD26R,1.295400X4.495800*%
%ADD27R,1.803400X3.911600*%
%ADD28FreePoly0,180.000000*%
%ADD29FreePoly1,180.000000*%
%ADD30RoundRect,0.112500X0.187500X0.112500X-0.187500X0.112500X-0.187500X-0.112500X0.187500X-0.112500X0*%
%ADD31R,1.800000X1.000000*%
%ADD32R,1.500000X0.700000*%
%ADD33C,4.400000*%
%ADD34FreePoly0,0.000000*%
%ADD35FreePoly1,0.000000*%
%ADD36RoundRect,0.150000X-0.150000X0.587500X-0.150000X-0.587500X0.150000X-0.587500X0.150000X0.587500X0*%
G04 APERTURE END LIST*
D10*
G04 #@! TO.C,U2*
X31896900Y-12989600D03*
X31896900Y-12039600D03*
X31896900Y-11089600D03*
X29621900Y-11089600D03*
X29621900Y-12039600D03*
X29621900Y-12989600D03*
G04 #@! TD*
D11*
G04 #@! TO.C,J2*
X37329200Y-23240400D03*
X37329200Y-21240400D03*
X37329200Y-19240400D03*
X37329200Y-17240400D03*
G04 #@! TD*
D10*
G04 #@! TO.C,U1*
X37103900Y-12049800D03*
X37103900Y-11099800D03*
X37103900Y-10149800D03*
X34828900Y-10149800D03*
X34828900Y-11099800D03*
X34828900Y-12049800D03*
G04 #@! TD*
D12*
G04 #@! TO.C,R4*
X33464000Y-2082800D03*
X31814000Y-2082800D03*
G04 #@! TD*
D13*
G04 #@! TO.C,C9*
X22750000Y-3310000D03*
X22750000Y-4270000D03*
G04 #@! TD*
D14*
G04 #@! TO.C,R3*
X27863800Y-11341600D03*
X27863800Y-12991600D03*
G04 #@! TD*
D15*
G04 #@! TO.C,C3*
X31889400Y-14579600D03*
X33439400Y-14579600D03*
G04 #@! TD*
D16*
G04 #@! TO.C,C11*
X22174200Y-7736800D03*
X22174200Y-9636800D03*
G04 #@! TD*
D17*
G04 #@! TO.C,C1*
X31153400Y-9525000D03*
X29603400Y-9525000D03*
G04 #@! TD*
D18*
G04 #@! TO.C,R7*
X10185400Y-16635100D03*
X10185400Y-14985100D03*
G04 #@! TD*
D19*
G04 #@! TO.C,U3*
X5865000Y-6610000D03*
X6880000Y-11690000D03*
X4850000Y-11690000D03*
D20*
X5230000Y-7880000D03*
X6500000Y-7880000D03*
X5230000Y-9150000D03*
X6500000Y-9150000D03*
X5230000Y-10420000D03*
X6500000Y-10420000D03*
G04 #@! TD*
D21*
G04 #@! TO.C,Q4*
X8405100Y-16647200D03*
X8405100Y-14747200D03*
X6530100Y-15697200D03*
G04 #@! TD*
D22*
G04 #@! TO.C,JP2*
X33451800Y-5196600D03*
D23*
X33451800Y-3896600D03*
G04 #@! TD*
D24*
G04 #@! TO.C,C10*
X22750000Y-2238000D03*
X22750000Y-1278000D03*
G04 #@! TD*
D17*
G04 #@! TO.C,C2*
X37097000Y-13614400D03*
X35547000Y-13614400D03*
G04 #@! TD*
D25*
G04 #@! TO.C,R1*
X29619500Y-16556100D03*
X31269500Y-16556100D03*
G04 #@! TD*
G04 #@! TO.C,R6*
X2832600Y-13893800D03*
X4482600Y-13893800D03*
G04 #@! TD*
D26*
G04 #@! TO.C,J4*
X16550000Y-21057499D03*
X19050000Y-21057499D03*
X21550000Y-21057499D03*
X24050000Y-21057499D03*
D27*
X27249999Y-27847499D03*
X13350001Y-27847499D03*
G04 #@! TD*
D28*
G04 #@! TO.C,JP1*
X30892600Y-18614800D03*
D29*
X29592600Y-18614800D03*
G04 #@! TD*
D30*
G04 #@! TO.C,D1*
X34719600Y-23292400D03*
X32619600Y-23292400D03*
G04 #@! TD*
D28*
G04 #@! TO.C,JP5*
X25846800Y-15595600D03*
D29*
X24546800Y-15595600D03*
G04 #@! TD*
D25*
G04 #@! TO.C,R12*
X3758300Y-19354800D03*
X5408300Y-19354800D03*
G04 #@! TD*
D31*
G04 #@! TO.C,Y1*
X24814000Y-1524000D03*
X24814000Y-4024000D03*
G04 #@! TD*
D12*
G04 #@! TO.C,R9*
X37121600Y-8534400D03*
X35471600Y-8534400D03*
G04 #@! TD*
D32*
G04 #@! TO.C,U4*
X10250000Y-2220000D03*
X10250000Y-3320000D03*
X10300000Y-4420000D03*
X10250000Y-5520000D03*
X10250000Y-6620000D03*
X10250000Y-7720000D03*
X10250000Y-8820000D03*
X20250000Y-8820000D03*
X20250000Y-7720000D03*
X20250000Y-6620000D03*
X20250000Y-5520000D03*
X20300000Y-4420000D03*
X20250000Y-3320000D03*
X20250000Y-2220000D03*
G04 #@! TD*
D33*
G04 #@! TO.C,H4*
X37800000Y-27800000D03*
G04 #@! TD*
G04 #@! TO.C,H3*
X2800000Y-27800000D03*
G04 #@! TD*
D34*
G04 #@! TO.C,JP4*
X33072400Y-17203700D03*
D35*
X34372400Y-17203700D03*
G04 #@! TD*
D28*
G04 #@! TO.C,JP3*
X25843800Y-12984200D03*
D29*
X24543800Y-12984200D03*
G04 #@! TD*
D33*
G04 #@! TO.C,H2*
X37800000Y-2800000D03*
G04 #@! TD*
D36*
G04 #@! TO.C,Q3*
X4683800Y-15699500D03*
X2783800Y-15699500D03*
X3733800Y-17574500D03*
G04 #@! TD*
D21*
G04 #@! TO.C,Q2*
X34939300Y-21215800D03*
X34939300Y-19315800D03*
X33064300Y-20265800D03*
G04 #@! TD*
D33*
G04 #@! TO.C,H1*
X2800000Y-2800000D03*
G04 #@! TD*
D12*
G04 #@! TO.C,R2*
X37121600Y-6959600D03*
X35471600Y-6959600D03*
G04 #@! TD*
G04 #@! TO.C,R13*
X5408300Y-20878800D03*
X3758300Y-20878800D03*
G04 #@! TD*
M02*
