G04 #@! TF.GenerationSoftware,KiCad,Pcbnew,8.0.6*
G04 #@! TF.CreationDate,2024-11-12T21:30:20-08:00*
G04 #@! TF.ProjectId,sensor_board,73656e73-6f72-45f6-926f-6172642e6b69,rev?*
G04 #@! TF.SameCoordinates,Original*
G04 #@! TF.FileFunction,Legend,Bot*
G04 #@! TF.FilePolarity,Positive*
%FSLAX46Y46*%
G04 Gerber Fmt 4.6, Leading zero omitted, Abs format (unit mm)*
G04 Created by KiCad (PCBNEW 8.0.6) date 2024-11-12 21:30:20*
%MOMM*%
%LPD*%
G01*
G04 APERTURE LIST*
G04 Aperture macros list*
%AMRoundRect*
0 Rectangle with rounded corners*
0 $1 Rounding radius*
0 $2 $3 $4 $5 $6 $7 $8 $9 X,Y pos of 4 corners*
0 Add a 4 corners polygon primitive as box body*
4,1,4,$2,$3,$4,$5,$6,$7,$8,$9,$2,$3,0*
0 Add four circle primitives for the rounded corners*
1,1,$1+$1,$2,$3*
1,1,$1+$1,$4,$5*
1,1,$1+$1,$6,$7*
1,1,$1+$1,$8,$9*
0 Add four rect primitives between the rounded corners*
20,1,$1+$1,$2,$3,$4,$5,0*
20,1,$1+$1,$4,$5,$6,$7,0*
20,1,$1+$1,$6,$7,$8,$9,0*
20,1,$1+$1,$8,$9,$2,$3,0*%
G04 Aperture macros list end*
%ADD10C,0.150000*%
%ADD11C,0.508000*%
%ADD12C,0.127000*%
%ADD13C,0.991000*%
%ADD14C,4.400000*%
%ADD15RoundRect,0.102000X1.980000X1.980000X-1.980000X1.980000X-1.980000X-1.980000X1.980000X-1.980000X0*%
%ADD16RoundRect,0.102000X0.635000X2.540000X-0.635000X2.540000X-0.635000X-2.540000X0.635000X-2.540000X0*%
G04 APERTURE END LIST*
D10*
X8394609Y-27894685D02*
X8442228Y-28037542D01*
X8442228Y-28037542D02*
X8489847Y-28085161D01*
X8489847Y-28085161D02*
X8585085Y-28132780D01*
X8585085Y-28132780D02*
X8727942Y-28132780D01*
X8727942Y-28132780D02*
X8823180Y-28085161D01*
X8823180Y-28085161D02*
X8870800Y-28037542D01*
X8870800Y-28037542D02*
X8918419Y-27942304D01*
X8918419Y-27942304D02*
X8918419Y-27561352D01*
X8918419Y-27561352D02*
X7918419Y-27561352D01*
X7918419Y-27561352D02*
X7918419Y-27894685D01*
X7918419Y-27894685D02*
X7966038Y-27989923D01*
X7966038Y-27989923D02*
X8013657Y-28037542D01*
X8013657Y-28037542D02*
X8108895Y-28085161D01*
X8108895Y-28085161D02*
X8204133Y-28085161D01*
X8204133Y-28085161D02*
X8299371Y-28037542D01*
X8299371Y-28037542D02*
X8346990Y-27989923D01*
X8346990Y-27989923D02*
X8394609Y-27894685D01*
X8394609Y-27894685D02*
X8394609Y-27561352D01*
X7918419Y-28418495D02*
X7918419Y-28989923D01*
X8918419Y-28704209D02*
X7918419Y-28704209D01*
X8013657Y-29275638D02*
X7966038Y-29323257D01*
X7966038Y-29323257D02*
X7918419Y-29418495D01*
X7918419Y-29418495D02*
X7918419Y-29656590D01*
X7918419Y-29656590D02*
X7966038Y-29751828D01*
X7966038Y-29751828D02*
X8013657Y-29799447D01*
X8013657Y-29799447D02*
X8108895Y-29847066D01*
X8108895Y-29847066D02*
X8204133Y-29847066D01*
X8204133Y-29847066D02*
X8346990Y-29799447D01*
X8346990Y-29799447D02*
X8918419Y-29228019D01*
X8918419Y-29228019D02*
X8918419Y-29847066D01*
D11*
G04 #@! TO.C,J4*
X12413300Y-21057499D02*
G75*
G02*
X11651300Y-21057499I-381000J0D01*
G01*
X11651300Y-21057499D02*
G75*
G02*
X12413300Y-21057499I381000J0D01*
G01*
D12*
G04 #@! TO.C,BT2*
X9695000Y-15169030D02*
X12565870Y-12150540D01*
X9695000Y-16992000D02*
X9695000Y-15169030D01*
X9695000Y-22792000D02*
X9695000Y-28620600D01*
X9695000Y-28620600D02*
X30905000Y-28620600D01*
X12565870Y-12150540D02*
X12934000Y-12500600D01*
X12934000Y-12500600D02*
X27666000Y-12500600D01*
X27666000Y-12500600D02*
X28034130Y-12150540D01*
X30905000Y-15169030D02*
X28034130Y-12150540D01*
X30905000Y-16992000D02*
X30905000Y-15169030D01*
X30905000Y-22792000D02*
X30905000Y-28620600D01*
G04 #@! TD*
%LPC*%
D13*
G04 #@! TO.C,U3*
X5865000Y-6610000D03*
X6880000Y-11690000D03*
X4850000Y-11690000D03*
G04 #@! TD*
D14*
G04 #@! TO.C,H4*
X37800000Y-27800000D03*
G04 #@! TD*
G04 #@! TO.C,H3*
X2800000Y-27800000D03*
G04 #@! TD*
G04 #@! TO.C,H2*
X37800000Y-2800000D03*
G04 #@! TD*
G04 #@! TO.C,H1*
X2800000Y-2800000D03*
G04 #@! TD*
D15*
G04 #@! TO.C,BT2*
X20300000Y-19892000D03*
D16*
X31285000Y-19892000D03*
X9315000Y-19892000D03*
G04 #@! TD*
%LPD*%
M02*
