M48
; DRILL file {KiCad 8.0.6} date 2024-11-12T21:31:34-0800
; FORMAT={-:-/ absolute / metric / decimal}
; #@! TF.CreationDate,2024-11-12T21:31:34-08:00
; #@! TF.GenerationSoftware,Kicad,Pcbnew,8.0.6
; #@! TF.FileFunction,Plated,1,2,PTH
FMAT,2
METRIC
; #@! TA.AperFunction,Plated,PTH,ViaDrill
T1C0.300
; #@! TA.AperFunction,Plated,PTH,ComponentDrill
T2C2.200
%
G90
G05
T1
X2.21Y-24.181
X2.311Y-6.274
X2.54Y-20.828
X4.242Y-10.465
X6.198Y-1.778
X6.731Y-28.194
X8.509Y-13.64
X9.315Y-23.317
X12.878Y-7.01
X12.929Y-3.327
X13.233Y-17.932
X13.767Y-10.668
X17.297Y-7.087
X17.348Y-3.327
X19.456Y-10.617
X21.666Y-16.281
X21.869Y-10.795
X22.555Y-10.795
X23.5Y-2.75
X26.01Y-23.673
X27.117Y-22.642
X27.584Y-3.937
X27.635Y-1.473
X27.838Y-19.888
X29.108Y-26.518
X33.147Y-12.04
X33.503Y-13.513
X34.442Y-8.534
X34.468Y-7.01
X34.519Y-13.208
X34.519Y-13.894
X34.519Y-14.58
X34.849Y-26.543
X34.95Y-1.372
X35.814Y-22.479
X35.839Y-23.292
X38.71Y-10.617
X38.71Y-11.379
T2
X2.8Y-2.8
X2.8Y-27.8
X37.8Y-2.8
X37.8Y-27.8
M30
