G04 #@! TF.GenerationSoftware,KiCad,Pcbnew,8.0.6*
G04 #@! TF.CreationDate,2024-11-12T21:30:20-08:00*
G04 #@! TF.ProjectId,sensor_board,73656e73-6f72-45f6-926f-6172642e6b69,rev?*
G04 #@! TF.SameCoordinates,Original*
G04 #@! TF.FileFunction,Copper,L2,Bot*
G04 #@! TF.FilePolarity,Positive*
%FSLAX46Y46*%
G04 Gerber Fmt 4.6, Leading zero omitted, Abs format (unit mm)*
G04 Created by KiCad (PCBNEW 8.0.6) date 2024-11-12 21:30:20*
%MOMM*%
%LPD*%
G01*
G04 APERTURE LIST*
G04 #@! TA.AperFunction,ComponentPad*
%ADD10C,4.400000*%
G04 #@! TD*
G04 #@! TA.AperFunction,SMDPad,CuDef*
%ADD11R,3.960000X3.960000*%
G04 #@! TD*
G04 #@! TA.AperFunction,SMDPad,CuDef*
%ADD12R,1.270000X5.080000*%
G04 #@! TD*
G04 #@! TA.AperFunction,ViaPad*
%ADD13C,0.600000*%
G04 #@! TD*
G04 #@! TA.AperFunction,Conductor*
%ADD14C,0.400000*%
G04 #@! TD*
G04 APERTURE END LIST*
D10*
G04 #@! TO.P,H4,1,1*
G04 #@! TO.N,GND*
X37800000Y-27800000D03*
G04 #@! TD*
G04 #@! TO.P,H3,1,1*
G04 #@! TO.N,GND*
X2800000Y-27800000D03*
G04 #@! TD*
G04 #@! TO.P,H2,1,1*
G04 #@! TO.N,GND*
X37800000Y-2800000D03*
G04 #@! TD*
G04 #@! TO.P,H1,1,1*
G04 #@! TO.N,GND*
X2800000Y-2800000D03*
G04 #@! TD*
D11*
G04 #@! TO.P,BT2,N*
G04 #@! TO.N,GND*
X20300000Y-19892000D03*
D12*
G04 #@! TO.P,BT2,P1*
G04 #@! TO.N,Net-(D1-A2)*
X31285000Y-19892000D03*
G04 #@! TO.P,BT2,P2*
X9315000Y-19892000D03*
G04 #@! TD*
D13*
G04 #@! TO.N,GND*
X34950400Y-1371600D03*
X12877800Y-7010400D03*
X21666200Y-16281400D03*
X4241800Y-10464800D03*
X2209800Y-24180800D03*
X38709600Y-11379200D03*
X2311400Y-6273800D03*
X27635200Y-1473200D03*
X12928600Y-3327400D03*
X29108400Y-26517600D03*
X21869400Y-10795000D03*
X34467800Y-7010400D03*
X35839400Y-23291800D03*
X34848800Y-26543000D03*
X13233400Y-17932400D03*
X38709600Y-10617200D03*
X23500000Y-2750000D03*
X33147000Y-12039600D03*
X34518600Y-13208000D03*
X17348200Y-3327400D03*
X35814000Y-22479000D03*
X6197600Y-1778000D03*
X19456400Y-10617200D03*
X27584400Y-3937000D03*
X34518600Y-13893800D03*
X2540000Y-20828000D03*
X33502600Y-13512800D03*
X13766800Y-10668000D03*
X34442400Y-8534400D03*
X17297400Y-7086600D03*
X8509000Y-13639800D03*
X34518600Y-14579600D03*
X22555200Y-10795000D03*
X6731000Y-28194000D03*
G04 #@! TO.N,Net-(D1-A2)*
X27116920Y-22641680D03*
X26009600Y-23672800D03*
X27838400Y-19888200D03*
X9315000Y-23317200D03*
G04 #@! TD*
D14*
G04 #@! TO.N,Net-(D1-A2)*
X26085800Y-23672800D02*
X27116920Y-22641680D01*
X31285000Y-19892000D02*
X27842200Y-19892000D01*
X9315000Y-23317200D02*
X9315000Y-19892000D01*
X27842200Y-19892000D02*
X27838400Y-19888200D01*
X26009600Y-23672800D02*
X26085800Y-23672800D01*
G04 #@! TD*
G04 #@! TA.AperFunction,Conductor*
G04 #@! TO.N,GND*
G36*
X40042539Y-520185D02*
G01*
X40088294Y-572989D01*
X40099500Y-624500D01*
X40099500Y-29975500D01*
X40079815Y-30042539D01*
X40027011Y-30088294D01*
X39975500Y-30099500D01*
X624500Y-30099500D01*
X557461Y-30079815D01*
X511706Y-30027011D01*
X500500Y-29975500D01*
X500500Y-17304135D01*
X8179500Y-17304135D01*
X8179500Y-22479870D01*
X8179501Y-22479876D01*
X8185908Y-22539483D01*
X8236202Y-22674328D01*
X8236206Y-22674335D01*
X8322452Y-22789544D01*
X8322455Y-22789547D01*
X8437664Y-22875793D01*
X8437673Y-22875798D01*
X8486318Y-22893941D01*
X8542252Y-22935811D01*
X8566670Y-23001275D01*
X8560028Y-23051078D01*
X8529631Y-23137945D01*
X8529630Y-23137950D01*
X8509435Y-23317196D01*
X8509435Y-23317203D01*
X8529630Y-23496449D01*
X8529631Y-23496454D01*
X8589211Y-23666723D01*
X8685184Y-23819462D01*
X8812738Y-23947016D01*
X8903080Y-24003782D01*
X8932586Y-24022322D01*
X8965478Y-24042989D01*
X9135745Y-24102568D01*
X9135750Y-24102569D01*
X9314996Y-24122765D01*
X9315000Y-24122765D01*
X9315004Y-24122765D01*
X9494249Y-24102569D01*
X9494252Y-24102568D01*
X9494255Y-24102568D01*
X9664522Y-24042989D01*
X9817262Y-23947016D01*
X9944816Y-23819462D01*
X10036972Y-23672796D01*
X25204035Y-23672796D01*
X25204035Y-23672803D01*
X25224230Y-23852049D01*
X25224231Y-23852054D01*
X25283811Y-24022323D01*
X25379784Y-24175062D01*
X25507338Y-24302616D01*
X25660078Y-24398589D01*
X25830345Y-24458168D01*
X25830350Y-24458169D01*
X26009596Y-24478365D01*
X26009600Y-24478365D01*
X26009604Y-24478365D01*
X26188849Y-24458169D01*
X26188852Y-24458168D01*
X26188855Y-24458168D01*
X26359122Y-24398589D01*
X26511862Y-24302616D01*
X26639416Y-24175062D01*
X26735389Y-24022322D01*
X26735389Y-24022320D01*
X26739094Y-24016425D01*
X26739847Y-24016898D01*
X26758138Y-23991117D01*
X27316210Y-23433045D01*
X27362933Y-23403687D01*
X27466442Y-23367469D01*
X27619182Y-23271496D01*
X27746736Y-23143942D01*
X27842709Y-22991202D01*
X27902288Y-22820935D01*
X27918806Y-22674331D01*
X27922485Y-22641683D01*
X27922485Y-22641676D01*
X27902289Y-22462430D01*
X27902288Y-22462425D01*
X27842708Y-22292156D01*
X27746735Y-22139417D01*
X27619182Y-22011864D01*
X27466443Y-21915891D01*
X27296174Y-21856311D01*
X27296169Y-21856310D01*
X27116924Y-21836115D01*
X27116916Y-21836115D01*
X26937670Y-21856310D01*
X26937665Y-21856311D01*
X26767396Y-21915891D01*
X26614657Y-22011864D01*
X26487104Y-22139417D01*
X26391132Y-22292155D01*
X26391131Y-22292156D01*
X26354912Y-22395664D01*
X26325552Y-22442389D01*
X25917561Y-22850380D01*
X25856238Y-22883865D01*
X25843771Y-22885918D01*
X25830354Y-22887430D01*
X25830344Y-22887432D01*
X25660078Y-22947010D01*
X25507337Y-23042984D01*
X25379784Y-23170537D01*
X25283811Y-23323276D01*
X25224231Y-23493545D01*
X25224230Y-23493550D01*
X25204035Y-23672796D01*
X10036972Y-23672796D01*
X10040789Y-23666722D01*
X10100368Y-23496455D01*
X10100369Y-23496449D01*
X10120565Y-23317203D01*
X10120565Y-23317196D01*
X10100369Y-23137950D01*
X10100367Y-23137940D01*
X10069972Y-23051079D01*
X10066409Y-22981300D01*
X10101138Y-22920672D01*
X10143678Y-22893942D01*
X10192331Y-22875796D01*
X10307546Y-22789546D01*
X10393796Y-22674331D01*
X10444091Y-22539483D01*
X10450500Y-22479873D01*
X10450499Y-19888196D01*
X27032835Y-19888196D01*
X27032835Y-19888203D01*
X27053030Y-20067449D01*
X27053031Y-20067454D01*
X27112611Y-20237723D01*
X27208584Y-20390462D01*
X27336138Y-20518016D01*
X27488878Y-20613989D01*
X27634628Y-20664989D01*
X27659145Y-20673568D01*
X27659150Y-20673569D01*
X27838396Y-20693765D01*
X27838400Y-20693765D01*
X27838404Y-20693765D01*
X28017649Y-20673569D01*
X28017651Y-20673568D01*
X28017655Y-20673568D01*
X28017658Y-20673566D01*
X28017662Y-20673566D01*
X28187919Y-20613990D01*
X28187918Y-20613990D01*
X28187922Y-20613989D01*
X28191872Y-20611506D01*
X28257845Y-20592500D01*
X30025501Y-20592500D01*
X30092540Y-20612185D01*
X30138295Y-20664989D01*
X30149501Y-20716500D01*
X30149501Y-22479876D01*
X30155908Y-22539483D01*
X30206202Y-22674328D01*
X30206206Y-22674335D01*
X30292452Y-22789544D01*
X30292455Y-22789547D01*
X30407664Y-22875793D01*
X30407671Y-22875797D01*
X30542517Y-22926091D01*
X30542516Y-22926091D01*
X30549444Y-22926835D01*
X30602127Y-22932500D01*
X31967872Y-22932499D01*
X32027483Y-22926091D01*
X32162331Y-22875796D01*
X32277546Y-22789546D01*
X32363796Y-22674331D01*
X32414091Y-22539483D01*
X32420500Y-22479873D01*
X32420499Y-17304128D01*
X32414091Y-17244517D01*
X32363796Y-17109669D01*
X32363795Y-17109668D01*
X32363793Y-17109664D01*
X32277547Y-16994455D01*
X32277544Y-16994452D01*
X32162335Y-16908206D01*
X32162328Y-16908202D01*
X32027482Y-16857908D01*
X32027483Y-16857908D01*
X31967883Y-16851501D01*
X31967881Y-16851500D01*
X31967873Y-16851500D01*
X31967864Y-16851500D01*
X30602129Y-16851500D01*
X30602123Y-16851501D01*
X30542516Y-16857908D01*
X30407671Y-16908202D01*
X30407664Y-16908206D01*
X30292455Y-16994452D01*
X30292452Y-16994455D01*
X30206206Y-17109664D01*
X30206202Y-17109671D01*
X30155908Y-17244517D01*
X30149501Y-17304116D01*
X30149501Y-17304123D01*
X30149500Y-17304135D01*
X30149500Y-19067500D01*
X30129815Y-19134539D01*
X30077011Y-19180294D01*
X30025500Y-19191500D01*
X28269941Y-19191500D01*
X28203968Y-19172493D01*
X28187924Y-19162411D01*
X28187918Y-19162409D01*
X28017662Y-19102833D01*
X28017649Y-19102830D01*
X27838404Y-19082635D01*
X27838396Y-19082635D01*
X27659150Y-19102830D01*
X27659145Y-19102831D01*
X27488876Y-19162411D01*
X27336137Y-19258384D01*
X27208584Y-19385937D01*
X27112611Y-19538676D01*
X27053031Y-19708945D01*
X27053030Y-19708950D01*
X27032835Y-19888196D01*
X10450499Y-19888196D01*
X10450499Y-17304128D01*
X10444091Y-17244517D01*
X10393796Y-17109669D01*
X10393795Y-17109668D01*
X10393793Y-17109664D01*
X10307547Y-16994455D01*
X10307544Y-16994452D01*
X10192335Y-16908206D01*
X10192328Y-16908202D01*
X10057482Y-16857908D01*
X10057483Y-16857908D01*
X9997883Y-16851501D01*
X9997881Y-16851500D01*
X9997873Y-16851500D01*
X9997864Y-16851500D01*
X8632129Y-16851500D01*
X8632123Y-16851501D01*
X8572516Y-16857908D01*
X8437671Y-16908202D01*
X8437664Y-16908206D01*
X8322455Y-16994452D01*
X8322452Y-16994455D01*
X8236206Y-17109664D01*
X8236202Y-17109671D01*
X8185908Y-17244517D01*
X8179501Y-17304116D01*
X8179501Y-17304123D01*
X8179500Y-17304135D01*
X500500Y-17304135D01*
X500500Y-11616520D01*
X4104000Y-11616520D01*
X4104000Y-11763479D01*
X4132666Y-11907592D01*
X4132669Y-11907604D01*
X4188899Y-12043357D01*
X4188906Y-12043370D01*
X4270543Y-12165547D01*
X4270546Y-12165551D01*
X4374448Y-12269453D01*
X4374452Y-12269456D01*
X4496629Y-12351093D01*
X4496642Y-12351100D01*
X4632395Y-12407330D01*
X4632400Y-12407332D01*
X4776520Y-12435999D01*
X4776524Y-12436000D01*
X4776525Y-12436000D01*
X4923476Y-12436000D01*
X4923477Y-12435999D01*
X5067600Y-12407332D01*
X5203364Y-12351097D01*
X5325548Y-12269456D01*
X5429456Y-12165548D01*
X5511097Y-12043364D01*
X5567332Y-11907600D01*
X5596000Y-11763475D01*
X5596000Y-11616525D01*
X5595999Y-11616520D01*
X6134000Y-11616520D01*
X6134000Y-11763479D01*
X6162666Y-11907592D01*
X6162669Y-11907604D01*
X6218899Y-12043357D01*
X6218906Y-12043370D01*
X6300543Y-12165547D01*
X6300546Y-12165551D01*
X6404448Y-12269453D01*
X6404452Y-12269456D01*
X6526629Y-12351093D01*
X6526642Y-12351100D01*
X6662395Y-12407330D01*
X6662400Y-12407332D01*
X6806520Y-12435999D01*
X6806524Y-12436000D01*
X6806525Y-12436000D01*
X6953476Y-12436000D01*
X6953477Y-12435999D01*
X7097600Y-12407332D01*
X7233364Y-12351097D01*
X7355548Y-12269456D01*
X7459456Y-12165548D01*
X7541097Y-12043364D01*
X7597332Y-11907600D01*
X7626000Y-11763475D01*
X7626000Y-11616525D01*
X7597332Y-11472400D01*
X7597330Y-11472395D01*
X7541100Y-11336642D01*
X7541093Y-11336629D01*
X7459456Y-11214452D01*
X7459453Y-11214448D01*
X7355551Y-11110546D01*
X7355547Y-11110543D01*
X7233370Y-11028906D01*
X7233357Y-11028899D01*
X7097604Y-10972669D01*
X7097592Y-10972666D01*
X6953479Y-10944000D01*
X6953475Y-10944000D01*
X6806525Y-10944000D01*
X6806520Y-10944000D01*
X6662407Y-10972666D01*
X6662395Y-10972669D01*
X6526642Y-11028899D01*
X6526629Y-11028906D01*
X6404452Y-11110543D01*
X6404448Y-11110546D01*
X6300546Y-11214448D01*
X6300543Y-11214452D01*
X6218906Y-11336629D01*
X6218899Y-11336642D01*
X6162669Y-11472395D01*
X6162666Y-11472407D01*
X6134000Y-11616520D01*
X5595999Y-11616520D01*
X5567332Y-11472400D01*
X5567330Y-11472395D01*
X5511100Y-11336642D01*
X5511093Y-11336629D01*
X5429456Y-11214452D01*
X5429453Y-11214448D01*
X5325551Y-11110546D01*
X5325547Y-11110543D01*
X5203370Y-11028906D01*
X5203357Y-11028899D01*
X5067604Y-10972669D01*
X5067592Y-10972666D01*
X4923479Y-10944000D01*
X4923475Y-10944000D01*
X4776525Y-10944000D01*
X4776520Y-10944000D01*
X4632407Y-10972666D01*
X4632395Y-10972669D01*
X4496642Y-11028899D01*
X4496629Y-11028906D01*
X4374452Y-11110543D01*
X4374448Y-11110546D01*
X4270546Y-11214448D01*
X4270543Y-11214452D01*
X4188906Y-11336629D01*
X4188899Y-11336642D01*
X4132669Y-11472395D01*
X4132666Y-11472407D01*
X4104000Y-11616520D01*
X500500Y-11616520D01*
X500500Y-6536520D01*
X5119000Y-6536520D01*
X5119000Y-6683479D01*
X5147666Y-6827592D01*
X5147669Y-6827604D01*
X5203899Y-6963357D01*
X5203906Y-6963370D01*
X5285543Y-7085547D01*
X5285546Y-7085551D01*
X5389448Y-7189453D01*
X5389452Y-7189456D01*
X5511629Y-7271093D01*
X5511642Y-7271100D01*
X5647395Y-7327330D01*
X5647400Y-7327332D01*
X5791520Y-7355999D01*
X5791524Y-7356000D01*
X5791525Y-7356000D01*
X5938476Y-7356000D01*
X5938477Y-7355999D01*
X6082600Y-7327332D01*
X6218364Y-7271097D01*
X6340548Y-7189456D01*
X6444456Y-7085548D01*
X6526097Y-6963364D01*
X6582332Y-6827600D01*
X6611000Y-6683475D01*
X6611000Y-6536525D01*
X6582332Y-6392400D01*
X6582330Y-6392395D01*
X6526100Y-6256642D01*
X6526093Y-6256629D01*
X6444456Y-6134452D01*
X6444453Y-6134448D01*
X6340551Y-6030546D01*
X6340547Y-6030543D01*
X6218370Y-5948906D01*
X6218357Y-5948899D01*
X6082604Y-5892669D01*
X6082592Y-5892666D01*
X5938479Y-5864000D01*
X5938475Y-5864000D01*
X5791525Y-5864000D01*
X5791520Y-5864000D01*
X5647407Y-5892666D01*
X5647395Y-5892669D01*
X5511642Y-5948899D01*
X5511629Y-5948906D01*
X5389452Y-6030543D01*
X5389448Y-6030546D01*
X5285546Y-6134448D01*
X5285543Y-6134452D01*
X5203906Y-6256629D01*
X5203899Y-6256642D01*
X5147669Y-6392395D01*
X5147666Y-6392407D01*
X5119000Y-6536520D01*
X500500Y-6536520D01*
X500500Y-624500D01*
X520185Y-557461D01*
X572989Y-511706D01*
X624500Y-500500D01*
X39975500Y-500500D01*
X40042539Y-520185D01*
G37*
G04 #@! TD.AperFunction*
G04 #@! TD*
M02*
