G04 #@! TF.GenerationSoftware,KiCad,Pcbnew,8.0.6*
G04 #@! TF.CreationDate,2024-11-12T21:30:20-08:00*
G04 #@! TF.ProjectId,sensor_board,73656e73-6f72-45f6-926f-6172642e6b69,rev?*
G04 #@! TF.SameCoordinates,Original*
G04 #@! TF.FileFunction,Legend,Top*
G04 #@! TF.FilePolarity,Positive*
%FSLAX46Y46*%
G04 Gerber Fmt 4.6, Leading zero omitted, Abs format (unit mm)*
G04 Created by KiCad (PCBNEW 8.0.6) date 2024-11-12 21:30:20*
%MOMM*%
%LPD*%
G01*
G04 APERTURE LIST*
G04 Aperture macros list*
%AMRoundRect*
0 Rectangle with rounded corners*
0 $1 Rounding radius*
0 $2 $3 $4 $5 $6 $7 $8 $9 X,Y pos of 4 corners*
0 Add a 4 corners polygon primitive as box body*
4,1,4,$2,$3,$4,$5,$6,$7,$8,$9,$2,$3,0*
0 Add four circle primitives for the rounded corners*
1,1,$1+$1,$2,$3*
1,1,$1+$1,$4,$5*
1,1,$1+$1,$6,$7*
1,1,$1+$1,$8,$9*
0 Add four rect primitives between the rounded corners*
20,1,$1+$1,$2,$3,$4,$5,0*
20,1,$1+$1,$4,$5,$6,$7,0*
20,1,$1+$1,$6,$7,$8,$9,0*
20,1,$1+$1,$8,$9,$2,$3,0*%
%AMFreePoly0*
4,1,19,0.500000,-0.750000,0.000000,-0.750000,0.000000,-0.744911,-0.071157,-0.744911,-0.207708,-0.704816,-0.327430,-0.627875,-0.420627,-0.520320,-0.479746,-0.390866,-0.500000,-0.250000,-0.500000,0.250000,-0.479746,0.390866,-0.420627,0.520320,-0.327430,0.627875,-0.207708,0.704816,-0.071157,0.744911,0.000000,0.744911,0.000000,0.750000,0.500000,0.750000,0.500000,-0.750000,0.500000,-0.750000,
$1*%
%AMFreePoly1*
4,1,19,0.000000,0.744911,0.071157,0.744911,0.207708,0.704816,0.327430,0.627875,0.420627,0.520320,0.479746,0.390866,0.500000,0.250000,0.500000,-0.250000,0.479746,-0.390866,0.420627,-0.520320,0.327430,-0.627875,0.207708,-0.704816,0.071157,-0.744911,0.000000,-0.744911,0.000000,-0.750000,-0.500000,-0.750000,-0.500000,0.750000,0.000000,0.750000,0.000000,0.744911,0.000000,0.744911,
$1*%
G04 Aperture macros list end*
%ADD10C,0.150000*%
%ADD11C,0.000000*%
%ADD12RoundRect,0.150000X0.512500X0.150000X-0.512500X0.150000X-0.512500X-0.150000X0.512500X-0.150000X0*%
%ADD13RoundRect,0.250000X0.750000X-0.250000X0.750000X0.250000X-0.750000X0.250000X-0.750000X-0.250000X0*%
%ADD14RoundRect,0.200000X0.200000X0.275000X-0.200000X0.275000X-0.200000X-0.275000X0.200000X-0.275000X0*%
%ADD15RoundRect,0.140000X-0.170000X0.140000X-0.170000X-0.140000X0.170000X-0.140000X0.170000X0.140000X0*%
%ADD16RoundRect,0.200000X-0.275000X0.200000X-0.275000X-0.200000X0.275000X-0.200000X0.275000X0.200000X0*%
%ADD17RoundRect,0.225000X-0.225000X-0.250000X0.225000X-0.250000X0.225000X0.250000X-0.225000X0.250000X0*%
%ADD18RoundRect,0.250000X-0.475000X0.250000X-0.475000X-0.250000X0.475000X-0.250000X0.475000X0.250000X0*%
%ADD19RoundRect,0.225000X0.225000X0.250000X-0.225000X0.250000X-0.225000X-0.250000X0.225000X-0.250000X0*%
%ADD20RoundRect,0.200000X0.275000X-0.200000X0.275000X0.200000X-0.275000X0.200000X-0.275000X-0.200000X0*%
%ADD21C,0.991000*%
%ADD22C,0.787000*%
%ADD23RoundRect,0.150000X0.587500X0.150000X-0.587500X0.150000X-0.587500X-0.150000X0.587500X-0.150000X0*%
%ADD24FreePoly0,90.000000*%
%ADD25FreePoly1,90.000000*%
%ADD26RoundRect,0.140000X0.170000X-0.140000X0.170000X0.140000X-0.170000X0.140000X-0.170000X-0.140000X0*%
%ADD27RoundRect,0.200000X-0.200000X-0.275000X0.200000X-0.275000X0.200000X0.275000X-0.200000X0.275000X0*%
%ADD28R,1.295400X4.495800*%
%ADD29R,1.803400X3.911600*%
%ADD30FreePoly0,180.000000*%
%ADD31FreePoly1,180.000000*%
%ADD32RoundRect,0.112500X0.187500X0.112500X-0.187500X0.112500X-0.187500X-0.112500X0.187500X-0.112500X0*%
%ADD33R,1.800000X1.000000*%
%ADD34R,1.500000X0.700000*%
%ADD35C,4.400000*%
%ADD36FreePoly0,0.000000*%
%ADD37FreePoly1,0.000000*%
%ADD38RoundRect,0.150000X-0.150000X0.587500X-0.150000X-0.587500X0.150000X-0.587500X0.150000X0.587500X0*%
G04 APERTURE END LIST*
D10*
X28810179Y-27002978D02*
X29572084Y-27002978D01*
X30048274Y-27002978D02*
X30810179Y-27002978D01*
X31286369Y-27002978D02*
X32048274Y-27002978D01*
X32524464Y-27002978D02*
X33286369Y-27002978D01*
X29143512Y-28470065D02*
X28810179Y-28470065D01*
X28810179Y-28993875D02*
X28810179Y-27993875D01*
X28810179Y-27993875D02*
X29286369Y-27993875D01*
X29667322Y-28993875D02*
X29667322Y-27993875D01*
X29667322Y-27993875D02*
X30000655Y-28708160D01*
X30000655Y-28708160D02*
X30333988Y-27993875D01*
X30333988Y-27993875D02*
X30333988Y-28993875D01*
X30810179Y-28612922D02*
X31572084Y-28612922D01*
X32238750Y-27993875D02*
X32333988Y-27993875D01*
X32333988Y-27993875D02*
X32429226Y-28041494D01*
X32429226Y-28041494D02*
X32476845Y-28089113D01*
X32476845Y-28089113D02*
X32524464Y-28184351D01*
X32524464Y-28184351D02*
X32572083Y-28374827D01*
X32572083Y-28374827D02*
X32572083Y-28612922D01*
X32572083Y-28612922D02*
X32524464Y-28803398D01*
X32524464Y-28803398D02*
X32476845Y-28898636D01*
X32476845Y-28898636D02*
X32429226Y-28946256D01*
X32429226Y-28946256D02*
X32333988Y-28993875D01*
X32333988Y-28993875D02*
X32238750Y-28993875D01*
X32238750Y-28993875D02*
X32143512Y-28946256D01*
X32143512Y-28946256D02*
X32095893Y-28898636D01*
X32095893Y-28898636D02*
X32048274Y-28803398D01*
X32048274Y-28803398D02*
X32000655Y-28612922D01*
X32000655Y-28612922D02*
X32000655Y-28374827D01*
X32000655Y-28374827D02*
X32048274Y-28184351D01*
X32048274Y-28184351D02*
X32095893Y-28089113D01*
X32095893Y-28089113D02*
X32143512Y-28041494D01*
X32143512Y-28041494D02*
X32238750Y-27993875D01*
X33191131Y-27993875D02*
X33286369Y-27993875D01*
X33286369Y-27993875D02*
X33381607Y-28041494D01*
X33381607Y-28041494D02*
X33429226Y-28089113D01*
X33429226Y-28089113D02*
X33476845Y-28184351D01*
X33476845Y-28184351D02*
X33524464Y-28374827D01*
X33524464Y-28374827D02*
X33524464Y-28612922D01*
X33524464Y-28612922D02*
X33476845Y-28803398D01*
X33476845Y-28803398D02*
X33429226Y-28898636D01*
X33429226Y-28898636D02*
X33381607Y-28946256D01*
X33381607Y-28946256D02*
X33286369Y-28993875D01*
X33286369Y-28993875D02*
X33191131Y-28993875D01*
X33191131Y-28993875D02*
X33095893Y-28946256D01*
X33095893Y-28946256D02*
X33048274Y-28898636D01*
X33048274Y-28898636D02*
X33000655Y-28803398D01*
X33000655Y-28803398D02*
X32953036Y-28612922D01*
X32953036Y-28612922D02*
X32953036Y-28374827D01*
X32953036Y-28374827D02*
X33000655Y-28184351D01*
X33000655Y-28184351D02*
X33048274Y-28089113D01*
X33048274Y-28089113D02*
X33095893Y-28041494D01*
X33095893Y-28041494D02*
X33191131Y-27993875D01*
X34476845Y-28993875D02*
X33905417Y-28993875D01*
X34191131Y-28993875D02*
X34191131Y-27993875D01*
X34191131Y-27993875D02*
X34095893Y-28136732D01*
X34095893Y-28136732D02*
X34000655Y-28231970D01*
X34000655Y-28231970D02*
X33905417Y-28279589D01*
X34857798Y-28708160D02*
X35333988Y-28708160D01*
X34762560Y-28993875D02*
X35095893Y-27993875D01*
X35095893Y-27993875D02*
X35429226Y-28993875D01*
X28810179Y-30222866D02*
X29572084Y-30222866D01*
X30048274Y-30222866D02*
X30810179Y-30222866D01*
X31286369Y-30222866D02*
X32048274Y-30222866D01*
X32524464Y-30222866D02*
X33286369Y-30222866D01*
X27990895Y-13983619D02*
X27990895Y-14793142D01*
X27990895Y-14793142D02*
X28038514Y-14888380D01*
X28038514Y-14888380D02*
X28086133Y-14936000D01*
X28086133Y-14936000D02*
X28181371Y-14983619D01*
X28181371Y-14983619D02*
X28371847Y-14983619D01*
X28371847Y-14983619D02*
X28467085Y-14936000D01*
X28467085Y-14936000D02*
X28514704Y-14888380D01*
X28514704Y-14888380D02*
X28562323Y-14793142D01*
X28562323Y-14793142D02*
X28562323Y-13983619D01*
X28990895Y-14078857D02*
X29038514Y-14031238D01*
X29038514Y-14031238D02*
X29133752Y-13983619D01*
X29133752Y-13983619D02*
X29371847Y-13983619D01*
X29371847Y-13983619D02*
X29467085Y-14031238D01*
X29467085Y-14031238D02*
X29514704Y-14078857D01*
X29514704Y-14078857D02*
X29562323Y-14174095D01*
X29562323Y-14174095D02*
X29562323Y-14269333D01*
X29562323Y-14269333D02*
X29514704Y-14412190D01*
X29514704Y-14412190D02*
X28943276Y-14983619D01*
X28943276Y-14983619D02*
X29562323Y-14983619D01*
X38850219Y-23579133D02*
X39564504Y-23579133D01*
X39564504Y-23579133D02*
X39707361Y-23626752D01*
X39707361Y-23626752D02*
X39802600Y-23721990D01*
X39802600Y-23721990D02*
X39850219Y-23864847D01*
X39850219Y-23864847D02*
X39850219Y-23960085D01*
X38945457Y-23150561D02*
X38897838Y-23102942D01*
X38897838Y-23102942D02*
X38850219Y-23007704D01*
X38850219Y-23007704D02*
X38850219Y-22769609D01*
X38850219Y-22769609D02*
X38897838Y-22674371D01*
X38897838Y-22674371D02*
X38945457Y-22626752D01*
X38945457Y-22626752D02*
X39040695Y-22579133D01*
X39040695Y-22579133D02*
X39135933Y-22579133D01*
X39135933Y-22579133D02*
X39278790Y-22626752D01*
X39278790Y-22626752D02*
X39850219Y-23198180D01*
X39850219Y-23198180D02*
X39850219Y-22579133D01*
X38176295Y-11926219D02*
X38176295Y-12735742D01*
X38176295Y-12735742D02*
X38223914Y-12830980D01*
X38223914Y-12830980D02*
X38271533Y-12878600D01*
X38271533Y-12878600D02*
X38366771Y-12926219D01*
X38366771Y-12926219D02*
X38557247Y-12926219D01*
X38557247Y-12926219D02*
X38652485Y-12878600D01*
X38652485Y-12878600D02*
X38700104Y-12830980D01*
X38700104Y-12830980D02*
X38747723Y-12735742D01*
X38747723Y-12735742D02*
X38747723Y-11926219D01*
X39747723Y-12926219D02*
X39176295Y-12926219D01*
X39462009Y-12926219D02*
X39462009Y-11926219D01*
X39462009Y-11926219D02*
X39366771Y-12069076D01*
X39366771Y-12069076D02*
X39271533Y-12164314D01*
X39271533Y-12164314D02*
X39176295Y-12211933D01*
X31036419Y-2249466D02*
X30560228Y-2582799D01*
X31036419Y-2820894D02*
X30036419Y-2820894D01*
X30036419Y-2820894D02*
X30036419Y-2439942D01*
X30036419Y-2439942D02*
X30084038Y-2344704D01*
X30084038Y-2344704D02*
X30131657Y-2297085D01*
X30131657Y-2297085D02*
X30226895Y-2249466D01*
X30226895Y-2249466D02*
X30369752Y-2249466D01*
X30369752Y-2249466D02*
X30464990Y-2297085D01*
X30464990Y-2297085D02*
X30512609Y-2344704D01*
X30512609Y-2344704D02*
X30560228Y-2439942D01*
X30560228Y-2439942D02*
X30560228Y-2820894D01*
X30369752Y-1392323D02*
X31036419Y-1392323D01*
X29988800Y-1630418D02*
X30703085Y-1868513D01*
X30703085Y-1868513D02*
X30703085Y-1249466D01*
X27595533Y-10462419D02*
X27262200Y-9986228D01*
X27024105Y-10462419D02*
X27024105Y-9462419D01*
X27024105Y-9462419D02*
X27405057Y-9462419D01*
X27405057Y-9462419D02*
X27500295Y-9510038D01*
X27500295Y-9510038D02*
X27547914Y-9557657D01*
X27547914Y-9557657D02*
X27595533Y-9652895D01*
X27595533Y-9652895D02*
X27595533Y-9795752D01*
X27595533Y-9795752D02*
X27547914Y-9890990D01*
X27547914Y-9890990D02*
X27500295Y-9938609D01*
X27500295Y-9938609D02*
X27405057Y-9986228D01*
X27405057Y-9986228D02*
X27024105Y-9986228D01*
X27928867Y-9462419D02*
X28547914Y-9462419D01*
X28547914Y-9462419D02*
X28214581Y-9843371D01*
X28214581Y-9843371D02*
X28357438Y-9843371D01*
X28357438Y-9843371D02*
X28452676Y-9890990D01*
X28452676Y-9890990D02*
X28500295Y-9938609D01*
X28500295Y-9938609D02*
X28547914Y-10033847D01*
X28547914Y-10033847D02*
X28547914Y-10271942D01*
X28547914Y-10271942D02*
X28500295Y-10367180D01*
X28500295Y-10367180D02*
X28452676Y-10414800D01*
X28452676Y-10414800D02*
X28357438Y-10462419D01*
X28357438Y-10462419D02*
X28071724Y-10462419D01*
X28071724Y-10462419D02*
X27976486Y-10414800D01*
X27976486Y-10414800D02*
X27928867Y-10367180D01*
X30864980Y-14949466D02*
X30912600Y-14997085D01*
X30912600Y-14997085D02*
X30960219Y-15139942D01*
X30960219Y-15139942D02*
X30960219Y-15235180D01*
X30960219Y-15235180D02*
X30912600Y-15378037D01*
X30912600Y-15378037D02*
X30817361Y-15473275D01*
X30817361Y-15473275D02*
X30722123Y-15520894D01*
X30722123Y-15520894D02*
X30531647Y-15568513D01*
X30531647Y-15568513D02*
X30388790Y-15568513D01*
X30388790Y-15568513D02*
X30198314Y-15520894D01*
X30198314Y-15520894D02*
X30103076Y-15473275D01*
X30103076Y-15473275D02*
X30007838Y-15378037D01*
X30007838Y-15378037D02*
X29960219Y-15235180D01*
X29960219Y-15235180D02*
X29960219Y-15139942D01*
X29960219Y-15139942D02*
X30007838Y-14997085D01*
X30007838Y-14997085D02*
X30055457Y-14949466D01*
X29960219Y-14616132D02*
X29960219Y-13997085D01*
X29960219Y-13997085D02*
X30341171Y-14330418D01*
X30341171Y-14330418D02*
X30341171Y-14187561D01*
X30341171Y-14187561D02*
X30388790Y-14092323D01*
X30388790Y-14092323D02*
X30436409Y-14044704D01*
X30436409Y-14044704D02*
X30531647Y-13997085D01*
X30531647Y-13997085D02*
X30769742Y-13997085D01*
X30769742Y-13997085D02*
X30864980Y-14044704D01*
X30864980Y-14044704D02*
X30912600Y-14092323D01*
X30912600Y-14092323D02*
X30960219Y-14187561D01*
X30960219Y-14187561D02*
X30960219Y-14473275D01*
X30960219Y-14473275D02*
X30912600Y-14568513D01*
X30912600Y-14568513D02*
X30864980Y-14616132D01*
X24311780Y-9304257D02*
X24359400Y-9351876D01*
X24359400Y-9351876D02*
X24407019Y-9494733D01*
X24407019Y-9494733D02*
X24407019Y-9589971D01*
X24407019Y-9589971D02*
X24359400Y-9732828D01*
X24359400Y-9732828D02*
X24264161Y-9828066D01*
X24264161Y-9828066D02*
X24168923Y-9875685D01*
X24168923Y-9875685D02*
X23978447Y-9923304D01*
X23978447Y-9923304D02*
X23835590Y-9923304D01*
X23835590Y-9923304D02*
X23645114Y-9875685D01*
X23645114Y-9875685D02*
X23549876Y-9828066D01*
X23549876Y-9828066D02*
X23454638Y-9732828D01*
X23454638Y-9732828D02*
X23407019Y-9589971D01*
X23407019Y-9589971D02*
X23407019Y-9494733D01*
X23407019Y-9494733D02*
X23454638Y-9351876D01*
X23454638Y-9351876D02*
X23502257Y-9304257D01*
X24407019Y-8351876D02*
X24407019Y-8923304D01*
X24407019Y-8637590D02*
X23407019Y-8637590D01*
X23407019Y-8637590D02*
X23549876Y-8732828D01*
X23549876Y-8732828D02*
X23645114Y-8828066D01*
X23645114Y-8828066D02*
X23692733Y-8923304D01*
X24407019Y-7399495D02*
X24407019Y-7970923D01*
X24407019Y-7685209D02*
X23407019Y-7685209D01*
X23407019Y-7685209D02*
X23549876Y-7780447D01*
X23549876Y-7780447D02*
X23645114Y-7875685D01*
X23645114Y-7875685D02*
X23692733Y-7970923D01*
X33074780Y-9691666D02*
X33122400Y-9739285D01*
X33122400Y-9739285D02*
X33170019Y-9882142D01*
X33170019Y-9882142D02*
X33170019Y-9977380D01*
X33170019Y-9977380D02*
X33122400Y-10120237D01*
X33122400Y-10120237D02*
X33027161Y-10215475D01*
X33027161Y-10215475D02*
X32931923Y-10263094D01*
X32931923Y-10263094D02*
X32741447Y-10310713D01*
X32741447Y-10310713D02*
X32598590Y-10310713D01*
X32598590Y-10310713D02*
X32408114Y-10263094D01*
X32408114Y-10263094D02*
X32312876Y-10215475D01*
X32312876Y-10215475D02*
X32217638Y-10120237D01*
X32217638Y-10120237D02*
X32170019Y-9977380D01*
X32170019Y-9977380D02*
X32170019Y-9882142D01*
X32170019Y-9882142D02*
X32217638Y-9739285D01*
X32217638Y-9739285D02*
X32265257Y-9691666D01*
X33170019Y-8739285D02*
X33170019Y-9310713D01*
X33170019Y-9024999D02*
X32170019Y-9024999D01*
X32170019Y-9024999D02*
X32312876Y-9120237D01*
X32312876Y-9120237D02*
X32408114Y-9215475D01*
X32408114Y-9215475D02*
X32455733Y-9310713D01*
X10018733Y-18590419D02*
X9685400Y-18114228D01*
X9447305Y-18590419D02*
X9447305Y-17590419D01*
X9447305Y-17590419D02*
X9828257Y-17590419D01*
X9828257Y-17590419D02*
X9923495Y-17638038D01*
X9923495Y-17638038D02*
X9971114Y-17685657D01*
X9971114Y-17685657D02*
X10018733Y-17780895D01*
X10018733Y-17780895D02*
X10018733Y-17923752D01*
X10018733Y-17923752D02*
X9971114Y-18018990D01*
X9971114Y-18018990D02*
X9923495Y-18066609D01*
X9923495Y-18066609D02*
X9828257Y-18114228D01*
X9828257Y-18114228D02*
X9447305Y-18114228D01*
X10352067Y-17590419D02*
X11018733Y-17590419D01*
X11018733Y-17590419D02*
X10590162Y-18590419D01*
X8573419Y-11912504D02*
X9382942Y-11912504D01*
X9382942Y-11912504D02*
X9478180Y-11864885D01*
X9478180Y-11864885D02*
X9525800Y-11817266D01*
X9525800Y-11817266D02*
X9573419Y-11722028D01*
X9573419Y-11722028D02*
X9573419Y-11531552D01*
X9573419Y-11531552D02*
X9525800Y-11436314D01*
X9525800Y-11436314D02*
X9478180Y-11388695D01*
X9478180Y-11388695D02*
X9382942Y-11341076D01*
X9382942Y-11341076D02*
X8573419Y-11341076D01*
X8573419Y-10960123D02*
X8573419Y-10341076D01*
X8573419Y-10341076D02*
X8954371Y-10674409D01*
X8954371Y-10674409D02*
X8954371Y-10531552D01*
X8954371Y-10531552D02*
X9001990Y-10436314D01*
X9001990Y-10436314D02*
X9049609Y-10388695D01*
X9049609Y-10388695D02*
X9144847Y-10341076D01*
X9144847Y-10341076D02*
X9382942Y-10341076D01*
X9382942Y-10341076D02*
X9478180Y-10388695D01*
X9478180Y-10388695D02*
X9525800Y-10436314D01*
X9525800Y-10436314D02*
X9573419Y-10531552D01*
X9573419Y-10531552D02*
X9573419Y-10817266D01*
X9573419Y-10817266D02*
X9525800Y-10912504D01*
X9525800Y-10912504D02*
X9478180Y-10960123D01*
X3541819Y-10562904D02*
X3541819Y-11039094D01*
X3541819Y-11039094D02*
X4018009Y-11086713D01*
X4018009Y-11086713D02*
X3970390Y-11039094D01*
X3970390Y-11039094D02*
X3922771Y-10943856D01*
X3922771Y-10943856D02*
X3922771Y-10705761D01*
X3922771Y-10705761D02*
X3970390Y-10610523D01*
X3970390Y-10610523D02*
X4018009Y-10562904D01*
X4018009Y-10562904D02*
X4113247Y-10515285D01*
X4113247Y-10515285D02*
X4351342Y-10515285D01*
X4351342Y-10515285D02*
X4446580Y-10562904D01*
X4446580Y-10562904D02*
X4494200Y-10610523D01*
X4494200Y-10610523D02*
X4541819Y-10705761D01*
X4541819Y-10705761D02*
X4541819Y-10943856D01*
X4541819Y-10943856D02*
X4494200Y-11039094D01*
X4494200Y-11039094D02*
X4446580Y-11086713D01*
X6970819Y-10610523D02*
X6970819Y-10800999D01*
X6970819Y-10800999D02*
X7018438Y-10896237D01*
X7018438Y-10896237D02*
X7066057Y-10943856D01*
X7066057Y-10943856D02*
X7208914Y-11039094D01*
X7208914Y-11039094D02*
X7399390Y-11086713D01*
X7399390Y-11086713D02*
X7780342Y-11086713D01*
X7780342Y-11086713D02*
X7875580Y-11039094D01*
X7875580Y-11039094D02*
X7923200Y-10991475D01*
X7923200Y-10991475D02*
X7970819Y-10896237D01*
X7970819Y-10896237D02*
X7970819Y-10705761D01*
X7970819Y-10705761D02*
X7923200Y-10610523D01*
X7923200Y-10610523D02*
X7875580Y-10562904D01*
X7875580Y-10562904D02*
X7780342Y-10515285D01*
X7780342Y-10515285D02*
X7542247Y-10515285D01*
X7542247Y-10515285D02*
X7447009Y-10562904D01*
X7447009Y-10562904D02*
X7399390Y-10610523D01*
X7399390Y-10610523D02*
X7351771Y-10705761D01*
X7351771Y-10705761D02*
X7351771Y-10896237D01*
X7351771Y-10896237D02*
X7399390Y-10991475D01*
X7399390Y-10991475D02*
X7447009Y-11039094D01*
X7447009Y-11039094D02*
X7542247Y-11086713D01*
X4541819Y-7213285D02*
X4541819Y-7784713D01*
X4541819Y-7498999D02*
X3541819Y-7498999D01*
X3541819Y-7498999D02*
X3684676Y-7594237D01*
X3684676Y-7594237D02*
X3779914Y-7689475D01*
X3779914Y-7689475D02*
X3827533Y-7784713D01*
X7066057Y-7784713D02*
X7018438Y-7737094D01*
X7018438Y-7737094D02*
X6970819Y-7641856D01*
X6970819Y-7641856D02*
X6970819Y-7403761D01*
X6970819Y-7403761D02*
X7018438Y-7308523D01*
X7018438Y-7308523D02*
X7066057Y-7260904D01*
X7066057Y-7260904D02*
X7161295Y-7213285D01*
X7161295Y-7213285D02*
X7256533Y-7213285D01*
X7256533Y-7213285D02*
X7399390Y-7260904D01*
X7399390Y-7260904D02*
X7970819Y-7832332D01*
X7970819Y-7832332D02*
X7970819Y-7213285D01*
X6127761Y-13783457D02*
X6032523Y-13735838D01*
X6032523Y-13735838D02*
X5937285Y-13640600D01*
X5937285Y-13640600D02*
X5794428Y-13497742D01*
X5794428Y-13497742D02*
X5699190Y-13450123D01*
X5699190Y-13450123D02*
X5603952Y-13450123D01*
X5651571Y-13688219D02*
X5556333Y-13640600D01*
X5556333Y-13640600D02*
X5461095Y-13545361D01*
X5461095Y-13545361D02*
X5413476Y-13354885D01*
X5413476Y-13354885D02*
X5413476Y-13021552D01*
X5413476Y-13021552D02*
X5461095Y-12831076D01*
X5461095Y-12831076D02*
X5556333Y-12735838D01*
X5556333Y-12735838D02*
X5651571Y-12688219D01*
X5651571Y-12688219D02*
X5842047Y-12688219D01*
X5842047Y-12688219D02*
X5937285Y-12735838D01*
X5937285Y-12735838D02*
X6032523Y-12831076D01*
X6032523Y-12831076D02*
X6080142Y-13021552D01*
X6080142Y-13021552D02*
X6080142Y-13354885D01*
X6080142Y-13354885D02*
X6032523Y-13545361D01*
X6032523Y-13545361D02*
X5937285Y-13640600D01*
X5937285Y-13640600D02*
X5842047Y-13688219D01*
X5842047Y-13688219D02*
X5651571Y-13688219D01*
X6937285Y-13021552D02*
X6937285Y-13688219D01*
X6699190Y-12640600D02*
X6461095Y-13354885D01*
X6461095Y-13354885D02*
X7080142Y-13354885D01*
X31077819Y-5405333D02*
X31792104Y-5405333D01*
X31792104Y-5405333D02*
X31934961Y-5452952D01*
X31934961Y-5452952D02*
X32030200Y-5548190D01*
X32030200Y-5548190D02*
X32077819Y-5691047D01*
X32077819Y-5691047D02*
X32077819Y-5786285D01*
X32077819Y-4929142D02*
X31077819Y-4929142D01*
X31077819Y-4929142D02*
X31077819Y-4548190D01*
X31077819Y-4548190D02*
X31125438Y-4452952D01*
X31125438Y-4452952D02*
X31173057Y-4405333D01*
X31173057Y-4405333D02*
X31268295Y-4357714D01*
X31268295Y-4357714D02*
X31411152Y-4357714D01*
X31411152Y-4357714D02*
X31506390Y-4405333D01*
X31506390Y-4405333D02*
X31554009Y-4452952D01*
X31554009Y-4452952D02*
X31601628Y-4548190D01*
X31601628Y-4548190D02*
X31601628Y-4929142D01*
X31173057Y-3976761D02*
X31125438Y-3929142D01*
X31125438Y-3929142D02*
X31077819Y-3833904D01*
X31077819Y-3833904D02*
X31077819Y-3595809D01*
X31077819Y-3595809D02*
X31125438Y-3500571D01*
X31125438Y-3500571D02*
X31173057Y-3452952D01*
X31173057Y-3452952D02*
X31268295Y-3405333D01*
X31268295Y-3405333D02*
X31363533Y-3405333D01*
X31363533Y-3405333D02*
X31506390Y-3452952D01*
X31506390Y-3452952D02*
X32077819Y-4024380D01*
X32077819Y-4024380D02*
X32077819Y-3405333D01*
X38720733Y-14202580D02*
X38673114Y-14250200D01*
X38673114Y-14250200D02*
X38530257Y-14297819D01*
X38530257Y-14297819D02*
X38435019Y-14297819D01*
X38435019Y-14297819D02*
X38292162Y-14250200D01*
X38292162Y-14250200D02*
X38196924Y-14154961D01*
X38196924Y-14154961D02*
X38149305Y-14059723D01*
X38149305Y-14059723D02*
X38101686Y-13869247D01*
X38101686Y-13869247D02*
X38101686Y-13726390D01*
X38101686Y-13726390D02*
X38149305Y-13535914D01*
X38149305Y-13535914D02*
X38196924Y-13440676D01*
X38196924Y-13440676D02*
X38292162Y-13345438D01*
X38292162Y-13345438D02*
X38435019Y-13297819D01*
X38435019Y-13297819D02*
X38530257Y-13297819D01*
X38530257Y-13297819D02*
X38673114Y-13345438D01*
X38673114Y-13345438D02*
X38720733Y-13393057D01*
X39101686Y-13393057D02*
X39149305Y-13345438D01*
X39149305Y-13345438D02*
X39244543Y-13297819D01*
X39244543Y-13297819D02*
X39482638Y-13297819D01*
X39482638Y-13297819D02*
X39577876Y-13345438D01*
X39577876Y-13345438D02*
X39625495Y-13393057D01*
X39625495Y-13393057D02*
X39673114Y-13488295D01*
X39673114Y-13488295D02*
X39673114Y-13583533D01*
X39673114Y-13583533D02*
X39625495Y-13726390D01*
X39625495Y-13726390D02*
X39054067Y-14297819D01*
X39054067Y-14297819D02*
X39673114Y-14297819D01*
X27976533Y-16990219D02*
X27643200Y-16514028D01*
X27405105Y-16990219D02*
X27405105Y-15990219D01*
X27405105Y-15990219D02*
X27786057Y-15990219D01*
X27786057Y-15990219D02*
X27881295Y-16037838D01*
X27881295Y-16037838D02*
X27928914Y-16085457D01*
X27928914Y-16085457D02*
X27976533Y-16180695D01*
X27976533Y-16180695D02*
X27976533Y-16323552D01*
X27976533Y-16323552D02*
X27928914Y-16418790D01*
X27928914Y-16418790D02*
X27881295Y-16466409D01*
X27881295Y-16466409D02*
X27786057Y-16514028D01*
X27786057Y-16514028D02*
X27405105Y-16514028D01*
X28928914Y-16990219D02*
X28357486Y-16990219D01*
X28643200Y-16990219D02*
X28643200Y-15990219D01*
X28643200Y-15990219D02*
X28547962Y-16133076D01*
X28547962Y-16133076D02*
X28452724Y-16228314D01*
X28452724Y-16228314D02*
X28357486Y-16275933D01*
X1953419Y-14060466D02*
X1477228Y-14393799D01*
X1953419Y-14631894D02*
X953419Y-14631894D01*
X953419Y-14631894D02*
X953419Y-14250942D01*
X953419Y-14250942D02*
X1001038Y-14155704D01*
X1001038Y-14155704D02*
X1048657Y-14108085D01*
X1048657Y-14108085D02*
X1143895Y-14060466D01*
X1143895Y-14060466D02*
X1286752Y-14060466D01*
X1286752Y-14060466D02*
X1381990Y-14108085D01*
X1381990Y-14108085D02*
X1429609Y-14155704D01*
X1429609Y-14155704D02*
X1477228Y-14250942D01*
X1477228Y-14250942D02*
X1477228Y-14631894D01*
X953419Y-13203323D02*
X953419Y-13393799D01*
X953419Y-13393799D02*
X1001038Y-13489037D01*
X1001038Y-13489037D02*
X1048657Y-13536656D01*
X1048657Y-13536656D02*
X1191514Y-13631894D01*
X1191514Y-13631894D02*
X1381990Y-13679513D01*
X1381990Y-13679513D02*
X1762942Y-13679513D01*
X1762942Y-13679513D02*
X1858180Y-13631894D01*
X1858180Y-13631894D02*
X1905800Y-13584275D01*
X1905800Y-13584275D02*
X1953419Y-13489037D01*
X1953419Y-13489037D02*
X1953419Y-13298561D01*
X1953419Y-13298561D02*
X1905800Y-13203323D01*
X1905800Y-13203323D02*
X1858180Y-13155704D01*
X1858180Y-13155704D02*
X1762942Y-13108085D01*
X1762942Y-13108085D02*
X1524847Y-13108085D01*
X1524847Y-13108085D02*
X1429609Y-13155704D01*
X1429609Y-13155704D02*
X1381990Y-13203323D01*
X1381990Y-13203323D02*
X1334371Y-13298561D01*
X1334371Y-13298561D02*
X1334371Y-13489037D01*
X1334371Y-13489037D02*
X1381990Y-13584275D01*
X1381990Y-13584275D02*
X1429609Y-13631894D01*
X1429609Y-13631894D02*
X1524847Y-13679513D01*
X10687019Y-25965733D02*
X11401304Y-25965733D01*
X11401304Y-25965733D02*
X11544161Y-26013352D01*
X11544161Y-26013352D02*
X11639400Y-26108590D01*
X11639400Y-26108590D02*
X11687019Y-26251447D01*
X11687019Y-26251447D02*
X11687019Y-26346685D01*
X11020352Y-25060971D02*
X11687019Y-25060971D01*
X10639400Y-25299066D02*
X11353685Y-25537161D01*
X11353685Y-25537161D02*
X11353685Y-24918114D01*
X26420866Y-18047619D02*
X26420866Y-18761904D01*
X26420866Y-18761904D02*
X26373247Y-18904761D01*
X26373247Y-18904761D02*
X26278009Y-19000000D01*
X26278009Y-19000000D02*
X26135152Y-19047619D01*
X26135152Y-19047619D02*
X26039914Y-19047619D01*
X26897057Y-19047619D02*
X26897057Y-18047619D01*
X26897057Y-18047619D02*
X27278009Y-18047619D01*
X27278009Y-18047619D02*
X27373247Y-18095238D01*
X27373247Y-18095238D02*
X27420866Y-18142857D01*
X27420866Y-18142857D02*
X27468485Y-18238095D01*
X27468485Y-18238095D02*
X27468485Y-18380952D01*
X27468485Y-18380952D02*
X27420866Y-18476190D01*
X27420866Y-18476190D02*
X27373247Y-18523809D01*
X27373247Y-18523809D02*
X27278009Y-18571428D01*
X27278009Y-18571428D02*
X26897057Y-18571428D01*
X28420866Y-19047619D02*
X27849438Y-19047619D01*
X28135152Y-19047619D02*
X28135152Y-18047619D01*
X28135152Y-18047619D02*
X28039914Y-18190476D01*
X28039914Y-18190476D02*
X27944676Y-18285714D01*
X27944676Y-18285714D02*
X27849438Y-18333333D01*
X32942305Y-25651619D02*
X32942305Y-24651619D01*
X32942305Y-24651619D02*
X33180400Y-24651619D01*
X33180400Y-24651619D02*
X33323257Y-24699238D01*
X33323257Y-24699238D02*
X33418495Y-24794476D01*
X33418495Y-24794476D02*
X33466114Y-24889714D01*
X33466114Y-24889714D02*
X33513733Y-25080190D01*
X33513733Y-25080190D02*
X33513733Y-25223047D01*
X33513733Y-25223047D02*
X33466114Y-25413523D01*
X33466114Y-25413523D02*
X33418495Y-25508761D01*
X33418495Y-25508761D02*
X33323257Y-25604000D01*
X33323257Y-25604000D02*
X33180400Y-25651619D01*
X33180400Y-25651619D02*
X32942305Y-25651619D01*
X34466114Y-25651619D02*
X33894686Y-25651619D01*
X34180400Y-25651619D02*
X34180400Y-24651619D01*
X34180400Y-24651619D02*
X34085162Y-24794476D01*
X34085162Y-24794476D02*
X33989924Y-24889714D01*
X33989924Y-24889714D02*
X33894686Y-24937333D01*
X23906266Y-16955419D02*
X23906266Y-17669704D01*
X23906266Y-17669704D02*
X23858647Y-17812561D01*
X23858647Y-17812561D02*
X23763409Y-17907800D01*
X23763409Y-17907800D02*
X23620552Y-17955419D01*
X23620552Y-17955419D02*
X23525314Y-17955419D01*
X24382457Y-17955419D02*
X24382457Y-16955419D01*
X24382457Y-16955419D02*
X24763409Y-16955419D01*
X24763409Y-16955419D02*
X24858647Y-17003038D01*
X24858647Y-17003038D02*
X24906266Y-17050657D01*
X24906266Y-17050657D02*
X24953885Y-17145895D01*
X24953885Y-17145895D02*
X24953885Y-17288752D01*
X24953885Y-17288752D02*
X24906266Y-17383990D01*
X24906266Y-17383990D02*
X24858647Y-17431609D01*
X24858647Y-17431609D02*
X24763409Y-17479228D01*
X24763409Y-17479228D02*
X24382457Y-17479228D01*
X25858647Y-16955419D02*
X25382457Y-16955419D01*
X25382457Y-16955419D02*
X25334838Y-17431609D01*
X25334838Y-17431609D02*
X25382457Y-17383990D01*
X25382457Y-17383990D02*
X25477695Y-17336371D01*
X25477695Y-17336371D02*
X25715790Y-17336371D01*
X25715790Y-17336371D02*
X25811028Y-17383990D01*
X25811028Y-17383990D02*
X25858647Y-17431609D01*
X25858647Y-17431609D02*
X25906266Y-17526847D01*
X25906266Y-17526847D02*
X25906266Y-17764942D01*
X25906266Y-17764942D02*
X25858647Y-17860180D01*
X25858647Y-17860180D02*
X25811028Y-17907800D01*
X25811028Y-17907800D02*
X25715790Y-17955419D01*
X25715790Y-17955419D02*
X25477695Y-17955419D01*
X25477695Y-17955419D02*
X25382457Y-17907800D01*
X25382457Y-17907800D02*
X25334838Y-17860180D01*
X6850142Y-19860419D02*
X6516809Y-19384228D01*
X6278714Y-19860419D02*
X6278714Y-18860419D01*
X6278714Y-18860419D02*
X6659666Y-18860419D01*
X6659666Y-18860419D02*
X6754904Y-18908038D01*
X6754904Y-18908038D02*
X6802523Y-18955657D01*
X6802523Y-18955657D02*
X6850142Y-19050895D01*
X6850142Y-19050895D02*
X6850142Y-19193752D01*
X6850142Y-19193752D02*
X6802523Y-19288990D01*
X6802523Y-19288990D02*
X6754904Y-19336609D01*
X6754904Y-19336609D02*
X6659666Y-19384228D01*
X6659666Y-19384228D02*
X6278714Y-19384228D01*
X7802523Y-19860419D02*
X7231095Y-19860419D01*
X7516809Y-19860419D02*
X7516809Y-18860419D01*
X7516809Y-18860419D02*
X7421571Y-19003276D01*
X7421571Y-19003276D02*
X7326333Y-19098514D01*
X7326333Y-19098514D02*
X7231095Y-19146133D01*
X8183476Y-18955657D02*
X8231095Y-18908038D01*
X8231095Y-18908038D02*
X8326333Y-18860419D01*
X8326333Y-18860419D02*
X8564428Y-18860419D01*
X8564428Y-18860419D02*
X8659666Y-18908038D01*
X8659666Y-18908038D02*
X8707285Y-18955657D01*
X8707285Y-18955657D02*
X8754904Y-19050895D01*
X8754904Y-19050895D02*
X8754904Y-19146133D01*
X8754904Y-19146133D02*
X8707285Y-19288990D01*
X8707285Y-19288990D02*
X8135857Y-19860419D01*
X8135857Y-19860419D02*
X8754904Y-19860419D01*
X26723028Y-1746190D02*
X27199219Y-1746190D01*
X26199219Y-2079523D02*
X26723028Y-1746190D01*
X26723028Y-1746190D02*
X26199219Y-1412857D01*
X27199219Y-555714D02*
X27199219Y-1127142D01*
X27199219Y-841428D02*
X26199219Y-841428D01*
X26199219Y-841428D02*
X26342076Y-936666D01*
X26342076Y-936666D02*
X26437314Y-1031904D01*
X26437314Y-1031904D02*
X26484933Y-1127142D01*
X38514533Y-8994019D02*
X38181200Y-8517828D01*
X37943105Y-8994019D02*
X37943105Y-7994019D01*
X37943105Y-7994019D02*
X38324057Y-7994019D01*
X38324057Y-7994019D02*
X38419295Y-8041638D01*
X38419295Y-8041638D02*
X38466914Y-8089257D01*
X38466914Y-8089257D02*
X38514533Y-8184495D01*
X38514533Y-8184495D02*
X38514533Y-8327352D01*
X38514533Y-8327352D02*
X38466914Y-8422590D01*
X38466914Y-8422590D02*
X38419295Y-8470209D01*
X38419295Y-8470209D02*
X38324057Y-8517828D01*
X38324057Y-8517828D02*
X37943105Y-8517828D01*
X38990724Y-8994019D02*
X39181200Y-8994019D01*
X39181200Y-8994019D02*
X39276438Y-8946400D01*
X39276438Y-8946400D02*
X39324057Y-8898780D01*
X39324057Y-8898780D02*
X39419295Y-8755923D01*
X39419295Y-8755923D02*
X39466914Y-8565447D01*
X39466914Y-8565447D02*
X39466914Y-8184495D01*
X39466914Y-8184495D02*
X39419295Y-8089257D01*
X39419295Y-8089257D02*
X39371676Y-8041638D01*
X39371676Y-8041638D02*
X39276438Y-7994019D01*
X39276438Y-7994019D02*
X39085962Y-7994019D01*
X39085962Y-7994019D02*
X38990724Y-8041638D01*
X38990724Y-8041638D02*
X38943105Y-8089257D01*
X38943105Y-8089257D02*
X38895486Y-8184495D01*
X38895486Y-8184495D02*
X38895486Y-8422590D01*
X38895486Y-8422590D02*
X38943105Y-8517828D01*
X38943105Y-8517828D02*
X38990724Y-8565447D01*
X38990724Y-8565447D02*
X39085962Y-8613066D01*
X39085962Y-8613066D02*
X39276438Y-8613066D01*
X39276438Y-8613066D02*
X39371676Y-8565447D01*
X39371676Y-8565447D02*
X39419295Y-8517828D01*
X39419295Y-8517828D02*
X39466914Y-8422590D01*
X10210895Y-10326019D02*
X10210895Y-11135542D01*
X10210895Y-11135542D02*
X10258514Y-11230780D01*
X10258514Y-11230780D02*
X10306133Y-11278400D01*
X10306133Y-11278400D02*
X10401371Y-11326019D01*
X10401371Y-11326019D02*
X10591847Y-11326019D01*
X10591847Y-11326019D02*
X10687085Y-11278400D01*
X10687085Y-11278400D02*
X10734704Y-11230780D01*
X10734704Y-11230780D02*
X10782323Y-11135542D01*
X10782323Y-11135542D02*
X10782323Y-10326019D01*
X11687085Y-10659352D02*
X11687085Y-11326019D01*
X11448990Y-10278400D02*
X11210895Y-10992685D01*
X11210895Y-10992685D02*
X11829942Y-10992685D01*
X12561628Y-5183309D02*
X12704485Y-5230928D01*
X12704485Y-5230928D02*
X12752104Y-5278547D01*
X12752104Y-5278547D02*
X12799723Y-5373785D01*
X12799723Y-5373785D02*
X12799723Y-5516642D01*
X12799723Y-5516642D02*
X12752104Y-5611880D01*
X12752104Y-5611880D02*
X12704485Y-5659500D01*
X12704485Y-5659500D02*
X12609247Y-5707119D01*
X12609247Y-5707119D02*
X12228295Y-5707119D01*
X12228295Y-5707119D02*
X12228295Y-4707119D01*
X12228295Y-4707119D02*
X12561628Y-4707119D01*
X12561628Y-4707119D02*
X12656866Y-4754738D01*
X12656866Y-4754738D02*
X12704485Y-4802357D01*
X12704485Y-4802357D02*
X12752104Y-4897595D01*
X12752104Y-4897595D02*
X12752104Y-4992833D01*
X12752104Y-4992833D02*
X12704485Y-5088071D01*
X12704485Y-5088071D02*
X12656866Y-5135690D01*
X12656866Y-5135690D02*
X12561628Y-5183309D01*
X12561628Y-5183309D02*
X12228295Y-5183309D01*
X13799723Y-5611880D02*
X13752104Y-5659500D01*
X13752104Y-5659500D02*
X13609247Y-5707119D01*
X13609247Y-5707119D02*
X13514009Y-5707119D01*
X13514009Y-5707119D02*
X13371152Y-5659500D01*
X13371152Y-5659500D02*
X13275914Y-5564261D01*
X13275914Y-5564261D02*
X13228295Y-5469023D01*
X13228295Y-5469023D02*
X13180676Y-5278547D01*
X13180676Y-5278547D02*
X13180676Y-5135690D01*
X13180676Y-5135690D02*
X13228295Y-4945214D01*
X13228295Y-4945214D02*
X13275914Y-4849976D01*
X13275914Y-4849976D02*
X13371152Y-4754738D01*
X13371152Y-4754738D02*
X13514009Y-4707119D01*
X13514009Y-4707119D02*
X13609247Y-4707119D01*
X13609247Y-4707119D02*
X13752104Y-4754738D01*
X13752104Y-4754738D02*
X13799723Y-4802357D01*
X14371152Y-5135690D02*
X14275914Y-5088071D01*
X14275914Y-5088071D02*
X14228295Y-5040452D01*
X14228295Y-5040452D02*
X14180676Y-4945214D01*
X14180676Y-4945214D02*
X14180676Y-4897595D01*
X14180676Y-4897595D02*
X14228295Y-4802357D01*
X14228295Y-4802357D02*
X14275914Y-4754738D01*
X14275914Y-4754738D02*
X14371152Y-4707119D01*
X14371152Y-4707119D02*
X14561628Y-4707119D01*
X14561628Y-4707119D02*
X14656866Y-4754738D01*
X14656866Y-4754738D02*
X14704485Y-4802357D01*
X14704485Y-4802357D02*
X14752104Y-4897595D01*
X14752104Y-4897595D02*
X14752104Y-4945214D01*
X14752104Y-4945214D02*
X14704485Y-5040452D01*
X14704485Y-5040452D02*
X14656866Y-5088071D01*
X14656866Y-5088071D02*
X14561628Y-5135690D01*
X14561628Y-5135690D02*
X14371152Y-5135690D01*
X14371152Y-5135690D02*
X14275914Y-5183309D01*
X14275914Y-5183309D02*
X14228295Y-5230928D01*
X14228295Y-5230928D02*
X14180676Y-5326166D01*
X14180676Y-5326166D02*
X14180676Y-5516642D01*
X14180676Y-5516642D02*
X14228295Y-5611880D01*
X14228295Y-5611880D02*
X14275914Y-5659500D01*
X14275914Y-5659500D02*
X14371152Y-5707119D01*
X14371152Y-5707119D02*
X14561628Y-5707119D01*
X14561628Y-5707119D02*
X14656866Y-5659500D01*
X14656866Y-5659500D02*
X14704485Y-5611880D01*
X14704485Y-5611880D02*
X14752104Y-5516642D01*
X14752104Y-5516642D02*
X14752104Y-5326166D01*
X14752104Y-5326166D02*
X14704485Y-5230928D01*
X14704485Y-5230928D02*
X14656866Y-5183309D01*
X14656866Y-5183309D02*
X14561628Y-5135690D01*
X15371152Y-4707119D02*
X15466390Y-4707119D01*
X15466390Y-4707119D02*
X15561628Y-4754738D01*
X15561628Y-4754738D02*
X15609247Y-4802357D01*
X15609247Y-4802357D02*
X15656866Y-4897595D01*
X15656866Y-4897595D02*
X15704485Y-5088071D01*
X15704485Y-5088071D02*
X15704485Y-5326166D01*
X15704485Y-5326166D02*
X15656866Y-5516642D01*
X15656866Y-5516642D02*
X15609247Y-5611880D01*
X15609247Y-5611880D02*
X15561628Y-5659500D01*
X15561628Y-5659500D02*
X15466390Y-5707119D01*
X15466390Y-5707119D02*
X15371152Y-5707119D01*
X15371152Y-5707119D02*
X15275914Y-5659500D01*
X15275914Y-5659500D02*
X15228295Y-5611880D01*
X15228295Y-5611880D02*
X15180676Y-5516642D01*
X15180676Y-5516642D02*
X15133057Y-5326166D01*
X15133057Y-5326166D02*
X15133057Y-5088071D01*
X15133057Y-5088071D02*
X15180676Y-4897595D01*
X15180676Y-4897595D02*
X15228295Y-4802357D01*
X15228295Y-4802357D02*
X15275914Y-4754738D01*
X15275914Y-4754738D02*
X15371152Y-4707119D01*
X16609247Y-4707119D02*
X16133057Y-4707119D01*
X16133057Y-4707119D02*
X16085438Y-5183309D01*
X16085438Y-5183309D02*
X16133057Y-5135690D01*
X16133057Y-5135690D02*
X16228295Y-5088071D01*
X16228295Y-5088071D02*
X16466390Y-5088071D01*
X16466390Y-5088071D02*
X16561628Y-5135690D01*
X16561628Y-5135690D02*
X16609247Y-5183309D01*
X16609247Y-5183309D02*
X16656866Y-5278547D01*
X16656866Y-5278547D02*
X16656866Y-5516642D01*
X16656866Y-5516642D02*
X16609247Y-5611880D01*
X16609247Y-5611880D02*
X16561628Y-5659500D01*
X16561628Y-5659500D02*
X16466390Y-5707119D01*
X16466390Y-5707119D02*
X16228295Y-5707119D01*
X16228295Y-5707119D02*
X16133057Y-5659500D01*
X16133057Y-5659500D02*
X16085438Y-5611880D01*
X17085438Y-5707119D02*
X17085438Y-4707119D01*
X17085438Y-4707119D02*
X17418771Y-5421404D01*
X17418771Y-5421404D02*
X17752104Y-4707119D01*
X17752104Y-4707119D02*
X17752104Y-5707119D01*
X35234666Y-14771019D02*
X35234666Y-15485304D01*
X35234666Y-15485304D02*
X35187047Y-15628161D01*
X35187047Y-15628161D02*
X35091809Y-15723400D01*
X35091809Y-15723400D02*
X34948952Y-15771019D01*
X34948952Y-15771019D02*
X34853714Y-15771019D01*
X35710857Y-15771019D02*
X35710857Y-14771019D01*
X35710857Y-14771019D02*
X36091809Y-14771019D01*
X36091809Y-14771019D02*
X36187047Y-14818638D01*
X36187047Y-14818638D02*
X36234666Y-14866257D01*
X36234666Y-14866257D02*
X36282285Y-14961495D01*
X36282285Y-14961495D02*
X36282285Y-15104352D01*
X36282285Y-15104352D02*
X36234666Y-15199590D01*
X36234666Y-15199590D02*
X36187047Y-15247209D01*
X36187047Y-15247209D02*
X36091809Y-15294828D01*
X36091809Y-15294828D02*
X35710857Y-15294828D01*
X37139428Y-15104352D02*
X37139428Y-15771019D01*
X36901333Y-14723400D02*
X36663238Y-15437685D01*
X36663238Y-15437685D02*
X37282285Y-15437685D01*
X24414266Y-10554619D02*
X24414266Y-11268904D01*
X24414266Y-11268904D02*
X24366647Y-11411761D01*
X24366647Y-11411761D02*
X24271409Y-11507000D01*
X24271409Y-11507000D02*
X24128552Y-11554619D01*
X24128552Y-11554619D02*
X24033314Y-11554619D01*
X24890457Y-11554619D02*
X24890457Y-10554619D01*
X24890457Y-10554619D02*
X25271409Y-10554619D01*
X25271409Y-10554619D02*
X25366647Y-10602238D01*
X25366647Y-10602238D02*
X25414266Y-10649857D01*
X25414266Y-10649857D02*
X25461885Y-10745095D01*
X25461885Y-10745095D02*
X25461885Y-10887952D01*
X25461885Y-10887952D02*
X25414266Y-10983190D01*
X25414266Y-10983190D02*
X25366647Y-11030809D01*
X25366647Y-11030809D02*
X25271409Y-11078428D01*
X25271409Y-11078428D02*
X24890457Y-11078428D01*
X25795219Y-10554619D02*
X26414266Y-10554619D01*
X26414266Y-10554619D02*
X26080933Y-10935571D01*
X26080933Y-10935571D02*
X26223790Y-10935571D01*
X26223790Y-10935571D02*
X26319028Y-10983190D01*
X26319028Y-10983190D02*
X26366647Y-11030809D01*
X26366647Y-11030809D02*
X26414266Y-11126047D01*
X26414266Y-11126047D02*
X26414266Y-11364142D01*
X26414266Y-11364142D02*
X26366647Y-11459380D01*
X26366647Y-11459380D02*
X26319028Y-11507000D01*
X26319028Y-11507000D02*
X26223790Y-11554619D01*
X26223790Y-11554619D02*
X25938076Y-11554619D01*
X25938076Y-11554619D02*
X25842838Y-11507000D01*
X25842838Y-11507000D02*
X25795219Y-11459380D01*
X1936761Y-19854057D02*
X1841523Y-19806438D01*
X1841523Y-19806438D02*
X1746285Y-19711200D01*
X1746285Y-19711200D02*
X1603428Y-19568342D01*
X1603428Y-19568342D02*
X1508190Y-19520723D01*
X1508190Y-19520723D02*
X1412952Y-19520723D01*
X1460571Y-19758819D02*
X1365333Y-19711200D01*
X1365333Y-19711200D02*
X1270095Y-19615961D01*
X1270095Y-19615961D02*
X1222476Y-19425485D01*
X1222476Y-19425485D02*
X1222476Y-19092152D01*
X1222476Y-19092152D02*
X1270095Y-18901676D01*
X1270095Y-18901676D02*
X1365333Y-18806438D01*
X1365333Y-18806438D02*
X1460571Y-18758819D01*
X1460571Y-18758819D02*
X1651047Y-18758819D01*
X1651047Y-18758819D02*
X1746285Y-18806438D01*
X1746285Y-18806438D02*
X1841523Y-18901676D01*
X1841523Y-18901676D02*
X1889142Y-19092152D01*
X1889142Y-19092152D02*
X1889142Y-19425485D01*
X1889142Y-19425485D02*
X1841523Y-19615961D01*
X1841523Y-19615961D02*
X1746285Y-19711200D01*
X1746285Y-19711200D02*
X1651047Y-19758819D01*
X1651047Y-19758819D02*
X1460571Y-19758819D01*
X2222476Y-18758819D02*
X2841523Y-18758819D01*
X2841523Y-18758819D02*
X2508190Y-19139771D01*
X2508190Y-19139771D02*
X2651047Y-19139771D01*
X2651047Y-19139771D02*
X2746285Y-19187390D01*
X2746285Y-19187390D02*
X2793904Y-19235009D01*
X2793904Y-19235009D02*
X2841523Y-19330247D01*
X2841523Y-19330247D02*
X2841523Y-19568342D01*
X2841523Y-19568342D02*
X2793904Y-19663580D01*
X2793904Y-19663580D02*
X2746285Y-19711200D01*
X2746285Y-19711200D02*
X2651047Y-19758819D01*
X2651047Y-19758819D02*
X2365333Y-19758819D01*
X2365333Y-19758819D02*
X2270095Y-19711200D01*
X2270095Y-19711200D02*
X2222476Y-19663580D01*
X31992257Y-21486838D02*
X31944638Y-21582076D01*
X31944638Y-21582076D02*
X31849400Y-21677314D01*
X31849400Y-21677314D02*
X31706542Y-21820171D01*
X31706542Y-21820171D02*
X31658923Y-21915409D01*
X31658923Y-21915409D02*
X31658923Y-22010647D01*
X31897019Y-21963028D02*
X31849400Y-22058266D01*
X31849400Y-22058266D02*
X31754161Y-22153504D01*
X31754161Y-22153504D02*
X31563685Y-22201123D01*
X31563685Y-22201123D02*
X31230352Y-22201123D01*
X31230352Y-22201123D02*
X31039876Y-22153504D01*
X31039876Y-22153504D02*
X30944638Y-22058266D01*
X30944638Y-22058266D02*
X30897019Y-21963028D01*
X30897019Y-21963028D02*
X30897019Y-21772552D01*
X30897019Y-21772552D02*
X30944638Y-21677314D01*
X30944638Y-21677314D02*
X31039876Y-21582076D01*
X31039876Y-21582076D02*
X31230352Y-21534457D01*
X31230352Y-21534457D02*
X31563685Y-21534457D01*
X31563685Y-21534457D02*
X31754161Y-21582076D01*
X31754161Y-21582076D02*
X31849400Y-21677314D01*
X31849400Y-21677314D02*
X31897019Y-21772552D01*
X31897019Y-21772552D02*
X31897019Y-21963028D01*
X30992257Y-21153504D02*
X30944638Y-21105885D01*
X30944638Y-21105885D02*
X30897019Y-21010647D01*
X30897019Y-21010647D02*
X30897019Y-20772552D01*
X30897019Y-20772552D02*
X30944638Y-20677314D01*
X30944638Y-20677314D02*
X30992257Y-20629695D01*
X30992257Y-20629695D02*
X31087495Y-20582076D01*
X31087495Y-20582076D02*
X31182733Y-20582076D01*
X31182733Y-20582076D02*
X31325590Y-20629695D01*
X31325590Y-20629695D02*
X31897019Y-21201123D01*
X31897019Y-21201123D02*
X31897019Y-20582076D01*
X38504933Y-7414419D02*
X38171600Y-6938228D01*
X37933505Y-7414419D02*
X37933505Y-6414419D01*
X37933505Y-6414419D02*
X38314457Y-6414419D01*
X38314457Y-6414419D02*
X38409695Y-6462038D01*
X38409695Y-6462038D02*
X38457314Y-6509657D01*
X38457314Y-6509657D02*
X38504933Y-6604895D01*
X38504933Y-6604895D02*
X38504933Y-6747752D01*
X38504933Y-6747752D02*
X38457314Y-6842990D01*
X38457314Y-6842990D02*
X38409695Y-6890609D01*
X38409695Y-6890609D02*
X38314457Y-6938228D01*
X38314457Y-6938228D02*
X37933505Y-6938228D01*
X38885886Y-6509657D02*
X38933505Y-6462038D01*
X38933505Y-6462038D02*
X39028743Y-6414419D01*
X39028743Y-6414419D02*
X39266838Y-6414419D01*
X39266838Y-6414419D02*
X39362076Y-6462038D01*
X39362076Y-6462038D02*
X39409695Y-6509657D01*
X39409695Y-6509657D02*
X39457314Y-6604895D01*
X39457314Y-6604895D02*
X39457314Y-6700133D01*
X39457314Y-6700133D02*
X39409695Y-6842990D01*
X39409695Y-6842990D02*
X38838267Y-7414419D01*
X38838267Y-7414419D02*
X39457314Y-7414419D01*
X6875542Y-21331119D02*
X6542209Y-20854928D01*
X6304114Y-21331119D02*
X6304114Y-20331119D01*
X6304114Y-20331119D02*
X6685066Y-20331119D01*
X6685066Y-20331119D02*
X6780304Y-20378738D01*
X6780304Y-20378738D02*
X6827923Y-20426357D01*
X6827923Y-20426357D02*
X6875542Y-20521595D01*
X6875542Y-20521595D02*
X6875542Y-20664452D01*
X6875542Y-20664452D02*
X6827923Y-20759690D01*
X6827923Y-20759690D02*
X6780304Y-20807309D01*
X6780304Y-20807309D02*
X6685066Y-20854928D01*
X6685066Y-20854928D02*
X6304114Y-20854928D01*
X7827923Y-21331119D02*
X7256495Y-21331119D01*
X7542209Y-21331119D02*
X7542209Y-20331119D01*
X7542209Y-20331119D02*
X7446971Y-20473976D01*
X7446971Y-20473976D02*
X7351733Y-20569214D01*
X7351733Y-20569214D02*
X7256495Y-20616833D01*
X8161257Y-20331119D02*
X8780304Y-20331119D01*
X8780304Y-20331119D02*
X8446971Y-20712071D01*
X8446971Y-20712071D02*
X8589828Y-20712071D01*
X8589828Y-20712071D02*
X8685066Y-20759690D01*
X8685066Y-20759690D02*
X8732685Y-20807309D01*
X8732685Y-20807309D02*
X8780304Y-20902547D01*
X8780304Y-20902547D02*
X8780304Y-21140642D01*
X8780304Y-21140642D02*
X8732685Y-21235880D01*
X8732685Y-21235880D02*
X8685066Y-21283500D01*
X8685066Y-21283500D02*
X8589828Y-21331119D01*
X8589828Y-21331119D02*
X8304114Y-21331119D01*
X8304114Y-21331119D02*
X8208876Y-21283500D01*
X8208876Y-21283500D02*
X8161257Y-21235880D01*
G04 #@! TO.C,U2*
X30759400Y-10479600D02*
X29959400Y-10479600D01*
X30759400Y-10479600D02*
X31559400Y-10479600D01*
X30759400Y-13599600D02*
X29959400Y-13599600D01*
X30759400Y-13599600D02*
X31559400Y-13599600D01*
X32299400Y-13879600D02*
X31819400Y-13879600D01*
X32059400Y-13549600D01*
X32299400Y-13879600D01*
G36*
X32299400Y-13879600D02*
G01*
X31819400Y-13879600D01*
X32059400Y-13549600D01*
X32299400Y-13879600D01*
G37*
G04 #@! TO.C,U1*
X35966400Y-9539800D02*
X35166400Y-9539800D01*
X35966400Y-9539800D02*
X36766400Y-9539800D01*
X35966400Y-12659800D02*
X35166400Y-12659800D01*
X35966400Y-12659800D02*
X36766400Y-12659800D01*
X37506400Y-12939800D02*
X37026400Y-12939800D01*
X37266400Y-12609800D01*
X37506400Y-12939800D01*
G36*
X37506400Y-12939800D02*
G01*
X37026400Y-12939800D01*
X37266400Y-12609800D01*
X37506400Y-12939800D01*
G37*
G04 #@! TO.C,R4*
X32876258Y-1560300D02*
X32401742Y-1560300D01*
X32876258Y-2605300D02*
X32401742Y-2605300D01*
G04 #@! TO.C,C9*
X22390000Y-3682164D02*
X22390000Y-3897836D01*
X23110000Y-3682164D02*
X23110000Y-3897836D01*
G04 #@! TO.C,R3*
X27341300Y-11929342D02*
X27341300Y-12403858D01*
X28386300Y-11929342D02*
X28386300Y-12403858D01*
G04 #@! TO.C,C3*
X32523820Y-14069600D02*
X32804980Y-14069600D01*
X32523820Y-15089600D02*
X32804980Y-15089600D01*
G04 #@! TO.C,C11*
X21439200Y-8425548D02*
X21439200Y-8948052D01*
X22909200Y-8425548D02*
X22909200Y-8948052D01*
G04 #@! TO.C,C1*
X30518980Y-9015000D02*
X30237820Y-9015000D01*
X30518980Y-10035000D02*
X30237820Y-10035000D01*
G04 #@! TO.C,R7*
X9662900Y-16047358D02*
X9662900Y-15572842D01*
X10707900Y-16047358D02*
X10707900Y-15572842D01*
G04 #@! TO.C,Q4*
X7467600Y-14137200D02*
X6817600Y-14137200D01*
X7467600Y-14137200D02*
X8117600Y-14137200D01*
X7467600Y-17257200D02*
X6817600Y-17257200D01*
X7467600Y-17257200D02*
X8117600Y-17257200D01*
X8870100Y-17537200D02*
X8390100Y-17537200D01*
X8630100Y-17207200D01*
X8870100Y-17537200D01*
G36*
X8870100Y-17537200D02*
G01*
X8390100Y-17537200D01*
X8630100Y-17207200D01*
X8870100Y-17537200D01*
G37*
G04 #@! TO.C,JP2*
X32451800Y-5246600D02*
X32451800Y-3846600D01*
X33151800Y-3146600D02*
X33751800Y-3146600D01*
X33751800Y-5946600D02*
X33151800Y-5946600D01*
X34451800Y-3846600D02*
X34451800Y-5246600D01*
X32451800Y-3846600D02*
G75*
G02*
X33151800Y-3146600I700000J0D01*
G01*
X33151800Y-5946600D02*
G75*
G02*
X32451800Y-5246600I-1J699999D01*
G01*
X33751800Y-3146600D02*
G75*
G02*
X34451800Y-3846600I0J-700000D01*
G01*
X34451800Y-5246600D02*
G75*
G02*
X33751800Y-5946600I-699999J-1D01*
G01*
G04 #@! TO.C,C10*
X22390000Y-1865836D02*
X22390000Y-1650164D01*
X23110000Y-1865836D02*
X23110000Y-1650164D01*
G04 #@! TO.C,C2*
X36462580Y-13104400D02*
X36181420Y-13104400D01*
X36462580Y-14124400D02*
X36181420Y-14124400D01*
G04 #@! TO.C,R1*
X30207242Y-16033600D02*
X30681758Y-16033600D01*
X30207242Y-17078600D02*
X30681758Y-17078600D01*
G04 #@! TO.C,R6*
X3420342Y-13371300D02*
X3894858Y-13371300D01*
X3420342Y-14416300D02*
X3894858Y-14416300D01*
G04 #@! TO.C,J4*
X12667300Y-21479500D02*
X12667300Y-25558959D01*
X14584441Y-29734500D02*
X26015559Y-29734500D01*
X15569560Y-21479500D02*
X12667300Y-21479500D01*
X18069560Y-21479500D02*
X17530440Y-21479500D01*
X20569560Y-21479500D02*
X20030440Y-21479500D01*
X23069560Y-21479500D02*
X22530440Y-21479500D01*
X27932700Y-21479500D02*
X25030440Y-21479500D01*
X27932700Y-25558959D02*
X27932700Y-21479500D01*
X12413300Y-21057499D02*
G75*
G02*
X11651300Y-21057499I-381000J0D01*
G01*
X11651300Y-21057499D02*
G75*
G02*
X12413300Y-21057499I381000J0D01*
G01*
G04 #@! TO.C,JP1*
X28842600Y-18914800D02*
X28842600Y-18314800D01*
X29542600Y-17614800D02*
X30942600Y-17614800D01*
X30942600Y-19614800D02*
X29542600Y-19614800D01*
X31642600Y-18314800D02*
X31642600Y-18914800D01*
X28842600Y-18314800D02*
G75*
G02*
X29542600Y-17614800I700000J0D01*
G01*
X29542600Y-19614800D02*
G75*
G02*
X28842600Y-18914800I0J700000D01*
G01*
X30942600Y-17614800D02*
G75*
G02*
X31642600Y-18314800I1J-699999D01*
G01*
X31642600Y-18914800D02*
G75*
G02*
X30942600Y-19614800I-699999J-1D01*
G01*
G04 #@! TO.C,D1*
X35279600Y-22442400D02*
X32619600Y-22442400D01*
X35279600Y-24142400D02*
X32619600Y-24142400D01*
X35279600Y-24142400D02*
X35279600Y-22442400D01*
G04 #@! TO.C,JP5*
X23796800Y-15895600D02*
X23796800Y-15295600D01*
X24496800Y-14595600D02*
X25896800Y-14595600D01*
X25896800Y-16595600D02*
X24496800Y-16595600D01*
X26596800Y-15295600D02*
X26596800Y-15895600D01*
X23796800Y-15295600D02*
G75*
G02*
X24496800Y-14595600I700000J0D01*
G01*
X24496800Y-16595600D02*
G75*
G02*
X23796800Y-15895600I0J700000D01*
G01*
X25896800Y-14595600D02*
G75*
G02*
X26596800Y-15295600I1J-699999D01*
G01*
X26596800Y-15895600D02*
G75*
G02*
X25896800Y-16595600I-699999J-1D01*
G01*
G04 #@! TO.C,R12*
X4346042Y-18832300D02*
X4820558Y-18832300D01*
X4346042Y-19877300D02*
X4820558Y-19877300D01*
G04 #@! TO.C,Y1*
X23939000Y-3449000D02*
X23939000Y-2099000D01*
X25689000Y-3449000D02*
X25689000Y-2099000D01*
G04 #@! TO.C,R9*
X36533858Y-8011900D02*
X36059342Y-8011900D01*
X36533858Y-9056900D02*
X36059342Y-9056900D01*
G04 #@! TO.C,U4*
X10250000Y4400000D02*
X20250000Y4400000D01*
X10250000Y-9900000D02*
X10250000Y4400000D01*
X20250000Y4400000D02*
X20250000Y-9900000D01*
X20250000Y-9900000D02*
X10250000Y-9900000D01*
G04 #@! TO.C,JP4*
X32322400Y-17503700D02*
X32322400Y-16903700D01*
X33022400Y-16203700D02*
X34422400Y-16203700D01*
X34422400Y-18203700D02*
X33022400Y-18203700D01*
X35122400Y-16903700D02*
X35122400Y-17503700D01*
X32322400Y-16903700D02*
G75*
G02*
X33022400Y-16203700I699999J1D01*
G01*
X33022400Y-18203700D02*
G75*
G02*
X32322400Y-17503700I-1J699999D01*
G01*
X34422400Y-16203700D02*
G75*
G02*
X35122400Y-16903700I0J-700000D01*
G01*
X35122400Y-17503700D02*
G75*
G02*
X34422400Y-18203700I-700000J0D01*
G01*
G04 #@! TO.C,JP3*
X23793800Y-13284200D02*
X23793800Y-12684200D01*
X24493800Y-11984200D02*
X25893800Y-11984200D01*
X25893800Y-13984200D02*
X24493800Y-13984200D01*
X26593800Y-12684200D02*
X26593800Y-13284200D01*
X23793800Y-12684200D02*
G75*
G02*
X24493800Y-11984200I700000J0D01*
G01*
X24493800Y-13984200D02*
G75*
G02*
X23793800Y-13284200I0J700000D01*
G01*
X25893800Y-11984200D02*
G75*
G02*
X26593800Y-12684200I1J-699999D01*
G01*
X26593800Y-13284200D02*
G75*
G02*
X25893800Y-13984200I-699999J-1D01*
G01*
D11*
G04 #@! TO.C,G\u002A\u002A\u002A*
G36*
X16401846Y-11689786D02*
G01*
X16472737Y-11719374D01*
X16535412Y-11765334D01*
X16586238Y-11824595D01*
X16621583Y-11894091D01*
X16633829Y-11939330D01*
X16640131Y-11984489D01*
X16640302Y-12025739D01*
X16633051Y-12066770D01*
X16617085Y-12111275D01*
X16591115Y-12162944D01*
X16553847Y-12225470D01*
X16509873Y-12293632D01*
X16359058Y-12542245D01*
X16229361Y-12797963D01*
X16120963Y-13060188D01*
X16034047Y-13328320D01*
X15968795Y-13601762D01*
X15925388Y-13879913D01*
X15904009Y-14162176D01*
X15901621Y-14294762D01*
X15906347Y-14512619D01*
X15921012Y-14715759D01*
X15946472Y-14910077D01*
X15983580Y-15101470D01*
X16033190Y-15295835D01*
X16059588Y-15385079D01*
X16149589Y-15644721D01*
X16256755Y-15892721D01*
X16382173Y-16131002D01*
X16526932Y-16361485D01*
X16692122Y-16586092D01*
X16841227Y-16764555D01*
X16895868Y-16828402D01*
X16936164Y-16880587D01*
X16964128Y-16924937D01*
X16981771Y-16965283D01*
X16991104Y-17005451D01*
X16994140Y-17049271D01*
X16994177Y-17055645D01*
X16987012Y-17129289D01*
X16963646Y-17194342D01*
X16927628Y-17250786D01*
X16874667Y-17303725D01*
X16808634Y-17343319D01*
X16735214Y-17367501D01*
X16660088Y-17374201D01*
X16608215Y-17367061D01*
X16545123Y-17345054D01*
X16487829Y-17310225D01*
X16430221Y-17258705D01*
X16419590Y-17247619D01*
X16228342Y-17028777D01*
X16050479Y-16793540D01*
X15887684Y-16544768D01*
X15741644Y-16285317D01*
X15614042Y-16018046D01*
X15506565Y-15745812D01*
X15469755Y-15636696D01*
X15384516Y-15334819D01*
X15321622Y-15030371D01*
X15281088Y-14723746D01*
X15262930Y-14415345D01*
X15267161Y-14105563D01*
X15293796Y-13794800D01*
X15342850Y-13483451D01*
X15383562Y-13294363D01*
X15443419Y-13072647D01*
X15517908Y-12852195D01*
X15608569Y-12628895D01*
X15716947Y-12398638D01*
X15727934Y-12376816D01*
X15771547Y-12293544D01*
X15819403Y-12207176D01*
X15869719Y-12120516D01*
X15920712Y-12036368D01*
X15970598Y-11957535D01*
X16017594Y-11886822D01*
X16059917Y-11827031D01*
X16095783Y-11780968D01*
X16123408Y-11751435D01*
X16128334Y-11747333D01*
X16178051Y-11718010D01*
X16239162Y-11694789D01*
X16300657Y-11681434D01*
X16326371Y-11679637D01*
X16401846Y-11689786D01*
G37*
G36*
X17426814Y-12434081D02*
G01*
X17503184Y-12460788D01*
X17570473Y-12506318D01*
X17622998Y-12565264D01*
X17659244Y-12633905D01*
X17677699Y-12708520D01*
X17676847Y-12785385D01*
X17660571Y-12847774D01*
X17646272Y-12878039D01*
X17622486Y-12921200D01*
X17592480Y-12971582D01*
X17559519Y-13023512D01*
X17558344Y-13025300D01*
X17446692Y-13215142D01*
X17353341Y-13416415D01*
X17278911Y-13626591D01*
X17224024Y-13843140D01*
X17189299Y-14063534D01*
X17175359Y-14285242D01*
X17182822Y-14505736D01*
X17186162Y-14541912D01*
X17220493Y-14772140D01*
X17276251Y-14995646D01*
X17353199Y-15211885D01*
X17451101Y-15420314D01*
X17569719Y-15620390D01*
X17708818Y-15811570D01*
X17772279Y-15887911D01*
X17826949Y-15953592D01*
X17866841Y-16008112D01*
X17893798Y-16055512D01*
X17909664Y-16099836D01*
X17916284Y-16145125D01*
X17915502Y-16195421D01*
X17915082Y-16200946D01*
X17898480Y-16282371D01*
X17863740Y-16354474D01*
X17812999Y-16413910D01*
X17752722Y-16455189D01*
X17694015Y-16475577D01*
X17624243Y-16485695D01*
X17552635Y-16485050D01*
X17488421Y-16473149D01*
X17478534Y-16469837D01*
X17435306Y-16446127D01*
X17383705Y-16404464D01*
X17325423Y-16347046D01*
X17262155Y-16276073D01*
X17195594Y-16193745D01*
X17127436Y-16102260D01*
X17059372Y-16003818D01*
X16993098Y-15900618D01*
X16930307Y-15794859D01*
X16872693Y-15688741D01*
X16864286Y-15672307D01*
X16760361Y-15446696D01*
X16677562Y-15220322D01*
X16614729Y-14989231D01*
X16570705Y-14749471D01*
X16554353Y-14615086D01*
X16549329Y-14545256D01*
X16546393Y-14459500D01*
X16545432Y-14362882D01*
X16546335Y-14260466D01*
X16548988Y-14157315D01*
X16553278Y-14058493D01*
X16559094Y-13969063D01*
X16566321Y-13894089D01*
X16571180Y-13858826D01*
X16590870Y-13752375D01*
X16616787Y-13636062D01*
X16646960Y-13517529D01*
X16679417Y-13404418D01*
X16712185Y-13304369D01*
X16719425Y-13284369D01*
X16756621Y-13190657D01*
X16800741Y-13090847D01*
X16849869Y-12988451D01*
X16902088Y-12886981D01*
X16955484Y-12789950D01*
X17008140Y-12700869D01*
X17058140Y-12623251D01*
X17103568Y-12560607D01*
X17133198Y-12525869D01*
X17196374Y-12474582D01*
X17269168Y-12441696D01*
X17347381Y-12427950D01*
X17426814Y-12434081D01*
G37*
G36*
X15360082Y-10949441D02*
G01*
X15389232Y-10955717D01*
X15419125Y-10967624D01*
X15433967Y-10974703D01*
X15490199Y-11012625D01*
X15540773Y-11065934D01*
X15579288Y-11127501D01*
X15586992Y-11145129D01*
X15596224Y-11184392D01*
X15600320Y-11236038D01*
X15599319Y-11290768D01*
X15593257Y-11339283D01*
X15586098Y-11364384D01*
X15573977Y-11387779D01*
X15551797Y-11425042D01*
X15522408Y-11471580D01*
X15488660Y-11522800D01*
X15478059Y-11538471D01*
X15299444Y-11820583D01*
X15141210Y-12112161D01*
X15003522Y-12412725D01*
X14886549Y-12721791D01*
X14790458Y-13038878D01*
X14715417Y-13363503D01*
X14661595Y-13695185D01*
X14633887Y-13965788D01*
X14624474Y-14108736D01*
X14619493Y-14237799D01*
X14618880Y-14361165D01*
X14622575Y-14487025D01*
X14629067Y-14602240D01*
X14662522Y-14942179D01*
X14717179Y-15274760D01*
X14792870Y-15599585D01*
X14889428Y-15916260D01*
X15006686Y-16224386D01*
X15144479Y-16523569D01*
X15302639Y-16813412D01*
X15480999Y-17093518D01*
X15679393Y-17363491D01*
X15897653Y-17622936D01*
X15902517Y-17628345D01*
X15961890Y-17696403D01*
X16006223Y-17753010D01*
X16037320Y-17801674D01*
X16056984Y-17845904D01*
X16067019Y-17889208D01*
X16069229Y-17935093D01*
X16068555Y-17951288D01*
X16053447Y-18035185D01*
X16020348Y-18108231D01*
X15971913Y-18168594D01*
X15910793Y-18214441D01*
X15839645Y-18243939D01*
X15761120Y-18255254D01*
X15677873Y-18246555D01*
X15651362Y-18239458D01*
X15616995Y-18224700D01*
X15578422Y-18199587D01*
X15533946Y-18162561D01*
X15481872Y-18112065D01*
X15420504Y-18046541D01*
X15348145Y-17964432D01*
X15334369Y-17948409D01*
X15212222Y-17802323D01*
X15103302Y-17663864D01*
X15003088Y-17526785D01*
X14907062Y-17384837D01*
X14810701Y-17231772D01*
X14783781Y-17187296D01*
X14615407Y-16887811D01*
X14468097Y-16584423D01*
X14340928Y-16274736D01*
X14232974Y-15956356D01*
X14143308Y-15626889D01*
X14093694Y-15402183D01*
X14060466Y-15225931D01*
X14034598Y-15061212D01*
X14015290Y-14900688D01*
X14001743Y-14737022D01*
X13993158Y-14562876D01*
X13990055Y-14450178D01*
X13991831Y-14108878D01*
X14011896Y-13778536D01*
X14050762Y-13456274D01*
X14108939Y-13139212D01*
X14186940Y-12824473D01*
X14285276Y-12509177D01*
X14381392Y-12248334D01*
X14445973Y-12094653D01*
X14522735Y-11929805D01*
X14608711Y-11759299D01*
X14700934Y-11588644D01*
X14796439Y-11423348D01*
X14892258Y-11268920D01*
X14975744Y-11144591D01*
X15024613Y-11077764D01*
X15066772Y-11028177D01*
X15106174Y-10993226D01*
X15146774Y-10970307D01*
X15192525Y-10956817D01*
X15247383Y-10950151D01*
X15273091Y-10948799D01*
X15323945Y-10947550D01*
X15360082Y-10949441D01*
G37*
G36*
X19836105Y-11572784D02*
G01*
X19907202Y-11606227D01*
X19968544Y-11656777D01*
X20016985Y-11722625D01*
X20040168Y-11773051D01*
X20078951Y-11878556D01*
X20111522Y-11966192D01*
X20139203Y-12039321D01*
X20163321Y-12101302D01*
X20185199Y-12155498D01*
X20206162Y-12205268D01*
X20227533Y-12253973D01*
X20244446Y-12291428D01*
X20306697Y-12420933D01*
X20370781Y-12538837D01*
X20439664Y-12649381D01*
X20516310Y-12756805D01*
X20603687Y-12865350D01*
X20704758Y-12979258D01*
X20784342Y-13063520D01*
X20878131Y-13162909D01*
X20956459Y-13251051D01*
X21021349Y-13330913D01*
X21074821Y-13405459D01*
X21118895Y-13477653D01*
X21155594Y-13550460D01*
X21186937Y-13626845D01*
X21206273Y-13682496D01*
X21228533Y-13755202D01*
X21245979Y-13824039D01*
X21259131Y-13893275D01*
X21268508Y-13967176D01*
X21274631Y-14050010D01*
X21278018Y-14146043D01*
X21279189Y-14259543D01*
X21279205Y-14281220D01*
X21278955Y-14371493D01*
X21278114Y-14443118D01*
X21276436Y-14499975D01*
X21273677Y-14545943D01*
X21269588Y-14584898D01*
X21263924Y-14620720D01*
X21256440Y-14657288D01*
X21254893Y-14664192D01*
X21199952Y-14859244D01*
X21126469Y-15043093D01*
X21035488Y-15214758D01*
X20928050Y-15373259D01*
X20805200Y-15517617D01*
X20667981Y-15646850D01*
X20517435Y-15759980D01*
X20354607Y-15856025D01*
X20180539Y-15934006D01*
X19996274Y-15992942D01*
X19802855Y-16031855D01*
X19798540Y-16032473D01*
X19743640Y-16038401D01*
X19675256Y-16042985D01*
X19599405Y-16046105D01*
X19522101Y-16047638D01*
X19449361Y-16047465D01*
X19387201Y-16045463D01*
X19342692Y-16041657D01*
X19295229Y-16033526D01*
X19233503Y-16020634D01*
X19164414Y-16004659D01*
X19094861Y-15987280D01*
X19031745Y-15970174D01*
X18981965Y-15955019D01*
X18971433Y-15951381D01*
X18794999Y-15876254D01*
X18629404Y-15782258D01*
X18475864Y-15670897D01*
X18335597Y-15543671D01*
X18209818Y-15402082D01*
X18099747Y-15247632D01*
X18006599Y-15081822D01*
X17931591Y-14906155D01*
X17875941Y-14722132D01*
X17844927Y-14561371D01*
X17831202Y-14420187D01*
X17828387Y-14292469D01*
X18463187Y-14292469D01*
X18473313Y-14446784D01*
X18500116Y-14589832D01*
X18544005Y-14723980D01*
X18590754Y-14824703D01*
X18673732Y-14959301D01*
X18771535Y-15077947D01*
X18882463Y-15179877D01*
X19004816Y-15264327D01*
X19136896Y-15330531D01*
X19277002Y-15377726D01*
X19423435Y-15405145D01*
X19574495Y-15412025D01*
X19728484Y-15397601D01*
X19821406Y-15378445D01*
X19965610Y-15331178D01*
X20100909Y-15264322D01*
X20225519Y-15179659D01*
X20337655Y-15078972D01*
X20435534Y-14964045D01*
X20517372Y-14836661D01*
X20581385Y-14698602D01*
X20618558Y-14581686D01*
X20630215Y-14533386D01*
X20638363Y-14490743D01*
X20643608Y-14447687D01*
X20646557Y-14398145D01*
X20647818Y-14336048D01*
X20648018Y-14286852D01*
X20644780Y-14152447D01*
X20634532Y-14036887D01*
X20616718Y-13937437D01*
X20590784Y-13851360D01*
X20556178Y-13775921D01*
X20538600Y-13746240D01*
X20520099Y-13721398D01*
X20488637Y-13683855D01*
X20447132Y-13636891D01*
X20398504Y-13583787D01*
X20345669Y-13527821D01*
X20327481Y-13508947D01*
X20226915Y-13403091D01*
X20140578Y-13307421D01*
X20065183Y-13217957D01*
X19997442Y-13130717D01*
X19934067Y-13041723D01*
X19902115Y-12993993D01*
X19866084Y-12935849D01*
X19823727Y-12862222D01*
X19777742Y-12778273D01*
X19730827Y-12689159D01*
X19685679Y-12600041D01*
X19644998Y-12516076D01*
X19611480Y-12442425D01*
X19601869Y-12419868D01*
X19585484Y-12382971D01*
X19571527Y-12355947D01*
X19562724Y-12344009D01*
X19562105Y-12343837D01*
X19547753Y-12350467D01*
X19519234Y-12368680D01*
X19479954Y-12395963D01*
X19433318Y-12429803D01*
X19382730Y-12467685D01*
X19331596Y-12507095D01*
X19283321Y-12545521D01*
X19241310Y-12580447D01*
X19239546Y-12581961D01*
X19074471Y-12737258D01*
X18929512Y-12902203D01*
X18804447Y-13077241D01*
X18699054Y-13262818D01*
X18613109Y-13459380D01*
X18546389Y-13667372D01*
X18498674Y-13887241D01*
X18469739Y-14119432D01*
X18469325Y-14124518D01*
X18463187Y-14292469D01*
X17828387Y-14292469D01*
X17827759Y-14263969D01*
X17834198Y-14097513D01*
X17850113Y-13925616D01*
X17875102Y-13753077D01*
X17908762Y-13584692D01*
X17936128Y-13475989D01*
X18011356Y-13244639D01*
X18107337Y-13021157D01*
X18223366Y-12806558D01*
X18358738Y-12601857D01*
X18512745Y-12408068D01*
X18684682Y-12226207D01*
X18873843Y-12057287D01*
X18982248Y-11972300D01*
X19070817Y-11908034D01*
X19163328Y-11844618D01*
X19256968Y-11783699D01*
X19348928Y-11726929D01*
X19436396Y-11675957D01*
X19516560Y-11632432D01*
X19586611Y-11598005D01*
X19643736Y-11574325D01*
X19677214Y-11564439D01*
X19758394Y-11558252D01*
X19836105Y-11572784D01*
G37*
D10*
G04 #@! TO.C,Q3*
X2173800Y-16637000D02*
X2173800Y-15987000D01*
X2173800Y-16637000D02*
X2173800Y-17287000D01*
X5293800Y-16637000D02*
X5293800Y-15987000D01*
X5293800Y-16637000D02*
X5293800Y-17287000D01*
X5573800Y-15714500D02*
X5243800Y-15474500D01*
X5573800Y-15234500D01*
X5573800Y-15714500D01*
G36*
X5573800Y-15714500D02*
G01*
X5243800Y-15474500D01*
X5573800Y-15234500D01*
X5573800Y-15714500D01*
G37*
G04 #@! TO.C,Q2*
X34001800Y-18705800D02*
X33351800Y-18705800D01*
X34001800Y-18705800D02*
X34651800Y-18705800D01*
X34001800Y-21825800D02*
X33351800Y-21825800D01*
X34001800Y-21825800D02*
X34651800Y-21825800D01*
X35404300Y-22105800D02*
X34924300Y-22105800D01*
X35164300Y-21775800D01*
X35404300Y-22105800D01*
G36*
X35404300Y-22105800D02*
G01*
X34924300Y-22105800D01*
X35164300Y-21775800D01*
X35404300Y-22105800D01*
G37*
G04 #@! TO.C,R2*
X36533858Y-6437100D02*
X36059342Y-6437100D01*
X36533858Y-7482100D02*
X36059342Y-7482100D01*
G04 #@! TO.C,R13*
X4820558Y-20356300D02*
X4346042Y-20356300D01*
X4820558Y-21401300D02*
X4346042Y-21401300D01*
G04 #@! TD*
%LPC*%
D12*
G04 #@! TO.C,U2*
X31896900Y-12989600D03*
X31896900Y-12039600D03*
X31896900Y-11089600D03*
X29621900Y-11089600D03*
X29621900Y-12039600D03*
X29621900Y-12989600D03*
G04 #@! TD*
D13*
G04 #@! TO.C,J2*
X37329200Y-23240400D03*
X37329200Y-21240400D03*
X37329200Y-19240400D03*
X37329200Y-17240400D03*
G04 #@! TD*
D12*
G04 #@! TO.C,U1*
X37103900Y-12049800D03*
X37103900Y-11099800D03*
X37103900Y-10149800D03*
X34828900Y-10149800D03*
X34828900Y-11099800D03*
X34828900Y-12049800D03*
G04 #@! TD*
D14*
G04 #@! TO.C,R4*
X33464000Y-2082800D03*
X31814000Y-2082800D03*
G04 #@! TD*
D15*
G04 #@! TO.C,C9*
X22750000Y-3310000D03*
X22750000Y-4270000D03*
G04 #@! TD*
D16*
G04 #@! TO.C,R3*
X27863800Y-11341600D03*
X27863800Y-12991600D03*
G04 #@! TD*
D17*
G04 #@! TO.C,C3*
X31889400Y-14579600D03*
X33439400Y-14579600D03*
G04 #@! TD*
D18*
G04 #@! TO.C,C11*
X22174200Y-7736800D03*
X22174200Y-9636800D03*
G04 #@! TD*
D19*
G04 #@! TO.C,C1*
X31153400Y-9525000D03*
X29603400Y-9525000D03*
G04 #@! TD*
D20*
G04 #@! TO.C,R7*
X10185400Y-16635100D03*
X10185400Y-14985100D03*
G04 #@! TD*
D21*
G04 #@! TO.C,U3*
X5865000Y-6610000D03*
X6880000Y-11690000D03*
X4850000Y-11690000D03*
D22*
X5230000Y-7880000D03*
X6500000Y-7880000D03*
X5230000Y-9150000D03*
X6500000Y-9150000D03*
X5230000Y-10420000D03*
X6500000Y-10420000D03*
G04 #@! TD*
D23*
G04 #@! TO.C,Q4*
X8405100Y-16647200D03*
X8405100Y-14747200D03*
X6530100Y-15697200D03*
G04 #@! TD*
D24*
G04 #@! TO.C,JP2*
X33451800Y-5196600D03*
D25*
X33451800Y-3896600D03*
G04 #@! TD*
D26*
G04 #@! TO.C,C10*
X22750000Y-2238000D03*
X22750000Y-1278000D03*
G04 #@! TD*
D19*
G04 #@! TO.C,C2*
X37097000Y-13614400D03*
X35547000Y-13614400D03*
G04 #@! TD*
D27*
G04 #@! TO.C,R1*
X29619500Y-16556100D03*
X31269500Y-16556100D03*
G04 #@! TD*
G04 #@! TO.C,R6*
X2832600Y-13893800D03*
X4482600Y-13893800D03*
G04 #@! TD*
D28*
G04 #@! TO.C,J4*
X16550000Y-21057499D03*
X19050000Y-21057499D03*
X21550000Y-21057499D03*
X24050000Y-21057499D03*
D29*
X27249999Y-27847499D03*
X13350001Y-27847499D03*
G04 #@! TD*
D30*
G04 #@! TO.C,JP1*
X30892600Y-18614800D03*
D31*
X29592600Y-18614800D03*
G04 #@! TD*
D32*
G04 #@! TO.C,D1*
X34719600Y-23292400D03*
X32619600Y-23292400D03*
G04 #@! TD*
D30*
G04 #@! TO.C,JP5*
X25846800Y-15595600D03*
D31*
X24546800Y-15595600D03*
G04 #@! TD*
D27*
G04 #@! TO.C,R12*
X3758300Y-19354800D03*
X5408300Y-19354800D03*
G04 #@! TD*
D33*
G04 #@! TO.C,Y1*
X24814000Y-1524000D03*
X24814000Y-4024000D03*
G04 #@! TD*
D14*
G04 #@! TO.C,R9*
X37121600Y-8534400D03*
X35471600Y-8534400D03*
G04 #@! TD*
D34*
G04 #@! TO.C,U4*
X10250000Y-2220000D03*
X10250000Y-3320000D03*
X10300000Y-4420000D03*
X10250000Y-5520000D03*
X10250000Y-6620000D03*
X10250000Y-7720000D03*
X10250000Y-8820000D03*
X20250000Y-8820000D03*
X20250000Y-7720000D03*
X20250000Y-6620000D03*
X20250000Y-5520000D03*
X20300000Y-4420000D03*
X20250000Y-3320000D03*
X20250000Y-2220000D03*
G04 #@! TD*
D35*
G04 #@! TO.C,H4*
X37800000Y-27800000D03*
G04 #@! TD*
G04 #@! TO.C,H3*
X2800000Y-27800000D03*
G04 #@! TD*
D36*
G04 #@! TO.C,JP4*
X33072400Y-17203700D03*
D37*
X34372400Y-17203700D03*
G04 #@! TD*
D30*
G04 #@! TO.C,JP3*
X25843800Y-12984200D03*
D31*
X24543800Y-12984200D03*
G04 #@! TD*
D35*
G04 #@! TO.C,H2*
X37800000Y-2800000D03*
G04 #@! TD*
D38*
G04 #@! TO.C,Q3*
X4683800Y-15699500D03*
X2783800Y-15699500D03*
X3733800Y-17574500D03*
G04 #@! TD*
D23*
G04 #@! TO.C,Q2*
X34939300Y-21215800D03*
X34939300Y-19315800D03*
X33064300Y-20265800D03*
G04 #@! TD*
D35*
G04 #@! TO.C,H1*
X2800000Y-2800000D03*
G04 #@! TD*
D14*
G04 #@! TO.C,R2*
X37121600Y-6959600D03*
X35471600Y-6959600D03*
G04 #@! TD*
G04 #@! TO.C,R13*
X5408300Y-20878800D03*
X3758300Y-20878800D03*
G04 #@! TD*
%LPD*%
M02*
