%TF.GenerationSoftware,KiCad,Pcbnew,8.0.6*%
%TF.CreationDate,2024-11-12T21:32:05-08:00*%
%TF.ProjectId,sensor_board,73656e73-6f72-45f6-926f-6172642e6b69,rev?*%
%TF.SameCoordinates,Original*%
%TF.FileFunction,Drillmap*%
%TF.FilePolarity,Positive*%
%FSLAX45Y45*%
G04 Gerber Fmt 4.5, Leading zero omitted, Abs format (unit mm)*
G04 Created by KiCad (PCBNEW 8.0.6) date 2024-11-12 21:32:05*
%MOMM*%
%LPD*%
G01*
G04 APERTURE LIST*
%ADD10C,0.100000*%
%ADD11C,0.200000*%
G04 APERTURE END LIST*
D10*
X0Y0D02*
X4060000Y0D01*
X4060000Y-3060000D01*
X0Y-3060000D01*
X0Y0D01*
D11*
D10*
X435450Y-1119450D02*
X534550Y-1218550D01*
X534550Y-1119450D02*
X435450Y-1218550D01*
X536950Y-611450D02*
X636050Y-710550D01*
X636050Y-611450D02*
X536950Y-710550D01*
X638450Y-1119450D02*
X737550Y-1218550D01*
X737550Y-1119450D02*
X638450Y-1218550D01*
D11*
X255777Y-3376484D02*
X255777Y-3176484D01*
X255777Y-3176484D02*
X303396Y-3176484D01*
X303396Y-3176484D02*
X331967Y-3186008D01*
X331967Y-3186008D02*
X351015Y-3205055D01*
X351015Y-3205055D02*
X360539Y-3224103D01*
X360539Y-3224103D02*
X370062Y-3262198D01*
X370062Y-3262198D02*
X370062Y-3290769D01*
X370062Y-3290769D02*
X360539Y-3328865D01*
X360539Y-3328865D02*
X351015Y-3347912D01*
X351015Y-3347912D02*
X331967Y-3366960D01*
X331967Y-3366960D02*
X303396Y-3376484D01*
X303396Y-3376484D02*
X255777Y-3376484D01*
X455777Y-3376484D02*
X455777Y-3243150D01*
X455777Y-3281246D02*
X465301Y-3262198D01*
X465301Y-3262198D02*
X474824Y-3252674D01*
X474824Y-3252674D02*
X493872Y-3243150D01*
X493872Y-3243150D02*
X512920Y-3243150D01*
X579586Y-3376484D02*
X579586Y-3243150D01*
X579586Y-3176484D02*
X570063Y-3186008D01*
X570063Y-3186008D02*
X579586Y-3195531D01*
X579586Y-3195531D02*
X589110Y-3186008D01*
X589110Y-3186008D02*
X579586Y-3176484D01*
X579586Y-3176484D02*
X579586Y-3195531D01*
X703396Y-3376484D02*
X684348Y-3366960D01*
X684348Y-3366960D02*
X674824Y-3347912D01*
X674824Y-3347912D02*
X674824Y-3176484D01*
X808158Y-3376484D02*
X789110Y-3366960D01*
X789110Y-3366960D02*
X779586Y-3347912D01*
X779586Y-3347912D02*
X779586Y-3176484D01*
X1036729Y-3376484D02*
X1036729Y-3176484D01*
X1036729Y-3176484D02*
X1103396Y-3319341D01*
X1103396Y-3319341D02*
X1170063Y-3176484D01*
X1170063Y-3176484D02*
X1170063Y-3376484D01*
X1351015Y-3376484D02*
X1351015Y-3271722D01*
X1351015Y-3271722D02*
X1341491Y-3252674D01*
X1341491Y-3252674D02*
X1322444Y-3243150D01*
X1322444Y-3243150D02*
X1284348Y-3243150D01*
X1284348Y-3243150D02*
X1265301Y-3252674D01*
X1351015Y-3366960D02*
X1331967Y-3376484D01*
X1331967Y-3376484D02*
X1284348Y-3376484D01*
X1284348Y-3376484D02*
X1265301Y-3366960D01*
X1265301Y-3366960D02*
X1255777Y-3347912D01*
X1255777Y-3347912D02*
X1255777Y-3328865D01*
X1255777Y-3328865D02*
X1265301Y-3309817D01*
X1265301Y-3309817D02*
X1284348Y-3300293D01*
X1284348Y-3300293D02*
X1331967Y-3300293D01*
X1331967Y-3300293D02*
X1351015Y-3290769D01*
X1446253Y-3243150D02*
X1446253Y-3443150D01*
X1446253Y-3252674D02*
X1465301Y-3243150D01*
X1465301Y-3243150D02*
X1503396Y-3243150D01*
X1503396Y-3243150D02*
X1522443Y-3252674D01*
X1522443Y-3252674D02*
X1531967Y-3262198D01*
X1531967Y-3262198D02*
X1541491Y-3281246D01*
X1541491Y-3281246D02*
X1541491Y-3338388D01*
X1541491Y-3338388D02*
X1531967Y-3357436D01*
X1531967Y-3357436D02*
X1522443Y-3366960D01*
X1522443Y-3366960D02*
X1503396Y-3376484D01*
X1503396Y-3376484D02*
X1465301Y-3376484D01*
X1465301Y-3376484D02*
X1446253Y-3366960D01*
X1627205Y-3357436D02*
X1636729Y-3366960D01*
X1636729Y-3366960D02*
X1627205Y-3376484D01*
X1627205Y-3376484D02*
X1617682Y-3366960D01*
X1617682Y-3366960D02*
X1627205Y-3357436D01*
X1627205Y-3357436D02*
X1627205Y-3376484D01*
X1627205Y-3252674D02*
X1636729Y-3262198D01*
X1636729Y-3262198D02*
X1627205Y-3271722D01*
X1627205Y-3271722D02*
X1617682Y-3262198D01*
X1617682Y-3262198D02*
X1627205Y-3252674D01*
X1627205Y-3252674D02*
X1627205Y-3271722D01*
D10*
X-104100Y-3655450D02*
X-5000Y-3754550D01*
X-5000Y-3655450D02*
X-104100Y-3754550D01*
D11*
X293872Y-3596484D02*
X312920Y-3596484D01*
X312920Y-3596484D02*
X331967Y-3606008D01*
X331967Y-3606008D02*
X341491Y-3615531D01*
X341491Y-3615531D02*
X351015Y-3634579D01*
X351015Y-3634579D02*
X360539Y-3672674D01*
X360539Y-3672674D02*
X360539Y-3720293D01*
X360539Y-3720293D02*
X351015Y-3758388D01*
X351015Y-3758388D02*
X341491Y-3777436D01*
X341491Y-3777436D02*
X331967Y-3786960D01*
X331967Y-3786960D02*
X312920Y-3796484D01*
X312920Y-3796484D02*
X293872Y-3796484D01*
X293872Y-3796484D02*
X274824Y-3786960D01*
X274824Y-3786960D02*
X265301Y-3777436D01*
X265301Y-3777436D02*
X255777Y-3758388D01*
X255777Y-3758388D02*
X246253Y-3720293D01*
X246253Y-3720293D02*
X246253Y-3672674D01*
X246253Y-3672674D02*
X255777Y-3634579D01*
X255777Y-3634579D02*
X265301Y-3615531D01*
X265301Y-3615531D02*
X274824Y-3606008D01*
X274824Y-3606008D02*
X293872Y-3596484D01*
X446253Y-3777436D02*
X455777Y-3786960D01*
X455777Y-3786960D02*
X446253Y-3796484D01*
X446253Y-3796484D02*
X436729Y-3786960D01*
X436729Y-3786960D02*
X446253Y-3777436D01*
X446253Y-3777436D02*
X446253Y-3796484D01*
X551015Y-3796484D02*
X589110Y-3796484D01*
X589110Y-3796484D02*
X608158Y-3786960D01*
X608158Y-3786960D02*
X617682Y-3777436D01*
X617682Y-3777436D02*
X636729Y-3748865D01*
X636729Y-3748865D02*
X646253Y-3710769D01*
X646253Y-3710769D02*
X646253Y-3634579D01*
X646253Y-3634579D02*
X636729Y-3615531D01*
X636729Y-3615531D02*
X627205Y-3606008D01*
X627205Y-3606008D02*
X608158Y-3596484D01*
X608158Y-3596484D02*
X570063Y-3596484D01*
X570063Y-3596484D02*
X551015Y-3606008D01*
X551015Y-3606008D02*
X541491Y-3615531D01*
X541491Y-3615531D02*
X531967Y-3634579D01*
X531967Y-3634579D02*
X531967Y-3682198D01*
X531967Y-3682198D02*
X541491Y-3701246D01*
X541491Y-3701246D02*
X551015Y-3710769D01*
X551015Y-3710769D02*
X570063Y-3720293D01*
X570063Y-3720293D02*
X608158Y-3720293D01*
X608158Y-3720293D02*
X627205Y-3710769D01*
X627205Y-3710769D02*
X636729Y-3701246D01*
X636729Y-3701246D02*
X646253Y-3682198D01*
X741491Y-3796484D02*
X779586Y-3796484D01*
X779586Y-3796484D02*
X798634Y-3786960D01*
X798634Y-3786960D02*
X808158Y-3777436D01*
X808158Y-3777436D02*
X827205Y-3748865D01*
X827205Y-3748865D02*
X836729Y-3710769D01*
X836729Y-3710769D02*
X836729Y-3634579D01*
X836729Y-3634579D02*
X827205Y-3615531D01*
X827205Y-3615531D02*
X817682Y-3606008D01*
X817682Y-3606008D02*
X798634Y-3596484D01*
X798634Y-3596484D02*
X760539Y-3596484D01*
X760539Y-3596484D02*
X741491Y-3606008D01*
X741491Y-3606008D02*
X731967Y-3615531D01*
X731967Y-3615531D02*
X722443Y-3634579D01*
X722443Y-3634579D02*
X722443Y-3682198D01*
X722443Y-3682198D02*
X731967Y-3701246D01*
X731967Y-3701246D02*
X741491Y-3710769D01*
X741491Y-3710769D02*
X760539Y-3720293D01*
X760539Y-3720293D02*
X798634Y-3720293D01*
X798634Y-3720293D02*
X817682Y-3710769D01*
X817682Y-3710769D02*
X827205Y-3701246D01*
X827205Y-3701246D02*
X836729Y-3682198D01*
X1027205Y-3796484D02*
X912920Y-3796484D01*
X970062Y-3796484D02*
X970062Y-3596484D01*
X970062Y-3596484D02*
X951015Y-3625055D01*
X951015Y-3625055D02*
X931967Y-3644103D01*
X931967Y-3644103D02*
X912920Y-3653627D01*
X1112920Y-3796484D02*
X1112920Y-3663150D01*
X1112920Y-3682198D02*
X1122444Y-3672674D01*
X1122444Y-3672674D02*
X1141491Y-3663150D01*
X1141491Y-3663150D02*
X1170063Y-3663150D01*
X1170063Y-3663150D02*
X1189110Y-3672674D01*
X1189110Y-3672674D02*
X1198634Y-3691722D01*
X1198634Y-3691722D02*
X1198634Y-3796484D01*
X1198634Y-3691722D02*
X1208158Y-3672674D01*
X1208158Y-3672674D02*
X1227205Y-3663150D01*
X1227205Y-3663150D02*
X1255777Y-3663150D01*
X1255777Y-3663150D02*
X1274825Y-3672674D01*
X1274825Y-3672674D02*
X1284348Y-3691722D01*
X1284348Y-3691722D02*
X1284348Y-3796484D01*
X1379586Y-3796484D02*
X1379586Y-3663150D01*
X1379586Y-3682198D02*
X1389110Y-3672674D01*
X1389110Y-3672674D02*
X1408158Y-3663150D01*
X1408158Y-3663150D02*
X1436729Y-3663150D01*
X1436729Y-3663150D02*
X1455777Y-3672674D01*
X1455777Y-3672674D02*
X1465301Y-3691722D01*
X1465301Y-3691722D02*
X1465301Y-3796484D01*
X1465301Y-3691722D02*
X1474824Y-3672674D01*
X1474824Y-3672674D02*
X1493872Y-3663150D01*
X1493872Y-3663150D02*
X1522443Y-3663150D01*
X1522443Y-3663150D02*
X1541491Y-3672674D01*
X1541491Y-3672674D02*
X1551015Y-3691722D01*
X1551015Y-3691722D02*
X1551015Y-3796484D01*
X1941491Y-3586960D02*
X1770063Y-3844103D01*
X2198634Y-3596484D02*
X2217682Y-3596484D01*
X2217682Y-3596484D02*
X2236729Y-3606008D01*
X2236729Y-3606008D02*
X2246253Y-3615531D01*
X2246253Y-3615531D02*
X2255777Y-3634579D01*
X2255777Y-3634579D02*
X2265301Y-3672674D01*
X2265301Y-3672674D02*
X2265301Y-3720293D01*
X2265301Y-3720293D02*
X2255777Y-3758388D01*
X2255777Y-3758388D02*
X2246253Y-3777436D01*
X2246253Y-3777436D02*
X2236729Y-3786960D01*
X2236729Y-3786960D02*
X2217682Y-3796484D01*
X2217682Y-3796484D02*
X2198634Y-3796484D01*
X2198634Y-3796484D02*
X2179587Y-3786960D01*
X2179587Y-3786960D02*
X2170063Y-3777436D01*
X2170063Y-3777436D02*
X2160539Y-3758388D01*
X2160539Y-3758388D02*
X2151015Y-3720293D01*
X2151015Y-3720293D02*
X2151015Y-3672674D01*
X2151015Y-3672674D02*
X2160539Y-3634579D01*
X2160539Y-3634579D02*
X2170063Y-3615531D01*
X2170063Y-3615531D02*
X2179587Y-3606008D01*
X2179587Y-3606008D02*
X2198634Y-3596484D01*
X2351015Y-3777436D02*
X2360539Y-3786960D01*
X2360539Y-3786960D02*
X2351015Y-3796484D01*
X2351015Y-3796484D02*
X2341491Y-3786960D01*
X2341491Y-3786960D02*
X2351015Y-3777436D01*
X2351015Y-3777436D02*
X2351015Y-3796484D01*
X2484348Y-3596484D02*
X2503396Y-3596484D01*
X2503396Y-3596484D02*
X2522444Y-3606008D01*
X2522444Y-3606008D02*
X2531968Y-3615531D01*
X2531968Y-3615531D02*
X2541491Y-3634579D01*
X2541491Y-3634579D02*
X2551015Y-3672674D01*
X2551015Y-3672674D02*
X2551015Y-3720293D01*
X2551015Y-3720293D02*
X2541491Y-3758388D01*
X2541491Y-3758388D02*
X2531968Y-3777436D01*
X2531968Y-3777436D02*
X2522444Y-3786960D01*
X2522444Y-3786960D02*
X2503396Y-3796484D01*
X2503396Y-3796484D02*
X2484348Y-3796484D01*
X2484348Y-3796484D02*
X2465301Y-3786960D01*
X2465301Y-3786960D02*
X2455777Y-3777436D01*
X2455777Y-3777436D02*
X2446253Y-3758388D01*
X2446253Y-3758388D02*
X2436729Y-3720293D01*
X2436729Y-3720293D02*
X2436729Y-3672674D01*
X2436729Y-3672674D02*
X2446253Y-3634579D01*
X2446253Y-3634579D02*
X2455777Y-3615531D01*
X2455777Y-3615531D02*
X2465301Y-3606008D01*
X2465301Y-3606008D02*
X2484348Y-3596484D01*
X2617682Y-3596484D02*
X2741491Y-3596484D01*
X2741491Y-3596484D02*
X2674825Y-3672674D01*
X2674825Y-3672674D02*
X2703396Y-3672674D01*
X2703396Y-3672674D02*
X2722444Y-3682198D01*
X2722444Y-3682198D02*
X2731968Y-3691722D01*
X2731968Y-3691722D02*
X2741491Y-3710769D01*
X2741491Y-3710769D02*
X2741491Y-3758388D01*
X2741491Y-3758388D02*
X2731968Y-3777436D01*
X2731968Y-3777436D02*
X2722444Y-3786960D01*
X2722444Y-3786960D02*
X2703396Y-3796484D01*
X2703396Y-3796484D02*
X2646253Y-3796484D01*
X2646253Y-3796484D02*
X2627206Y-3786960D01*
X2627206Y-3786960D02*
X2617682Y-3777436D01*
X2836729Y-3796484D02*
X2874825Y-3796484D01*
X2874825Y-3796484D02*
X2893872Y-3786960D01*
X2893872Y-3786960D02*
X2903396Y-3777436D01*
X2903396Y-3777436D02*
X2922444Y-3748865D01*
X2922444Y-3748865D02*
X2931967Y-3710769D01*
X2931967Y-3710769D02*
X2931967Y-3634579D01*
X2931967Y-3634579D02*
X2922444Y-3615531D01*
X2922444Y-3615531D02*
X2912920Y-3606008D01*
X2912920Y-3606008D02*
X2893872Y-3596484D01*
X2893872Y-3596484D02*
X2855777Y-3596484D01*
X2855777Y-3596484D02*
X2836729Y-3606008D01*
X2836729Y-3606008D02*
X2827206Y-3615531D01*
X2827206Y-3615531D02*
X2817682Y-3634579D01*
X2817682Y-3634579D02*
X2817682Y-3682198D01*
X2817682Y-3682198D02*
X2827206Y-3701246D01*
X2827206Y-3701246D02*
X2836729Y-3710769D01*
X2836729Y-3710769D02*
X2855777Y-3720293D01*
X2855777Y-3720293D02*
X2893872Y-3720293D01*
X2893872Y-3720293D02*
X2912920Y-3710769D01*
X2912920Y-3710769D02*
X2922444Y-3701246D01*
X2922444Y-3701246D02*
X2931967Y-3682198D01*
X3055777Y-3596484D02*
X3074825Y-3596484D01*
X3074825Y-3596484D02*
X3093872Y-3606008D01*
X3093872Y-3606008D02*
X3103396Y-3615531D01*
X3103396Y-3615531D02*
X3112920Y-3634579D01*
X3112920Y-3634579D02*
X3122444Y-3672674D01*
X3122444Y-3672674D02*
X3122444Y-3720293D01*
X3122444Y-3720293D02*
X3112920Y-3758388D01*
X3112920Y-3758388D02*
X3103396Y-3777436D01*
X3103396Y-3777436D02*
X3093872Y-3786960D01*
X3093872Y-3786960D02*
X3074825Y-3796484D01*
X3074825Y-3796484D02*
X3055777Y-3796484D01*
X3055777Y-3796484D02*
X3036729Y-3786960D01*
X3036729Y-3786960D02*
X3027206Y-3777436D01*
X3027206Y-3777436D02*
X3017682Y-3758388D01*
X3017682Y-3758388D02*
X3008158Y-3720293D01*
X3008158Y-3720293D02*
X3008158Y-3672674D01*
X3008158Y-3672674D02*
X3017682Y-3634579D01*
X3017682Y-3634579D02*
X3027206Y-3615531D01*
X3027206Y-3615531D02*
X3036729Y-3606008D01*
X3036729Y-3606008D02*
X3055777Y-3596484D01*
X3198634Y-3596484D02*
X3198634Y-3634579D01*
X3274825Y-3596484D02*
X3274825Y-3634579D01*
X3570063Y-3872674D02*
X3560539Y-3863150D01*
X3560539Y-3863150D02*
X3541491Y-3834579D01*
X3541491Y-3834579D02*
X3531968Y-3815531D01*
X3531968Y-3815531D02*
X3522444Y-3786960D01*
X3522444Y-3786960D02*
X3512920Y-3739341D01*
X3512920Y-3739341D02*
X3512920Y-3701246D01*
X3512920Y-3701246D02*
X3522444Y-3653627D01*
X3522444Y-3653627D02*
X3531968Y-3625055D01*
X3531968Y-3625055D02*
X3541491Y-3606008D01*
X3541491Y-3606008D02*
X3560539Y-3577436D01*
X3560539Y-3577436D02*
X3570063Y-3567912D01*
X3627206Y-3596484D02*
X3751015Y-3596484D01*
X3751015Y-3596484D02*
X3684348Y-3672674D01*
X3684348Y-3672674D02*
X3712920Y-3672674D01*
X3712920Y-3672674D02*
X3731968Y-3682198D01*
X3731968Y-3682198D02*
X3741491Y-3691722D01*
X3741491Y-3691722D02*
X3751015Y-3710769D01*
X3751015Y-3710769D02*
X3751015Y-3758388D01*
X3751015Y-3758388D02*
X3741491Y-3777436D01*
X3741491Y-3777436D02*
X3731968Y-3786960D01*
X3731968Y-3786960D02*
X3712920Y-3796484D01*
X3712920Y-3796484D02*
X3655777Y-3796484D01*
X3655777Y-3796484D02*
X3636729Y-3786960D01*
X3636729Y-3786960D02*
X3627206Y-3777436D01*
X3989110Y-3796484D02*
X3989110Y-3596484D01*
X4074825Y-3796484D02*
X4074825Y-3691722D01*
X4074825Y-3691722D02*
X4065301Y-3672674D01*
X4065301Y-3672674D02*
X4046253Y-3663150D01*
X4046253Y-3663150D02*
X4017682Y-3663150D01*
X4017682Y-3663150D02*
X3998634Y-3672674D01*
X3998634Y-3672674D02*
X3989110Y-3682198D01*
X4198634Y-3796484D02*
X4179587Y-3786960D01*
X4179587Y-3786960D02*
X4170063Y-3777436D01*
X4170063Y-3777436D02*
X4160539Y-3758388D01*
X4160539Y-3758388D02*
X4160539Y-3701246D01*
X4160539Y-3701246D02*
X4170063Y-3682198D01*
X4170063Y-3682198D02*
X4179587Y-3672674D01*
X4179587Y-3672674D02*
X4198634Y-3663150D01*
X4198634Y-3663150D02*
X4227206Y-3663150D01*
X4227206Y-3663150D02*
X4246253Y-3672674D01*
X4246253Y-3672674D02*
X4255777Y-3682198D01*
X4255777Y-3682198D02*
X4265301Y-3701246D01*
X4265301Y-3701246D02*
X4265301Y-3758388D01*
X4265301Y-3758388D02*
X4255777Y-3777436D01*
X4255777Y-3777436D02*
X4246253Y-3786960D01*
X4246253Y-3786960D02*
X4227206Y-3796484D01*
X4227206Y-3796484D02*
X4198634Y-3796484D01*
X4379587Y-3796484D02*
X4360539Y-3786960D01*
X4360539Y-3786960D02*
X4351015Y-3767912D01*
X4351015Y-3767912D02*
X4351015Y-3596484D01*
X4531968Y-3786960D02*
X4512920Y-3796484D01*
X4512920Y-3796484D02*
X4474825Y-3796484D01*
X4474825Y-3796484D02*
X4455777Y-3786960D01*
X4455777Y-3786960D02*
X4446253Y-3767912D01*
X4446253Y-3767912D02*
X4446253Y-3691722D01*
X4446253Y-3691722D02*
X4455777Y-3672674D01*
X4455777Y-3672674D02*
X4474825Y-3663150D01*
X4474825Y-3663150D02*
X4512920Y-3663150D01*
X4512920Y-3663150D02*
X4531968Y-3672674D01*
X4531968Y-3672674D02*
X4541492Y-3691722D01*
X4541492Y-3691722D02*
X4541492Y-3710769D01*
X4541492Y-3710769D02*
X4446253Y-3729817D01*
X4617682Y-3786960D02*
X4636730Y-3796484D01*
X4636730Y-3796484D02*
X4674825Y-3796484D01*
X4674825Y-3796484D02*
X4693873Y-3786960D01*
X4693873Y-3786960D02*
X4703396Y-3767912D01*
X4703396Y-3767912D02*
X4703396Y-3758388D01*
X4703396Y-3758388D02*
X4693873Y-3739341D01*
X4693873Y-3739341D02*
X4674825Y-3729817D01*
X4674825Y-3729817D02*
X4646253Y-3729817D01*
X4646253Y-3729817D02*
X4627206Y-3720293D01*
X4627206Y-3720293D02*
X4617682Y-3701246D01*
X4617682Y-3701246D02*
X4617682Y-3691722D01*
X4617682Y-3691722D02*
X4627206Y-3672674D01*
X4627206Y-3672674D02*
X4646253Y-3663150D01*
X4646253Y-3663150D02*
X4674825Y-3663150D01*
X4674825Y-3663150D02*
X4693873Y-3672674D01*
X4770063Y-3872674D02*
X4779587Y-3863150D01*
X4779587Y-3863150D02*
X4798634Y-3834579D01*
X4798634Y-3834579D02*
X4808158Y-3815531D01*
X4808158Y-3815531D02*
X4817682Y-3786960D01*
X4817682Y-3786960D02*
X4827206Y-3739341D01*
X4827206Y-3739341D02*
X4827206Y-3701246D01*
X4827206Y-3701246D02*
X4817682Y-3653627D01*
X4817682Y-3653627D02*
X4808158Y-3625055D01*
X4808158Y-3625055D02*
X4798634Y-3606008D01*
X4798634Y-3606008D02*
X4779587Y-3577436D01*
X4779587Y-3577436D02*
X4770063Y-3567912D01*
X5131968Y-3872674D02*
X5122444Y-3863150D01*
X5122444Y-3863150D02*
X5103396Y-3834579D01*
X5103396Y-3834579D02*
X5093873Y-3815531D01*
X5093873Y-3815531D02*
X5084349Y-3786960D01*
X5084349Y-3786960D02*
X5074825Y-3739341D01*
X5074825Y-3739341D02*
X5074825Y-3701246D01*
X5074825Y-3701246D02*
X5084349Y-3653627D01*
X5084349Y-3653627D02*
X5093873Y-3625055D01*
X5093873Y-3625055D02*
X5103396Y-3606008D01*
X5103396Y-3606008D02*
X5122444Y-3577436D01*
X5122444Y-3577436D02*
X5131968Y-3567912D01*
X5208158Y-3663150D02*
X5208158Y-3796484D01*
X5208158Y-3682198D02*
X5217682Y-3672674D01*
X5217682Y-3672674D02*
X5236730Y-3663150D01*
X5236730Y-3663150D02*
X5265301Y-3663150D01*
X5265301Y-3663150D02*
X5284349Y-3672674D01*
X5284349Y-3672674D02*
X5293873Y-3691722D01*
X5293873Y-3691722D02*
X5293873Y-3796484D01*
X5417682Y-3796484D02*
X5398634Y-3786960D01*
X5398634Y-3786960D02*
X5389111Y-3777436D01*
X5389111Y-3777436D02*
X5379587Y-3758388D01*
X5379587Y-3758388D02*
X5379587Y-3701246D01*
X5379587Y-3701246D02*
X5389111Y-3682198D01*
X5389111Y-3682198D02*
X5398634Y-3672674D01*
X5398634Y-3672674D02*
X5417682Y-3663150D01*
X5417682Y-3663150D02*
X5446254Y-3663150D01*
X5446254Y-3663150D02*
X5465301Y-3672674D01*
X5465301Y-3672674D02*
X5474825Y-3682198D01*
X5474825Y-3682198D02*
X5484349Y-3701246D01*
X5484349Y-3701246D02*
X5484349Y-3758388D01*
X5484349Y-3758388D02*
X5474825Y-3777436D01*
X5474825Y-3777436D02*
X5465301Y-3786960D01*
X5465301Y-3786960D02*
X5446254Y-3796484D01*
X5446254Y-3796484D02*
X5417682Y-3796484D01*
X5541492Y-3663150D02*
X5617682Y-3663150D01*
X5570063Y-3596484D02*
X5570063Y-3767912D01*
X5570063Y-3767912D02*
X5579587Y-3786960D01*
X5579587Y-3786960D02*
X5598634Y-3796484D01*
X5598634Y-3796484D02*
X5617682Y-3796484D01*
X5836730Y-3663150D02*
X5836730Y-3863150D01*
X5836730Y-3672674D02*
X5855777Y-3663150D01*
X5855777Y-3663150D02*
X5893873Y-3663150D01*
X5893873Y-3663150D02*
X5912920Y-3672674D01*
X5912920Y-3672674D02*
X5922444Y-3682198D01*
X5922444Y-3682198D02*
X5931968Y-3701246D01*
X5931968Y-3701246D02*
X5931968Y-3758388D01*
X5931968Y-3758388D02*
X5922444Y-3777436D01*
X5922444Y-3777436D02*
X5912920Y-3786960D01*
X5912920Y-3786960D02*
X5893873Y-3796484D01*
X5893873Y-3796484D02*
X5855777Y-3796484D01*
X5855777Y-3796484D02*
X5836730Y-3786960D01*
X6046253Y-3796484D02*
X6027206Y-3786960D01*
X6027206Y-3786960D02*
X6017682Y-3767912D01*
X6017682Y-3767912D02*
X6017682Y-3596484D01*
X6208158Y-3796484D02*
X6208158Y-3691722D01*
X6208158Y-3691722D02*
X6198634Y-3672674D01*
X6198634Y-3672674D02*
X6179587Y-3663150D01*
X6179587Y-3663150D02*
X6141492Y-3663150D01*
X6141492Y-3663150D02*
X6122444Y-3672674D01*
X6208158Y-3786960D02*
X6189111Y-3796484D01*
X6189111Y-3796484D02*
X6141492Y-3796484D01*
X6141492Y-3796484D02*
X6122444Y-3786960D01*
X6122444Y-3786960D02*
X6112920Y-3767912D01*
X6112920Y-3767912D02*
X6112920Y-3748865D01*
X6112920Y-3748865D02*
X6122444Y-3729817D01*
X6122444Y-3729817D02*
X6141492Y-3720293D01*
X6141492Y-3720293D02*
X6189111Y-3720293D01*
X6189111Y-3720293D02*
X6208158Y-3710769D01*
X6274825Y-3663150D02*
X6351015Y-3663150D01*
X6303396Y-3596484D02*
X6303396Y-3767912D01*
X6303396Y-3767912D02*
X6312920Y-3786960D01*
X6312920Y-3786960D02*
X6331968Y-3796484D01*
X6331968Y-3796484D02*
X6351015Y-3796484D01*
X6493873Y-3786960D02*
X6474825Y-3796484D01*
X6474825Y-3796484D02*
X6436730Y-3796484D01*
X6436730Y-3796484D02*
X6417682Y-3786960D01*
X6417682Y-3786960D02*
X6408158Y-3767912D01*
X6408158Y-3767912D02*
X6408158Y-3691722D01*
X6408158Y-3691722D02*
X6417682Y-3672674D01*
X6417682Y-3672674D02*
X6436730Y-3663150D01*
X6436730Y-3663150D02*
X6474825Y-3663150D01*
X6474825Y-3663150D02*
X6493873Y-3672674D01*
X6493873Y-3672674D02*
X6503396Y-3691722D01*
X6503396Y-3691722D02*
X6503396Y-3710769D01*
X6503396Y-3710769D02*
X6408158Y-3729817D01*
X6674825Y-3796484D02*
X6674825Y-3596484D01*
X6674825Y-3786960D02*
X6655777Y-3796484D01*
X6655777Y-3796484D02*
X6617682Y-3796484D01*
X6617682Y-3796484D02*
X6598634Y-3786960D01*
X6598634Y-3786960D02*
X6589111Y-3777436D01*
X6589111Y-3777436D02*
X6579587Y-3758388D01*
X6579587Y-3758388D02*
X6579587Y-3701246D01*
X6579587Y-3701246D02*
X6589111Y-3682198D01*
X6589111Y-3682198D02*
X6598634Y-3672674D01*
X6598634Y-3672674D02*
X6617682Y-3663150D01*
X6617682Y-3663150D02*
X6655777Y-3663150D01*
X6655777Y-3663150D02*
X6674825Y-3672674D01*
X6751015Y-3872674D02*
X6760539Y-3863150D01*
X6760539Y-3863150D02*
X6779587Y-3834579D01*
X6779587Y-3834579D02*
X6789111Y-3815531D01*
X6789111Y-3815531D02*
X6798634Y-3786960D01*
X6798634Y-3786960D02*
X6808158Y-3739341D01*
X6808158Y-3739341D02*
X6808158Y-3701246D01*
X6808158Y-3701246D02*
X6798634Y-3653627D01*
X6798634Y-3653627D02*
X6789111Y-3625055D01*
X6789111Y-3625055D02*
X6779587Y-3606008D01*
X6779587Y-3606008D02*
X6760539Y-3577436D01*
X6760539Y-3577436D02*
X6751015Y-3567912D01*
M02*
